<svg width="250" height="160" viewBox="0 0 250 160" fill="none"
    xmlns="http://www.w3.org/2000/svg">
    <g clip-path="url(#clip0_5357_51696)">
        <path d="M35 160V.798702e-5" stroke="url(#paint0_linear_5357_51696)" stroke-opacity=".4"/>
        <path d="M215 160V.798702e-5" stroke="url(#paint1_linear_5357_51696)" stroke-opacity=".4"/>
        <path d="M250 24H-.756979e-5" stroke="url(#paint2_linear_5357_51696)" stroke-opacity=".4"/>
        <path d="M250 132H-.756979e-5" stroke="url(#paint3_linear_5357_51696)" stroke-opacity=".4"/>
        <rect x="35" y="24" width="180" height="32" rx="8" fill="#76717f" fill-opacity=".06"/>
        <rect x="47" y="36" width="83" height="8" rx="4" fill="#76717f" fill-opacity=".3"/>
        <path d="M188 37.5l5 5 5-5" stroke="#474857" stroke-opacity=".5" stroke-width="1.5" stroke-linecap="round" stroke-linejoin="round"/>
        <rect x="35" y="61" width="180" height="34" rx="8" fill="#76717f" fill-opacity=".06"/>
        <rect x="47" y="67" width="63" height="8" rx="4" fill="oklch(var(--p))"/>
        <rect x="47" y="83" width="103" height="6" rx="3" fill="#76717f" fill-opacity=".2"/>
        <path d="M188 75.5l5 5 5-5" stroke="#474857" stroke-opacity=".5" stroke-width="1.5" stroke-linecap="round" stroke-linejoin="round"/>
        <rect x="35" y="100" width="180" height="32" rx="8" fill="#76717f" fill-opacity=".06"/>
        <rect x="47" y="112" width="50" height="8" rx="4" fill="#76717f" fill-opacity=".3"/>
        <path d="M188 113.5l5 5 5-5" stroke="#474857" stroke-opacity=".5" stroke-width="1.5" stroke-linecap="round" stroke-linejoin="round"/>
    </g>
   
</svg>

