<svg width="230" height="92" viewBox="0 0 230 92" fill="none"
    xmlns="http://www.w3.org/2000/svg">
    <path d="M230 41.25H-.411272e-5" stroke="url(#paint0_linear_8940_13773)" stroke-opacity=".4"></path>
    <path d="M230 65.25H-.411272e-5" stroke="url(#paint1_linear_8940_13773)" stroke-opacity=".4"></path>
    <path d="M21.8501 81.5V24" stroke="url(#paint2_linear_8940_13773)" stroke-opacity=".4"></path>
    <path d="M207 81.5V24" stroke="url(#paint3_linear_8940_13773)" stroke-opacity=".4"></path>
    <rect x="21.8501" y="46.25" width="185.15" height="14" rx="7" fill="#76717f" fill-opacity=".06">
    </rect>
    <rect x="22.7493" y="46.25" width="110.151" height="14" rx="7" fill="oklch(var(--p))"></rect>
    <path d="M132.4 63.25c5.523.0 10-4.4772 10-10s-4.477-10-10-10c-5.52300000000001.0-10 4.4772-10 10S126.877 63.25 132.4 63.25z" fill="#fff"></path>
    <rect x="120.919" y="24.0398" width="23.7416" height="4.40913" rx="2.20456" fill="oklch(var(--p))" fill-opacity=".3"></rect>
    <path d="M117.951 18.3237c0-1.1045.896000000000001-2 2-2H145.4c1.10499999999999.0 2 .895500000000002 2 2V34.1648c0 1.1046-.89500000000001 2-2 2H136.7C135.947 36.1648 135.258 36.5881 134.917 37.2598L133.122 40.7974C132.936 41.1625 132.415 41.1625 132.23 40.7974L130.435 37.2598C130.094 36.5881 129.405 36.1648 128.651 36.1648H119.951c-1.104.0-2-.895400000000002-2-2V18.3237z" fill="oklch(var(--p))" fill-opacity=".1"></path>
    <defs>
        <linearGradient id="paint0_linear_8940_13773" x1=".122952e-4" y1="40.75" x2="230" y2="40.8124" gradientUnits="userSpaceOnUse">
            <stop stop-color="#76717f" stop-opacity="0"></stop>
            <stop offset=".245" stop-color="#3f404d" stop-opacity=".5"></stop>
            <stop offset=".75" stop-color="#3f404d" stop-opacity=".5"></stop>
            <stop offset="1" stop-color="#76717f" stop-opacity="0"></stop>
        </linearGradient>
        <linearGradient id="paint1_linear_8940_13773" x1=".122952e-4" y1="64.75" x2="230" y2="64.8124" gradientUnits="userSpaceOnUse">
            <stop stop-color="#76717f" stop-opacity="0"></stop>
            <stop offset=".245" stop-color="#3f404d" stop-opacity=".5"></stop>
            <stop offset=".75" stop-color="#3f404d" stop-opacity=".5"></stop>
            <stop offset="1" stop-color="#76717f" stop-opacity="0"></stop>
        </linearGradient>
        <linearGradient id="paint2_linear_8940_13773" x1="22.3501" y1="24" x2="22.3462" y2="81.5" gradientUnits="userSpaceOnUse">
            <stop stop-color="#76717f" stop-opacity="0"></stop>
            <stop offset=".245" stop-color="#3f404d" stop-opacity=".5"></stop>
            <stop offset=".75" stop-color="#3f404d" stop-opacity=".5"></stop>
            <stop offset="1" stop-color="#76717f" stop-opacity="0"></stop>
        </linearGradient>
        <linearGradient id="paint3_linear_8940_13773" x1="207.5" y1="24" x2="207.496" y2="81.5" gradientUnits="userSpaceOnUse">
            <stop stop-color="#76717f" stop-opacity="0"></stop>
            <stop offset=".245" stop-color="#3f404d" stop-opacity=".5"></stop>
            <stop offset=".75" stop-color="#3f404d" stop-opacity=".5"></stop>
            <stop offset="1" stop-color="#76717f" stop-opacity="0"></stop>
        </linearGradient>
    </defs>
</svg>