<svg width="218" height="141" viewBox="0 0 218 141" fill="none"
    xmlns="http://www.w3.org/2000/svg">
    <g clip-path="url(#clip0_8940_13858)" fill="none">
        <rect x="19" y="18" width="180" height="107.236" rx="8" fill="#76717F" fill-opacity="0.06"></rect>
        <path d="M218 17.3506H-.560284e-5" stroke="url(&quot;#paint0_linear_8940_13858&quot;)" stroke-opacity="0.4" fill="none"></path>
        <path d="M218 125H-.560284e-5" stroke="url(&quot;#paint1_linear_8940_13858&quot;)" stroke-opacity="0.4" fill="none"></path>
        <path d="M19 141V.414252e-5" stroke="url(&quot;#paint2_linear_8940_13858&quot;)" stroke-opacity="0.4" fill="none"></path>
        <path d="M199 141V-4" stroke="url(&quot;#paint3_linear_8940_13858&quot;)" stroke-opacity="0.4" fill="none"></path>
        <path fill-rule="evenodd" clip-rule="evenodd" d="M90.6268 88.103C88.8566 88.6851 86.9651 89 85 89 75.0589 89 67 80.9411 67 71 67 61.0589 75.0589 53 85 53 86.9651 53 88.8566 53.3149 90.6268 53.897 91.3862 53.4354 92.1787 53.023 93 52.6642 90.5502 51.5938 87.8444 51 85 51c-11.0457.0-20 8.9543-20 20s8.9543 20 20 20C87.8444 91 90.5502 90.4062 93 89.3358 92.1787 88.977 91.3862 88.5646 90.6268 88.103z" fill="#3F404D" fill-opacity="0.2"></path>
        <path fill-rule="evenodd" clip-rule="evenodd" d="M106.627 88.103C104.857 88.6851 102.965 89 101 89 91.0589 89 83 80.9411 83 71 83 61.0589 91.0589 53 101 53 102.965 53 104.857 53.3149 106.627 53.897 107.386 53.4354 108.179 53.023 109 52.6642 106.55 51.5938 103.844 51 101 51c-11.0457.0-20 8.9543-20 20s8.9543 20 20 20C103.844 91 106.55 90.4062 109 89.3358 108.179 88.977 107.386 88.5646 106.627 88.103z" fill="#3F404D" fill-opacity="0.2"></path>
        <path fill-rule="evenodd" clip-rule="evenodd" d="M122.627 88.103C120.857 88.6851 118.965 89 117 89 107.059 89 99 80.9411 99 71c0-9.9411 8.059-18 18-18C118.965 53 120.857 53.3149 122.627 53.897 123.386 53.4354 124.179 53.023 125 52.6642 122.55 51.5938 119.844 51 117 51c-11.046.0-20 8.9543-20 20S105.954 91 117 91C119.844 91 122.55 90.4062 125 89.3358 124.179 88.977 123.386 88.5646 122.627 88.103z" fill="#3F404D" fill-opacity="0.2"></path>
        <circle cx="133" cy="71" r="18.5" fill="#FFFFFF" stroke="oklch(0.575934 0.247012 287.24)" stroke-width="3px"></circle>
    </g>
    <defs>
        <linearGradient id="paint0_linear_8940_13858" x1=".116537e-4" y1="16.8506" x2="218" y2="16.9067" gradientUnits="userSpaceOnUse">
            <stop stop-color="#76717f" stop-opacity="0"></stop>
            <stop offset=".245" stop-color="#3f404d" stop-opacity=".5"></stop>
            <stop offset=".75" stop-color="#3f404d" stop-opacity=".5"></stop>
            <stop offset="1" stop-color="#76717f" stop-opacity="0"></stop>
        </linearGradient>
        <linearGradient id="paint1_linear_8940_13858" x1=".116537e-4" y1="124.5" x2="218" y2="124.556" gradientUnits="userSpaceOnUse">
            <stop stop-color="#76717f" stop-opacity="0"></stop>
            <stop offset=".245" stop-color="#3f404d" stop-opacity=".5"></stop>
            <stop offset=".75" stop-color="#3f404d" stop-opacity=".5"></stop>
            <stop offset="1" stop-color="#76717f" stop-opacity="0"></stop>
        </linearGradient>
        <linearGradient id="paint2_linear_8940_13858" x1="19.5" y1=".755933e-5" x2="19.4765" y2="141" gradientUnits="userSpaceOnUse">
            <stop stop-color="#76717f" stop-opacity="0"></stop>
            <stop offset=".245" stop-color="#3f404d" stop-opacity=".5"></stop>
            <stop offset=".75" stop-color="#3f404d" stop-opacity=".5"></stop>
            <stop offset="1" stop-color="#76717f" stop-opacity="0"></stop>
        </linearGradient>
        <linearGradient id="paint3_linear_8940_13858" x1="199.5" y1="-3.99999" x2="199.475" y2="141" gradientUnits="userSpaceOnUse">
            <stop stop-color="#76717f" stop-opacity="0"></stop>
            <stop offset=".245" stop-color="#3f404d" stop-opacity=".5"></stop>
            <stop offset=".75" stop-color="#3f404d" stop-opacity=".5"></stop>
            <stop offset="1" stop-color="#76717f" stop-opacity="0"></stop>
        </linearGradient>
        <clipPath id="clip0_8940_13858">
            <rect width="218" height="141" fill="#fff"></rect>
        </clipPath>
        <linearGradient id="paint0_linear_8940_13858" x1=".116537e-4" y1="16.8506" x2="218" y2="16.9067" gradientUnits="userSpaceOnUse">
            <stop stop-color="#76717f" stop-opacity="0"></stop>
            <stop offset=".245" stop-color="#3f404d" stop-opacity=".5"></stop>
            <stop offset=".75" stop-color="#3f404d" stop-opacity=".5"></stop>
            <stop offset="1" stop-color="#76717f" stop-opacity="0"></stop>
        </linearGradient>
        <linearGradient id="paint1_linear_8940_13858" x1=".116537e-4" y1="124.5" x2="218" y2="124.556" gradientUnits="userSpaceOnUse">
            <stop stop-color="#76717f" stop-opacity="0"></stop>
            <stop offset=".245" stop-color="#3f404d" stop-opacity=".5"></stop>
            <stop offset=".75" stop-color="#3f404d" stop-opacity=".5"></stop>
            <stop offset="1" stop-color="#76717f" stop-opacity="0"></stop>
        </linearGradient>
        <linearGradient id="paint2_linear_8940_13858" x1="19.5" y1=".755933e-5" x2="19.4765" y2="141" gradientUnits="userSpaceOnUse">
            <stop stop-color="#76717f" stop-opacity="0"></stop>
            <stop offset=".245" stop-color="#3f404d" stop-opacity=".5"></stop>
            <stop offset=".75" stop-color="#3f404d" stop-opacity=".5"></stop>
            <stop offset="1" stop-color="#76717f" stop-opacity="0"></stop>
        </linearGradient>
        <linearGradient id="paint3_linear_8940_13858" x1="199.5" y1="-3.99999" x2="199.475" y2="141" gradientUnits="userSpaceOnUse">
            <stop stop-color="#76717f" stop-opacity="0"></stop>
            <stop offset=".245" stop-color="#3f404d" stop-opacity=".5"></stop>
            <stop offset=".75" stop-color="#3f404d" stop-opacity=".5"></stop>
            <stop offset="1" stop-color="#76717f" stop-opacity="0"></stop>
        </linearGradient>
        <linearGradient id="paint0_linear_8940_13858" x1=".116537e-4" y1="16.8506" x2="218" y2="16.9067" gradientUnits="userSpaceOnUse">
            <stop stop-color="#76717f" stop-opacity="0"></stop>
            <stop offset=".245" stop-color="#3f404d" stop-opacity=".5"></stop>
            <stop offset=".75" stop-color="#3f404d" stop-opacity=".5"></stop>
            <stop offset="1" stop-color="#76717f" stop-opacity="0"></stop>
        </linearGradient>
        <linearGradient id="paint1_linear_8940_13858" x1=".116537e-4" y1="124.5" x2="218" y2="124.556" gradientUnits="userSpaceOnUse">
            <stop stop-color="#76717f" stop-opacity="0"></stop>
            <stop offset=".245" stop-color="#3f404d" stop-opacity=".5"></stop>
            <stop offset=".75" stop-color="#3f404d" stop-opacity=".5"></stop>
            <stop offset="1" stop-color="#76717f" stop-opacity="0"></stop>
        </linearGradient>
        <linearGradient id="paint2_linear_8940_13858" x1="19.5" y1=".755933e-5" x2="19.4765" y2="141" gradientUnits="userSpaceOnUse">
            <stop stop-color="#76717f" stop-opacity="0"></stop>
            <stop offset=".245" stop-color="#3f404d" stop-opacity=".5"></stop>
            <stop offset=".75" stop-color="#3f404d" stop-opacity=".5"></stop>
            <stop offset="1" stop-color="#76717f" stop-opacity="0"></stop>
        </linearGradient>
        <linearGradient id="paint3_linear_8940_13858" x1="199.5" y1="-3.99999" x2="199.475" y2="141" gradientUnits="userSpaceOnUse">
            <stop stop-color="#76717f" stop-opacity="0"></stop>
            <stop offset=".245" stop-color="#3f404d" stop-opacity=".5"></stop>
            <stop offset=".75" stop-color="#3f404d" stop-opacity=".5"></stop>
            <stop offset="1" stop-color="#76717f" stop-opacity="0"></stop>
        </linearGradient>
    </defs>
</svg>
