<svg xmlns:xlink="http://www.w3.org/1999/xlink" width="178" height="85" viewBox="0 0 178 85" fill="none" xmlns="http://www.w3.org/2000/svg"><g clip-path="url(#clip0_5357_51817)" fill="none"><path d="M178 18H.13113e-5" stroke="url(&quot;#paint0_linear_5357_51817&quot;)" stroke-opacity="0.4" fill="none"></path><path d="M178 66H.13113e-5" stroke="url(&quot;#paint1_linear_5357_51817&quot;)" stroke-opacity="0.4" fill="none"></path><path d="M20 85V.312924e-5" stroke="url(&quot;#paint2_linear_5357_51817&quot;)" stroke-opacity="0.4" fill="none"></path><path d="M158 85V.312924e-5" stroke="url(&quot;#paint3_linear_5357_51817&quot;)" stroke-opacity="0.4" fill="none"></path><path d="M64 42c0-13.807 11.193-25 25-25s25 11.193 25 25-11.193 25-25 25S64 55.807 64 42z" fill="oklch(0.575934 0.247012 287.24)" fill-opacity="0.1"></path><path d="M86.4834 49 85.5518 45.9414H80.8672L79.9355 49H77l4.5352-12.9023h3.331L89.4189 49H86.4834zM84.9014 43.6562C84.04 40.8848 83.5537 39.3174 83.4424 38.9541 83.3369 38.5908 83.2607 38.3037 83.2139 38.0928 83.0205 38.8428 82.4668 40.6973 81.5527 43.6562H84.9014zM101.381 49H98.2871L94.9209 43.5859 93.7695 44.4121V49H91.0449V36.1504h2.7246v5.8799L94.8418 40.5186 98.3223 36.1504H101.346L96.8633 41.8369 101.381 49z" fill="oklch(0.575934 0.247012 287.24)"></path><path d="M20 42c0-13.807 11.193-25 25-25S70 28.193 70 42 58.807 67 45 67C31.193 67 20 55.807 20 42z" fill="#76717F" fill-opacity="0.06"></path><circle cx="45" cy="36.5833" r="4.33333" stroke="#474857" stroke-opacity="0.5" stroke-width="1.5px" stroke-linecap="round" stroke-linejoin="round" fill="none"></circle><path d="M38.5 51.75V49.5833c0-2.3932 1.9401-4.3333 4.3333-4.3333h4.3334c2.3932.0 4.3333 1.9401 4.3333 4.3333V51.75" stroke="#474857" stroke-opacity="0.5" stroke-width="1.5px" stroke-linecap="round" stroke-linejoin="round" fill="none"></path><path d="M108 42c0-13.807 11.193-25 25-25 13.807.0 25 11.193 25 25s-11.193 25-25 25c-13.807.0-25-11.193-25-25z" fill="#76717F" fill-opacity="0.06"></path><path d="M133.28 42.5576C133.28 44.6846 132.753 46.3193 131.698 47.4619 130.644 48.6045 129.132 49.1758 127.163 49.1758 125.194 49.1758 123.683 48.6045 122.628 47.4619S121.046 44.6787 121.046 42.54C121.046 40.4014 121.573 38.7695 122.628 37.6445c1.06-1.1308 2.578-1.6963 4.553-1.6963C129.155 35.9482 130.664 36.5166 131.707 37.6533 132.756 38.79 133.28 40.4248 133.28 42.5576zm-9.378.0C123.902 43.9932 124.175 45.0742 124.72 45.8008 125.265 46.5273 126.079 46.8906 127.163 46.8906 129.337 46.8906 130.424 45.4463 130.424 42.5576 130.424 39.6631 129.343 38.2158 127.181 38.2158c-1.084.0-1.902.366199999999999-2.452 1.0987C124.178 40.041 123.902 41.1221 123.902 42.5576zM138.668 42.1973H139.564C140.402 42.1973 141.029 42.0332 141.445 41.7051 141.861 41.3711 142.069 40.8877 142.069 40.2549 142.069 39.6162 141.894 39.1445 141.542 38.8398 141.196 38.5352 140.651 38.3828 139.907 38.3828h-1.239v3.8145zM144.82 40.1582C144.82 41.541 144.387 42.5986 143.52 43.3311 142.658 44.0635 141.431 44.4297 139.837 44.4297H138.668V49H135.943V36.1504H140.048C141.606 36.1504 142.79 36.4873 143.599 37.1611 144.413 37.8291 144.82 38.8281 144.82 40.1582z" fill="#76717F" fill-opacity="0.3"></path><path d="M155 61C155 57.6863 152.314 55 149 55s-6 2.6863-6 6S145.686 67 149 67s6-2.6863 6-6z" fill="#FFFFFF"></path><path d="M149 65.4C151.43 65.4 153.4 63.4301 153.4 61 153.4 58.57 151.43 56.6 149 56.6S144.6 58.57 144.6 61C144.6 63.4301 146.57 65.4 149 65.4z" fill="oklch(0.575934 0.247012 287.24)"></path></g><defs><linearGradient id="paint0_linear_5357_51817" x1=".951539e-5" y1="17.5" x2="178" y2="17.5374" gradientUnits="userSpaceOnUse"><stop stop-color="#76717f" stop-opacity="0"></stop><stop offset=".245" stop-color="#3f404d" stop-opacity=".5"></stop><stop offset=".75" stop-color="#3f404d" stop-opacity=".5"></stop><stop offset="1" stop-color="#76717f" stop-opacity="0"></stop></linearGradient><linearGradient id="paint1_linear_5357_51817" x1=".951539e-5" y1="65.5" x2="178" y2="65.5374" gradientUnits="userSpaceOnUse"><stop stop-color="#76717f" stop-opacity="0"></stop><stop offset=".245" stop-color="#3f404d" stop-opacity=".5"></stop><stop offset=".75" stop-color="#3f404d" stop-opacity=".5"></stop><stop offset="1" stop-color="#76717f" stop-opacity="0"></stop></linearGradient><linearGradient id="paint2_linear_5357_51817" x1="20.5" y1=".453022e-5" x2="20.4915" y2="85" gradientUnits="userSpaceOnUse"><stop stop-color="#76717f" stop-opacity="0"></stop><stop offset=".245" stop-color="#3f404d" stop-opacity=".5"></stop><stop offset=".75" stop-color="#3f404d" stop-opacity=".5"></stop><stop offset="1" stop-color="#76717f" stop-opacity="0"></stop></linearGradient><linearGradient id="paint3_linear_5357_51817" x1="158.5" y1=".453022e-5" x2="158.491" y2="85" gradientUnits="userSpaceOnUse"><stop stop-color="#76717f" stop-opacity="0"></stop><stop offset=".245" stop-color="#3f404d" stop-opacity=".5"></stop><stop offset=".75" stop-color="#3f404d" stop-opacity=".5"></stop><stop offset="1" stop-color="#76717f" stop-opacity="0"></stop></linearGradient><clipPath id="clip0_5357_51817"><rect width="178" height="85" fill="#fff"></rect></clipPath><linearGradient id="paint0_linear_5357_51817" x1=".951539e-5" y1="17.5" x2="178" y2="17.5374" gradientUnits="userSpaceOnUse"><stop stop-color="#76717f" stop-opacity="0"></stop><stop offset=".245" stop-color="#3f404d" stop-opacity=".5"></stop><stop offset=".75" stop-color="#3f404d" stop-opacity=".5"></stop><stop offset="1" stop-color="#76717f" stop-opacity="0"></stop></linearGradient><linearGradient id="paint1_linear_5357_51817" x1=".951539e-5" y1="65.5" x2="178" y2="65.5374" gradientUnits="userSpaceOnUse"><stop stop-color="#76717f" stop-opacity="0"></stop><stop offset=".245" stop-color="#3f404d" stop-opacity=".5"></stop><stop offset=".75" stop-color="#3f404d" stop-opacity=".5"></stop><stop offset="1" stop-color="#76717f" stop-opacity="0"></stop></linearGradient><linearGradient id="paint2_linear_5357_51817" x1="20.5" y1=".453022e-5" x2="20.4915" y2="85" gradientUnits="userSpaceOnUse"><stop stop-color="#76717f" stop-opacity="0"></stop><stop offset=".245" stop-color="#3f404d" stop-opacity=".5"></stop><stop offset=".75" stop-color="#3f404d" stop-opacity=".5"></stop><stop offset="1" stop-color="#76717f" stop-opacity="0"></stop></linearGradient><linearGradient id="paint3_linear_5357_51817" x1="158.5" y1=".453022e-5" x2="158.491" y2="85" gradientUnits="userSpaceOnUse"><stop stop-color="#76717f" stop-opacity="0"></stop><stop offset=".245" stop-color="#3f404d" stop-opacity=".5"></stop><stop offset=".75" stop-color="#3f404d" stop-opacity=".5"></stop><stop offset="1" stop-color="#76717f" stop-opacity="0"></stop></linearGradient><linearGradient id="paint0_linear_5357_51817" x1=".951539e-5" y1="17.5" x2="178" y2="17.5374" gradientUnits="userSpaceOnUse"><stop stop-color="#76717f" stop-opacity="0"></stop><stop offset=".245" stop-color="#3f404d" stop-opacity=".5"></stop><stop offset=".75" stop-color="#3f404d" stop-opacity=".5"></stop><stop offset="1" stop-color="#76717f" stop-opacity="0"></stop></linearGradient><linearGradient id="paint1_linear_5357_51817" x1=".951539e-5" y1="65.5" x2="178" y2="65.5374" gradientUnits="userSpaceOnUse"><stop stop-color="#76717f" stop-opacity="0"></stop><stop offset=".245" stop-color="#3f404d" stop-opacity=".5"></stop><stop offset=".75" stop-color="#3f404d" stop-opacity=".5"></stop><stop offset="1" stop-color="#76717f" stop-opacity="0"></stop></linearGradient><linearGradient id="paint2_linear_5357_51817" x1="20.5" y1=".453022e-5" x2="20.4915" y2="85" gradientUnits="userSpaceOnUse"><stop stop-color="#76717f" stop-opacity="0"></stop><stop offset=".245" stop-color="#3f404d" stop-opacity=".5"></stop><stop offset=".75" stop-color="#3f404d" stop-opacity=".5"></stop><stop offset="1" stop-color="#76717f" stop-opacity="0"></stop></linearGradient><linearGradient id="paint3_linear_5357_51817" x1="158.5" y1=".453022e-5" x2="158.491" y2="85" gradientUnits="userSpaceOnUse"><stop stop-color="#76717f" stop-opacity="0"></stop><stop offset=".245" stop-color="#3f404d" stop-opacity=".5"></stop><stop offset=".75" stop-color="#3f404d" stop-opacity=".5"></stop><stop offset="1" stop-color="#76717f" stop-opacity="0"></stop></linearGradient><linearGradient id="paint0_linear_5357_51817" x1=".951539e-5" y1="17.5" x2="178" y2="17.5374" gradientUnits="userSpaceOnUse"><stop stop-color="#76717f" stop-opacity="0"></stop><stop offset=".245" stop-color="#3f404d" stop-opacity=".5"></stop><stop offset=".75" stop-color="#3f404d" stop-opacity=".5"></stop><stop offset="1" stop-color="#76717f" stop-opacity="0"></stop></linearGradient><linearGradient id="paint1_linear_5357_51817" x1=".951539e-5" y1="65.5" x2="178" y2="65.5374" gradientUnits="userSpaceOnUse"><stop stop-color="#76717f" stop-opacity="0"></stop><stop offset=".245" stop-color="#3f404d" stop-opacity=".5"></stop><stop offset=".75" stop-color="#3f404d" stop-opacity=".5"></stop><stop offset="1" stop-color="#76717f" stop-opacity="0"></stop></linearGradient><linearGradient id="paint2_linear_5357_51817" x1="20.5" y1=".453022e-5" x2="20.4915" y2="85" gradientUnits="userSpaceOnUse"><stop stop-color="#76717f" stop-opacity="0"></stop><stop offset=".245" stop-color="#3f404d" stop-opacity=".5"></stop><stop offset=".75" stop-color="#3f404d" stop-opacity=".5"></stop><stop offset="1" stop-color="#76717f" stop-opacity="0"></stop></linearGradient><linearGradient id="paint3_linear_5357_51817" x1="158.5" y1=".453022e-5" x2="158.491" y2="85" gradientUnits="userSpaceOnUse"><stop stop-color="#76717f" stop-opacity="0"></stop><stop offset=".245" stop-color="#3f404d" stop-opacity=".5"></stop><stop offset=".75" stop-color="#3f404d" stop-opacity=".5"></stop><stop offset="1" stop-color="#76717f" stop-opacity="0"></stop></linearGradient></defs></svg>