<svg xmlns:xlink="http://www.w3.org/1999/xlink" width="320" height="214" viewBox="0 0 320 214" fill="none" xmlns="http://www.w3.org/2000/svg"><g clip-path="url(#clip0_8940_13774)" fill="none"><path d="M32.5664 205.386V-.13113e-5" stroke="url(&quot;#paint0_linear_8940_13774&quot;)" stroke-opacity="0.4" fill="none"></path><path d="M287.434 214V.578165e-5" stroke="url(&quot;#paint1_linear_8940_13774&quot;)" stroke-opacity="0.4" fill="none"></path><path d="M116.704 189V49" stroke="#3F404D" stroke-opacity="0.2" fill="none"></path><path d="M203.845 189V49" stroke="#3F404D" stroke-opacity="0.2" fill="none"></path><path d="M320 21H15974e-9" stroke="url(&quot;#paint2_linear_8940_13774&quot;)" stroke-opacity="0.4" fill="none"></path><path d="M320 189H15974e-9" stroke="url(&quot;#paint3_linear_8940_13774&quot;)" stroke-opacity="0.4" fill="none"></path><rect x="32.5664" y="21" width="254.867" height="168" rx="8" fill="#76717F" fill-opacity="0.06"></rect><mask id="path-8-inside-1_8940_13774" fill="#FFFFFF"><path d="M33 49H287V77H33V49z" fill="#FFFFFF"></path></mask><path d="M33 50H287V48H33v2z" fill="#3F404D" fill-opacity="0.2" mask="url(#path-8-inside-1_8940_13774)"></path><mask id="path-10-inside-2_8940_13774" fill="#FFFFFF"><path d="M33 77H287v28H33V77z" fill="#FFFFFF"></path></mask><path d="M33 78H287V76H33v2z" fill="#3F404D" fill-opacity="0.2" mask="url(#path-10-inside-2_8940_13774)"></path><mask id="path-12-inside-3_8940_13774" fill="#FFFFFF"><path d="M33 105H287v28H33V105z" fill="#FFFFFF"></path></mask><path d="M33 106H287v-2H33v2z" fill="#3F404D" fill-opacity="0.2" mask="url(#path-12-inside-3_8940_13774)"></path><mask id="path-14-inside-4_8940_13774" fill="#FFFFFF"><path d="M33 133H287v28H33V133z" fill="#FFFFFF"></path></mask><path d="M33 134H287v-2H33v2z" fill="#3F404D" fill-opacity="0.2" mask="url(#path-14-inside-4_8940_13774)"></path><mask id="path-16-inside-5_8940_13774" fill="#FFFFFF"><path d="M33 161H287v28H33V161z" fill="#FFFFFF"></path></mask><path d="M33 162H287v-2H33v2z" fill="#3F404D" fill-opacity="0.2" mask="url(#path-16-inside-5_8940_13774)"></path><rect x="54" y="61" width="40" height="6" rx="3" fill="oklch(0.575934 0.247012 287.24)"></rect><rect x="140" y="61" width="40" height="6" rx="3" fill="oklch(0.575934 0.247012 287.24)"></rect><rect x="226" y="61" width="40" height="6" rx="3" fill="oklch(0.575934 0.247012 287.24)"></rect><rect x="54" y="88" width="40" height="6" rx="3" fill="#474857" fill-opacity="0.2"></rect><rect x="140" y="88" width="40" height="6" rx="3" fill="#474857" fill-opacity="0.2"></rect><rect x="226" y="88" width="40" height="6" rx="3" fill="#474857" fill-opacity="0.2"></rect><rect x="54" y="117" width="40" height="6" rx="3" fill="#474857" fill-opacity="0.2"></rect><rect x="140" y="117" width="40" height="6" rx="3" fill="#474857" fill-opacity="0.2"></rect><rect x="226" y="117" width="40" height="6" rx="3" fill="#474857" fill-opacity="0.2"></rect><rect x="54" y="144" width="40" height="6" rx="3" fill="#474857" fill-opacity="0.2"></rect><rect x="140" y="144" width="40" height="6" rx="3" fill="#474857" fill-opacity="0.2"></rect><rect x="226" y="144" width="40" height="6" rx="3" fill="#474857" fill-opacity="0.2"></rect><rect x="54" y="172" width="40" height="6" rx="3" fill="#474857" fill-opacity="0.2"></rect><rect x="140" y="172" width="40" height="6" rx="3" fill="#474857" fill-opacity="0.2"></rect><rect x="226" y="172" width="40" height="6" rx="3" fill="#474857" fill-opacity="0.2"></rect></g><defs><linearGradient id="paint0_linear_8940_13774" x1="33.0664" y1=".110012e-4" x2="33.0166" y2="205.386" gradientUnits="userSpaceOnUse"><stop stop-color="#76717f" stop-opacity="0"></stop><stop offset=".245" stop-color="#3f404d" stop-opacity=".5"></stop><stop offset=".75" stop-color="#3f404d" stop-opacity=".5"></stop><stop offset="1" stop-color="#76717f" stop-opacity="0"></stop></linearGradient><linearGradient id="paint1_linear_8940_13774" x1="287.934" y1=".114617e-4" x2="287.88" y2="214" gradientUnits="userSpaceOnUse"><stop stop-color="#76717f" stop-opacity="0"></stop><stop offset=".245" stop-color="#3f404d" stop-opacity=".5"></stop><stop offset=".75" stop-color="#3f404d" stop-opacity=".5"></stop><stop offset="1" stop-color="#76717f" stop-opacity="0"></stop></linearGradient><linearGradient id="paint2_linear_8940_13774" x1=".171063e-4" y1="20.5" x2="320" y2="20.6208" gradientUnits="userSpaceOnUse"><stop stop-color="#76717f" stop-opacity="0"></stop><stop offset=".245" stop-color="#3f404d" stop-opacity=".5"></stop><stop offset=".75" stop-color="#3f404d" stop-opacity=".5"></stop><stop offset="1" stop-color="#76717f" stop-opacity="0"></stop></linearGradient><linearGradient id="paint3_linear_8940_13774" x1=".171063e-4" y1="188.5" x2="320" y2="188.621" gradientUnits="userSpaceOnUse"><stop stop-color="#76717f" stop-opacity="0"></stop><stop offset=".245" stop-color="#3f404d" stop-opacity=".5"></stop><stop offset=".75" stop-color="#3f404d" stop-opacity=".5"></stop><stop offset="1" stop-color="#76717f" stop-opacity="0"></stop></linearGradient><clipPath id="clip0_8940_13774"><rect width="320" height="214" fill="#fff"></rect></clipPath><linearGradient id="paint0_linear_8940_13774" x1="33.0664" y1=".110012e-4" x2="33.0166" y2="205.386" gradientUnits="userSpaceOnUse"><stop stop-color="#76717f" stop-opacity="0"></stop><stop offset=".245" stop-color="#3f404d" stop-opacity=".5"></stop><stop offset=".75" stop-color="#3f404d" stop-opacity=".5"></stop><stop offset="1" stop-color="#76717f" stop-opacity="0"></stop></linearGradient><linearGradient id="paint1_linear_8940_13774" x1="287.934" y1=".114617e-4" x2="287.88" y2="214" gradientUnits="userSpaceOnUse"><stop stop-color="#76717f" stop-opacity="0"></stop><stop offset=".245" stop-color="#3f404d" stop-opacity=".5"></stop><stop offset=".75" stop-color="#3f404d" stop-opacity=".5"></stop><stop offset="1" stop-color="#76717f" stop-opacity="0"></stop></linearGradient><linearGradient id="paint2_linear_8940_13774" x1=".171063e-4" y1="20.5" x2="320" y2="20.6208" gradientUnits="userSpaceOnUse"><stop stop-color="#76717f" stop-opacity="0"></stop><stop offset=".245" stop-color="#3f404d" stop-opacity=".5"></stop><stop offset=".75" stop-color="#3f404d" stop-opacity=".5"></stop><stop offset="1" stop-color="#76717f" stop-opacity="0"></stop></linearGradient><linearGradient id="paint3_linear_8940_13774" x1=".171063e-4" y1="188.5" x2="320" y2="188.621" gradientUnits="userSpaceOnUse"><stop stop-color="#76717f" stop-opacity="0"></stop><stop offset=".245" stop-color="#3f404d" stop-opacity=".5"></stop><stop offset=".75" stop-color="#3f404d" stop-opacity=".5"></stop><stop offset="1" stop-color="#76717f" stop-opacity="0"></stop></linearGradient><linearGradient id="paint0_linear_8940_13774" x1="33.0664" y1=".110012e-4" x2="33.0166" y2="205.386" gradientUnits="userSpaceOnUse"><stop stop-color="#76717f" stop-opacity="0"></stop><stop offset=".245" stop-color="#3f404d" stop-opacity=".5"></stop><stop offset=".75" stop-color="#3f404d" stop-opacity=".5"></stop><stop offset="1" stop-color="#76717f" stop-opacity="0"></stop></linearGradient><linearGradient id="paint1_linear_8940_13774" x1="287.934" y1=".114617e-4" x2="287.88" y2="214" gradientUnits="userSpaceOnUse"><stop stop-color="#76717f" stop-opacity="0"></stop><stop offset=".245" stop-color="#3f404d" stop-opacity=".5"></stop><stop offset=".75" stop-color="#3f404d" stop-opacity=".5"></stop><stop offset="1" stop-color="#76717f" stop-opacity="0"></stop></linearGradient><linearGradient id="paint2_linear_8940_13774" x1=".171063e-4" y1="20.5" x2="320" y2="20.6208" gradientUnits="userSpaceOnUse"><stop stop-color="#76717f" stop-opacity="0"></stop><stop offset=".245" stop-color="#3f404d" stop-opacity=".5"></stop><stop offset=".75" stop-color="#3f404d" stop-opacity=".5"></stop><stop offset="1" stop-color="#76717f" stop-opacity="0"></stop></linearGradient><linearGradient id="paint3_linear_8940_13774" x1=".171063e-4" y1="188.5" x2="320" y2="188.621" gradientUnits="userSpaceOnUse"><stop stop-color="#76717f" stop-opacity="0"></stop><stop offset=".245" stop-color="#3f404d" stop-opacity=".5"></stop><stop offset=".75" stop-color="#3f404d" stop-opacity=".5"></stop><stop offset="1" stop-color="#76717f" stop-opacity="0"></stop></linearGradient><linearGradient id="paint0_linear_8940_13774" x1="33.0664" y1=".110012e-4" x2="33.0166" y2="205.386" gradientUnits="userSpaceOnUse"><stop stop-color="#76717f" stop-opacity="0"></stop><stop offset=".245" stop-color="#3f404d" stop-opacity=".5"></stop><stop offset=".75" stop-color="#3f404d" stop-opacity=".5"></stop><stop offset="1" stop-color="#76717f" stop-opacity="0"></stop></linearGradient><linearGradient id="paint1_linear_8940_13774" x1="287.934" y1=".114617e-4" x2="287.88" y2="214" gradientUnits="userSpaceOnUse"><stop stop-color="#76717f" stop-opacity="0"></stop><stop offset=".245" stop-color="#3f404d" stop-opacity=".5"></stop><stop offset=".75" stop-color="#3f404d" stop-opacity=".5"></stop><stop offset="1" stop-color="#76717f" stop-opacity="0"></stop></linearGradient><linearGradient id="paint2_linear_8940_13774" x1=".171063e-4" y1="20.5" x2="320" y2="20.6208" gradientUnits="userSpaceOnUse"><stop stop-color="#76717f" stop-opacity="0"></stop><stop offset=".245" stop-color="#3f404d" stop-opacity=".5"></stop><stop offset=".75" stop-color="#3f404d" stop-opacity=".5"></stop><stop offset="1" stop-color="#76717f" stop-opacity="0"></stop></linearGradient><linearGradient id="paint3_linear_8940_13774" x1=".171063e-4" y1="188.5" x2="320" y2="188.621" gradientUnits="userSpaceOnUse"><stop stop-color="#76717f" stop-opacity="0"></stop><stop offset=".245" stop-color="#3f404d" stop-opacity=".5"></stop><stop offset=".75" stop-color="#3f404d" stop-opacity=".5"></stop><stop offset="1" stop-color="#76717f" stop-opacity="0"></stop></linearGradient></defs></svg>