<svg xmlns:xlink="http://www.w3.org/1999/xlink" width="307" height="146" viewBox="0 0 307 146" fill="none" xmlns="http://www.w3.org/2000/svg"><g clip-path="url(#clip0_5515_5790)" fill="none"><path d="M20 146V.327826e-5" stroke="url(&quot;#paint0_linear_5515_5790&quot;)" stroke-opacity="0.4" fill="none"></path><path d="M284 146V.327826e-5" stroke="url(&quot;#paint1_linear_5515_5790&quot;)" stroke-opacity="0.4" fill="none"></path><path d="M307 19H.128746e-4" stroke="url(&quot;#paint2_linear_5515_5790&quot;)" stroke-opacity="0.4" fill="none"></path><path d="M307 127H.128746e-4" stroke="url(&quot;#paint3_linear_5515_5790&quot;)" stroke-opacity="0.4" fill="none"></path><rect x="20" y="19" width="264" height="108" rx="8" fill="#76717F" fill-opacity="0.06"></rect><rect x="117" y="36" width="57" height="9" rx="4.5" fill="oklch(0.575934 0.247012 287.24)"></rect><g clip-path="url(#clip1_5515_5790)" fill="none"><mask id="mask0_5515_5790" style="mask-type:luminance" maskUnits="userSpaceOnUse" x="39" y="36" width="22" height="22" fill="none"><path d="M55.5 36h-11c-3.0376.0-5.5 2.4624-5.5 5.5v11c0 3.0376 2.4624 5.5 5.5 5.5h11c3.0376.0 5.5-2.4624 5.5-5.5v-11c0-3.0376-2.4624-5.5-5.5-5.5z" fill="#FFFFFF"></path></mask><g mask="url(#mask0_5515_5790)" fill="none"><path d="M55.5 36h-11c-3.0376.0-5.5 2.4624-5.5 5.5v11c0 3.0376 2.4624 5.5 5.5 5.5h11c3.0376.0 5.5-2.4624 5.5-5.5v-11c0-3.0376-2.4624-5.5-5.5-5.5z" fill="oklch(0.575934 0.247012 287.24)"></path><path d="M55.5 36h-11c-3.0376.0-5.5 2.4624-5.5 5.5v11c0 3.0376 2.4624 5.5 5.5 5.5h11c3.0376.0 5.5-2.4624 5.5-5.5v-11c0-3.0376-2.4624-5.5-5.5-5.5z" fill="url(&quot;#paint4_linear_5515_5790&quot;)"></path><path fill-rule="evenodd" clip-rule="evenodd" d="M54.2082 49.9557l-3.472-4.2794C50.3295 45.175 49.5614 45.1847 49.1675 45.6961L46.0489 49.7444C45.8596 49.9902 45.5669 50.1342 45.2567 50.1342H44.58C43.7412 50.1342 43.2751 49.1635 43.7996 48.5089l5.3659-6.6972C49.5637 41.3147 50.3188 41.3116 50.7211 41.8052l5.6141 6.8887C56.8676 49.3472 56.4028 50.3257 55.56 50.3257H54.9847C54.6834 50.3257 54.3981 50.1898 54.2082 49.9557zM50.7068 49.3328l1.0783 1.2293c.567.6464.107999999999997 1.6595-.7517 1.6595H48.9845C48.149 52.2216 47.6819 51.2577 48.1996 50.6019L49.1701 49.3726C49.5574 48.8821 50.2947 48.863 50.7068 49.3328z" fill="url(&quot;#paint5_linear_5515_5790&quot;)"></path></g><path d="M55.5002 36.4581h-11c-2.7845.0-5.0417 2.2572-5.0417 5.0417v11c0 2.7844 2.2572 5.0416 5.0417 5.0416h11c2.7844.0 5.0416-2.2572 5.0416-5.0416v-11c0-2.7845-2.2572-5.0417-5.0416-5.0417z" stroke="url(&quot;#paint6_linear_5515_5790&quot;)" stroke-width="2px" fill="none"></path></g><rect x="206" y="36" width="57" height="9" rx="4.5" fill="oklch(0.575934 0.247012 287.24)"></rect><rect x="117" y="59" width="69" height="8" rx="4" fill="#474857" fill-opacity="0.2"></rect><rect x="39" y="68" width="53" height="42" rx="6" fill="#474857" fill-opacity="0.2"></rect><rect x="206" y="59" width="37" height="8" rx="4" fill="#474857" fill-opacity="0.2"></rect><rect x="117" y="80" width="33" height="9" rx="4.5" fill="#474857" fill-opacity="0.2"></rect><rect x="206" y="80" width="57" height="9" rx="4.5" fill="#474857" fill-opacity="0.2"></rect><rect x="117" y="101" width="61" height="9" rx="4.5" fill="#474857" fill-opacity="0.2"></rect><rect x="206" y="101" width="46" height="9" rx="4.5" fill="#474857" fill-opacity="0.2"></rect></g><defs><linearGradient id="paint0_linear_5515_5790" x1="20.5" y1=".782636e-5" x2="20.4749" y2="146" gradientUnits="userSpaceOnUse"><stop stop-color="#76717f" stop-opacity="0"></stop><stop offset=".245" stop-color="#3f404d" stop-opacity=".5"></stop><stop offset=".75" stop-color="#3f404d" stop-opacity=".5"></stop><stop offset="1" stop-color="#76717f" stop-opacity="0"></stop></linearGradient><linearGradient id="paint1_linear_5515_5790" x1="284.5" y1=".782636e-5" x2="284.475" y2="146" gradientUnits="userSpaceOnUse"><stop stop-color="#76717f" stop-opacity="0"></stop><stop offset=".245" stop-color="#3f404d" stop-opacity=".5"></stop><stop offset=".75" stop-color="#3f404d" stop-opacity=".5"></stop><stop offset="1" stop-color="#76717f" stop-opacity="0"></stop></linearGradient><linearGradient id="paint2_linear_5515_5790" x1=".164114e-4" y1="18.5" x2="307" y2="18.6112" gradientUnits="userSpaceOnUse"><stop stop-color="#76717f" stop-opacity="0"></stop><stop offset=".245" stop-color="#3f404d" stop-opacity=".5"></stop><stop offset=".75" stop-color="#3f404d" stop-opacity=".5"></stop><stop offset="1" stop-color="#76717f" stop-opacity="0"></stop></linearGradient><linearGradient id="paint3_linear_5515_5790" x1=".164114e-4" y1="126.5" x2="307" y2="126.611" gradientUnits="userSpaceOnUse"><stop stop-color="#76717f" stop-opacity="0"></stop><stop offset=".245" stop-color="#3f404d" stop-opacity=".5"></stop><stop offset=".75" stop-color="#3f404d" stop-opacity=".5"></stop><stop offset="1" stop-color="#76717f" stop-opacity="0"></stop></linearGradient><linearGradient id="paint4_linear_5515_5790" x1="58.9375" y1="37.375" x2="41.0625" y2="56.2813" gradientUnits="userSpaceOnUse"><stop stop-opacity="0"></stop><stop offset="1" stop-opacity=".38"></stop></linearGradient><linearGradient id="paint5_linear_5515_5790" x1="50.07" y1="41.437" x2="50.07" y2="52.2216" gradientUnits="userSpaceOnUse"><stop stop-color="#fff"></stop><stop offset="1" stop-color="#fff" stop-opacity=".6"></stop></linearGradient><linearGradient id="paint6_linear_5515_5790" x1="50.0002" y1="35.9998" x2="50.0002" y2="57.9998" gradientUnits="userSpaceOnUse"><stop stop-color="#fff" stop-opacity=".28"></stop><stop offset="1" stop-color="#fff" stop-opacity=".04"></stop></linearGradient><clipPath id="clip0_5515_5790"><rect width="307" height="146" fill="#fff"></rect></clipPath><clipPath id="clip1_5515_5790"><rect width="22" height="22" fill="#fff" transform="translate(39 36)"></rect></clipPath><linearGradient id="paint0_linear_5515_5790" x1="20.5" y1=".782636e-5" x2="20.4749" y2="146" gradientUnits="userSpaceOnUse"><stop stop-color="#76717f" stop-opacity="0"></stop><stop offset=".245" stop-color="#3f404d" stop-opacity=".5"></stop><stop offset=".75" stop-color="#3f404d" stop-opacity=".5"></stop><stop offset="1" stop-color="#76717f" stop-opacity="0"></stop></linearGradient><linearGradient id="paint1_linear_5515_5790" x1="284.5" y1=".782636e-5" x2="284.475" y2="146" gradientUnits="userSpaceOnUse"><stop stop-color="#76717f" stop-opacity="0"></stop><stop offset=".245" stop-color="#3f404d" stop-opacity=".5"></stop><stop offset=".75" stop-color="#3f404d" stop-opacity=".5"></stop><stop offset="1" stop-color="#76717f" stop-opacity="0"></stop></linearGradient><linearGradient id="paint2_linear_5515_5790" x1=".164114e-4" y1="18.5" x2="307" y2="18.6112" gradientUnits="userSpaceOnUse"><stop stop-color="#76717f" stop-opacity="0"></stop><stop offset=".245" stop-color="#3f404d" stop-opacity=".5"></stop><stop offset=".75" stop-color="#3f404d" stop-opacity=".5"></stop><stop offset="1" stop-color="#76717f" stop-opacity="0"></stop></linearGradient><linearGradient id="paint3_linear_5515_5790" x1=".164114e-4" y1="126.5" x2="307" y2="126.611" gradientUnits="userSpaceOnUse"><stop stop-color="#76717f" stop-opacity="0"></stop><stop offset=".245" stop-color="#3f404d" stop-opacity=".5"></stop><stop offset=".75" stop-color="#3f404d" stop-opacity=".5"></stop><stop offset="1" stop-color="#76717f" stop-opacity="0"></stop></linearGradient><linearGradient id="paint4_linear_5515_5790" x1="58.9375" y1="37.375" x2="41.0625" y2="56.2813" gradientUnits="userSpaceOnUse"><stop stop-opacity="0"></stop><stop offset="1" stop-opacity=".38"></stop></linearGradient><linearGradient id="paint5_linear_5515_5790" x1="50.07" y1="41.437" x2="50.07" y2="52.2216" gradientUnits="userSpaceOnUse"><stop stop-color="#fff"></stop><stop offset="1" stop-color="#fff" stop-opacity=".6"></stop></linearGradient><linearGradient id="paint6_linear_5515_5790" x1="50.0002" y1="35.9998" x2="50.0002" y2="57.9998" gradientUnits="userSpaceOnUse"><stop stop-color="#fff" stop-opacity=".28"></stop><stop offset="1" stop-color="#fff" stop-opacity=".04"></stop></linearGradient><linearGradient id="paint0_linear_5515_5790" x1="20.5" y1=".782636e-5" x2="20.4749" y2="146" gradientUnits="userSpaceOnUse"><stop stop-color="#76717f" stop-opacity="0"></stop><stop offset=".245" stop-color="#3f404d" stop-opacity=".5"></stop><stop offset=".75" stop-color="#3f404d" stop-opacity=".5"></stop><stop offset="1" stop-color="#76717f" stop-opacity="0"></stop></linearGradient><linearGradient id="paint1_linear_5515_5790" x1="284.5" y1=".782636e-5" x2="284.475" y2="146" gradientUnits="userSpaceOnUse"><stop stop-color="#76717f" stop-opacity="0"></stop><stop offset=".245" stop-color="#3f404d" stop-opacity=".5"></stop><stop offset=".75" stop-color="#3f404d" stop-opacity=".5"></stop><stop offset="1" stop-color="#76717f" stop-opacity="0"></stop></linearGradient><linearGradient id="paint2_linear_5515_5790" x1=".164114e-4" y1="18.5" x2="307" y2="18.6112" gradientUnits="userSpaceOnUse"><stop stop-color="#76717f" stop-opacity="0"></stop><stop offset=".245" stop-color="#3f404d" stop-opacity=".5"></stop><stop offset=".75" stop-color="#3f404d" stop-opacity=".5"></stop><stop offset="1" stop-color="#76717f" stop-opacity="0"></stop></linearGradient><linearGradient id="paint3_linear_5515_5790" x1=".164114e-4" y1="126.5" x2="307" y2="126.611" gradientUnits="userSpaceOnUse"><stop stop-color="#76717f" stop-opacity="0"></stop><stop offset=".245" stop-color="#3f404d" stop-opacity=".5"></stop><stop offset=".75" stop-color="#3f404d" stop-opacity=".5"></stop><stop offset="1" stop-color="#76717f" stop-opacity="0"></stop></linearGradient><linearGradient id="paint4_linear_5515_5790" x1="58.9375" y1="37.375" x2="41.0625" y2="56.2813" gradientUnits="userSpaceOnUse"><stop stop-opacity="0"></stop><stop offset="1" stop-opacity=".38"></stop></linearGradient><linearGradient id="paint5_linear_5515_5790" x1="50.07" y1="41.437" x2="50.07" y2="52.2216" gradientUnits="userSpaceOnUse"><stop stop-color="#fff"></stop><stop offset="1" stop-color="#fff" stop-opacity=".6"></stop></linearGradient><linearGradient id="paint6_linear_5515_5790" x1="50.0002" y1="35.9998" x2="50.0002" y2="57.9998" gradientUnits="userSpaceOnUse"><stop stop-color="#fff" stop-opacity=".28"></stop><stop offset="1" stop-color="#fff" stop-opacity=".04"></stop></linearGradient><linearGradient id="paint0_linear_5515_5790" x1="20.5" y1=".782636e-5" x2="20.4749" y2="146" gradientUnits="userSpaceOnUse"><stop stop-color="#76717f" stop-opacity="0"></stop><stop offset=".245" stop-color="#3f404d" stop-opacity=".5"></stop><stop offset=".75" stop-color="#3f404d" stop-opacity=".5"></stop><stop offset="1" stop-color="#76717f" stop-opacity="0"></stop></linearGradient><linearGradient id="paint1_linear_5515_5790" x1="284.5" y1=".782636e-5" x2="284.475" y2="146" gradientUnits="userSpaceOnUse"><stop stop-color="#76717f" stop-opacity="0"></stop><stop offset=".245" stop-color="#3f404d" stop-opacity=".5"></stop><stop offset=".75" stop-color="#3f404d" stop-opacity=".5"></stop><stop offset="1" stop-color="#76717f" stop-opacity="0"></stop></linearGradient><linearGradient id="paint2_linear_5515_5790" x1=".164114e-4" y1="18.5" x2="307" y2="18.6112" gradientUnits="userSpaceOnUse"><stop stop-color="#76717f" stop-opacity="0"></stop><stop offset=".245" stop-color="#3f404d" stop-opacity=".5"></stop><stop offset=".75" stop-color="#3f404d" stop-opacity=".5"></stop><stop offset="1" stop-color="#76717f" stop-opacity="0"></stop></linearGradient><linearGradient id="paint3_linear_5515_5790" x1=".164114e-4" y1="126.5" x2="307" y2="126.611" gradientUnits="userSpaceOnUse"><stop stop-color="#76717f" stop-opacity="0"></stop><stop offset=".245" stop-color="#3f404d" stop-opacity=".5"></stop><stop offset=".75" stop-color="#3f404d" stop-opacity=".5"></stop><stop offset="1" stop-color="#76717f" stop-opacity="0"></stop></linearGradient><linearGradient id="paint4_linear_5515_5790" x1="58.9375" y1="37.375" x2="41.0625" y2="56.2813" gradientUnits="userSpaceOnUse"><stop stop-opacity="0"></stop><stop offset="1" stop-opacity=".38"></stop></linearGradient><linearGradient id="paint5_linear_5515_5790" x1="50.07" y1="41.437" x2="50.07" y2="52.2216" gradientUnits="userSpaceOnUse"><stop stop-color="#fff"></stop><stop offset="1" stop-color="#fff" stop-opacity=".6"></stop></linearGradient><linearGradient id="paint6_linear_5515_5790" x1="50.0002" y1="35.9998" x2="50.0002" y2="57.9998" gradientUnits="userSpaceOnUse"><stop stop-color="#fff" stop-opacity=".28"></stop><stop offset="1" stop-color="#fff" stop-opacity=".04"></stop></linearGradient></defs></svg>