<svg xmlns:xlink="http://www.w3.org/1999/xlink" width="218" height="178" viewBox="0 0 218 178" fill="none" xmlns="http://www.w3.org/2000/svg"><g clip-path="url(#clip0_5593_557)" fill="none"><rect x="19" y="19" width="180" height="139" rx="4" fill="#76717F" fill-opacity="0.06"></rect><mask id="path-2-inside-1_5593_557" fill="#FFFFFF"><path d="M19 23c0-2.2091 1.7909-4 4-4H195c2.209.0 4 1.7909 4 4V44H19V23z" fill="#FFFFFF"></path></mask><path d="M19 23c0-2.2091 1.7909-4 4-4H195c2.209.0 4 1.7909 4 4V44H19V23z" fill="#76717F" fill-opacity="0.06"></path><path d="M19 19H199 19zM199 45H19V43H199v2zM19 44V19 44zM199 19V44 19z" fill="#3F404D" fill-opacity="0.1" mask="url(#path-2-inside-1_5593_557)"></path><mask id="path-4-inside-2_5593_557" fill="#FFFFFF"><path d="M19 44H64V82H19V44z" fill="#FFFFFF"></path></mask><path d="M64 81H19v2H64V81z" fill="#3F404D" fill-opacity="0.1" mask="url(#path-4-inside-2_5593_557)"></path><mask id="path-6-inside-3_5593_557" fill="#FFFFFF"><path d="M64 44h45V82H64V44z" fill="#FFFFFF"></path></mask><path d="M64 82H63v1h1V82zm45-1H64v2h45V81zM65 82V44H63V82h2z" fill="#3F404D" fill-opacity="0.1" mask="url(#path-6-inside-3_5593_557)"></path><mask id="path-8-inside-4_5593_557" fill="#FFFFFF"><path d="M19 82H64v38H19V82z" fill="#FFFFFF"></path></mask><path d="M64 119H19v2H64v-2z" fill="#3F404D" fill-opacity="0.1" mask="url(#path-8-inside-4_5593_557)"></path><mask id="path-10-inside-5_5593_557" fill="#FFFFFF"><path d="M19 120H65v38H19V120z" fill="#FFFFFF"></path></mask><path d="M64 120v38h2V120H64z" fill="#3F404D" fill-opacity="0.1" mask="url(#path-10-inside-5_5593_557)"></path><mask id="path-12-inside-6_5593_557" fill="#FFFFFF"><path d="M64 82h45v38H64V82z" fill="#FFFFFF"></path></mask><path d="M64 120H63v1h1v-1zm45-1H64v2h45v-2zm-44 1V82H63v38h2z" fill="#3F404D" fill-opacity="0.1" mask="url(#path-12-inside-6_5593_557)"></path><mask id="path-14-inside-7_5593_557" fill="#FFFFFF"><path d="M109 44h45V82H109V44z" fill="#FFFFFF"></path></mask><path d="M109 82h-1v1h1V82zm45-1H109v2h45V81zm-44 1V44h-2V82h2z" fill="#3F404D" fill-opacity="0.1" mask="url(#path-14-inside-7_5593_557)"></path><mask id="path-16-inside-8_5593_557" fill="#FFFFFF"><path d="M154 44h45V82H154V44z" fill="#FFFFFF"></path></mask><path d="M154 82h-1v1h1V82zm45-1H154v2h45V81zm-44 1V44h-2V82h2z" fill="#3F404D" fill-opacity="0.1" mask="url(#path-16-inside-8_5593_557)"></path><mask id="path-18-inside-9_5593_557" fill="#FFFFFF"><path d="M109 82h45v38H109V82z" fill="#FFFFFF"></path></mask><path d="M109 82h45v38H109V82z" fill="#76717F" fill-opacity="0.06"></path><path d="M109 120h-1v1h1v-1zm45-1H109v2h45v-2zm-44 1V82h-2v38h2z" fill="#3F404D" fill-opacity="0.1" mask="url(#path-18-inside-9_5593_557)"></path><mask id="path-20-inside-10_5593_557" fill="#FFFFFF"><path d="M154 82h45v38H154V82z" fill="#FFFFFF"></path></mask><path d="M154 120h-1v1h1v-1zm45-1H154v2h45v-2zm-44 1V82h-2v38h2z" fill="#3F404D" fill-opacity="0.1" mask="url(#path-20-inside-10_5593_557)"></path><path d="M218 19H-.560284e-5" stroke="url(&quot;#paint0_linear_5593_557&quot;)" stroke-opacity="0.4" fill="none"></path><path d="M19 178V.13113e-5" stroke="url(&quot;#paint1_linear_5593_557&quot;)" stroke-opacity="0.4" fill="none"></path><path d="M199 178V.13113e-5" stroke="url(&quot;#paint2_linear_5593_557&quot;)" stroke-opacity="0.4" fill="none"></path><path d="M218 158H-.560284e-5" stroke="url(&quot;#paint3_linear_5593_557&quot;)" stroke-opacity="0.4" fill="none"></path><path d="M29.142 58V51.316H27.534V50.446C28.042 50.446 28.444 50.404 28.74 50.32 29.04 50.232 29.258 50.104 29.394 49.936 29.534 49.768 29.614 49.564 29.634 49.324H30.63V58H29.142z" fill="#3F404D" fill-opacity="0.5"></path><path d="M72.708 58V57.22 56.818C72.708 56.374 72.79 55.992 72.954 55.672 73.118 55.348 73.336 55.066 73.608 54.826 73.88 54.586 74.178 54.374 74.502 54.19 74.83 54.002 75.154 53.826 75.474 53.662 75.798 53.494 76.096 53.322 76.368 53.146 76.64 52.966 76.858 52.766 77.022 52.546 77.19 52.326 77.274 52.064 77.274 51.76 77.274 51.372 77.136 51.056 76.86 50.812 76.588 50.564 76.218 50.44 75.75 50.44 75.254 50.44 74.844 50.582 74.52 50.866 74.2 51.15 74.01 51.55 73.95 52.066H72.534C72.542 51.538 72.668 51.058 72.912 50.626 73.156 50.194 73.518 49.85 73.998 49.594 74.478 49.334 75.076 49.204 75.792 49.204 76.412 49.204 76.946 49.312 77.394 49.528 77.846 49.74 78.194 50.038 78.438 50.422 78.686 50.802 78.81 51.246 78.81 51.754 78.81 52.198 78.728 52.578 78.564 52.894 78.404 53.21 78.19 53.484 77.922 53.716 77.658 53.944 77.366 54.146 77.046 54.322 76.73 54.498 76.412 54.664 76.092 54.82 75.776 54.972 75.484 55.132 75.216 55.3 74.952 55.464 74.738 55.652 74.574 55.864 74.414 56.076 74.334 56.33 74.334 56.626V56.752h4.494V58h-6.12z" fill="#3F404D" fill-opacity="0.5"></path><path d="M117.63 51.928C117.63 51.336 117.772 50.838 118.056 50.434 118.34 50.026 118.72 49.72 119.196 49.516 119.676 49.308 120.208 49.204 120.792 49.204 121.42 49.204 121.976 49.29 122.46 49.462 122.948 49.63 123.33 49.884 123.606 50.224 123.886 50.564 124.026 50.986 124.026 51.49 124.026 51.918 123.896 52.3 123.636 52.636 123.376 52.972 122.966 53.236 122.406 53.428 122.754 53.524 123.066 53.668 123.342 53.86 123.618 54.048 123.836 54.284 123.996 54.568 124.16 54.852 124.242 55.186 124.242 55.57 124.242 55.982 124.152 56.348 123.972 56.668 123.796 56.988 123.548 57.258 123.228 57.478 122.912 57.694 122.542 57.858 122.118 57.97 121.694 58.078 121.238 58.132 120.75 58.132 120.098 58.128 119.536 58.016 119.064 57.796 118.592 57.576 118.224 57.262 117.96 56.854 117.7 56.446 117.564 55.962 117.552 55.402h1.422C119.058 55.918 119.262 56.302 119.586 56.554 119.914 56.802 120.312 56.926 120.78 56.926 121.168 56.926 121.504 56.868 121.788 56.752 122.072 56.632 122.29 56.468 122.442 56.26 122.598 56.052 122.676 55.81 122.676 55.534 122.676 55.242 122.592 54.992 122.424 54.784 122.26 54.576 122.034 54.416 121.746 54.304 121.458 54.192 121.134 54.132 120.774 54.124L119.97 54.1V52.912L120.714 52.882C121.058 52.87 121.36 52.804 121.62 52.684 121.884 52.564 122.09 52.406 122.238 52.21S122.46 51.794 122.46 51.55C122.46 51.326 122.39 51.124 122.25 50.944 122.114 50.764 121.92 50.624 121.668 50.524 121.416 50.42 121.118 50.368 120.774 50.368 120.482 50.368 120.208 50.42 119.952 50.524S119.484 50.796 119.316 51.028C119.152 51.256 119.062 51.556 119.046 51.928H117.63z" fill="#3F404D" fill-opacity="0.5"></path><path d="M73.408 36l3.12-8.676H78.106L81.22 36H79.756L78.982 33.822H75.67L74.878 36h-1.47zm2.598-3.474h2.616L77.32 28.746 76.006 32.526zM84.6041 36.12C84.3001 36.12 84.0061 36.076 83.7221 35.988 83.4421 35.896 83.1901 35.764 82.9661 35.592 82.7421 35.416 82.5641 35.2 82.4321 34.944 82.3001 34.688 82.2341 34.39 82.2341 34.05V29.796h1.464v4.086C83.6981 34.218 83.8041 34.494 84.0161 34.71 84.2321 34.926 84.5561 35.034 84.9881 35.034 85.3801 35.034 85.6941 34.932 85.9301 34.728 86.1661 34.52 86.2841 34.222 86.2841 33.834V29.796h1.452V36h-1.122L86.4521 34.788C86.3761 35.128 86.2421 35.396 86.0501 35.592 85.8621 35.784 85.6401 35.92 85.3841 36 85.1321 36.08 84.8721 36.12 84.6041 36.12zm7.4115 1.932C90.9716 38.052 90.1696 37.912 89.6096 37.632S88.7696 36.968 88.7696 36.48C88.7696 36.26 88.8236 36.076 88.9316 35.928 89.0396 35.78 89.1676 35.658 89.3156 35.562 89.4636 35.466 89.5996 35.392 89.7236 35.34 89.8476 35.288 89.9276 35.25 89.9636 35.226 89.8956 35.186 89.8056 35.134 89.6936 35.07 89.5816 35.006 89.4796 34.918 89.3876 34.806 89.2996 34.694 89.2556 34.548 89.2556 34.368 89.2556 34.16 89.3536 33.968 89.5496 33.792 89.7496 33.616 90.0476 33.49 90.4436 33.414 90.0556 33.226 89.7576 32.972 89.5496 32.652S89.2376 32 89.2376 31.656C89.2376 31.248 89.3556 30.898 89.5916 30.606 89.8316 30.314 90.1636 30.09 90.5876 29.934 91.0156 29.778 91.5096 29.7 92.0696 29.7 92.4856 29.7 92.8296 29.746 93.1016 29.838 93.3736 29.93 93.6276 30.054 93.8636 30.21 93.9436 30.178 94.0556 30.134 94.1996 30.078 94.3476 30.018 94.5076 29.954 94.6796 29.886 94.8516 29.814 95.0156 29.746 95.1716 29.682 95.3316 29.614 95.4676 29.558 95.5796 29.514L95.5676 30.72l-1.074.192C94.5456 31.028 94.5856 31.154 94.6136 31.29 94.6456 31.426 94.6616 31.546 94.6616 31.65 94.6616 32.01 94.5596 32.344 94.3556 32.652 94.1556 32.956 93.8536 33.2 93.4496 33.384 93.0496 33.568 92.5496 33.66 91.9496 33.66 91.8896 33.66 91.8076 33.658 91.7036 33.654 91.5996 33.65 91.5156 33.646 91.4516 33.642 91.1276 33.654 90.9056 33.692 90.7856 33.756S90.6056 33.89 90.6056 33.966C90.6056 34.074 90.6956 34.146 90.8756 34.182 91.0556 34.218 91.3436 34.25 91.7396 34.278 91.8796 34.286 92.0636 34.296 92.2916 34.308 92.5196 34.32 92.7736 34.336 93.0536 34.356 93.7616 34.4 94.2976 34.578 94.6616 34.89 95.0256 35.198 95.2076 35.598 95.2076 36.09 95.2076 36.662 94.9436 37.132 94.4156 37.5 93.8876 37.868 93.0876 38.052 92.0156 38.052zM92.2616 37.194C92.7856 37.194 93.1736 37.122 93.4256 36.978 93.6776 36.834 93.8036 36.622 93.8036 36.342 93.8036 36.126 93.7176 35.95 93.5456 35.814 93.3736 35.678 93.1176 35.598 92.7776 35.574L91.2116 35.478C91.0396 35.466 90.8756 35.498 90.7196 35.574 90.5676 35.646 90.4436 35.748 90.3476 35.88 90.2516 36.008 90.2036 36.15 90.2036 36.306 90.2036 36.598 90.3716 36.818 90.7076 36.966 91.0436 37.118 91.5616 37.194 92.2616 37.194zM91.9976 32.802C92.3776 32.802 92.6856 32.706 92.9216 32.514 93.1576 32.318 93.2756 32.042 93.2756 31.686 93.2756 31.318 93.1576 31.032 92.9216 30.828 92.6856 30.62 92.3776 30.516 91.9976 30.516 91.6096 30.516 91.2956 30.62 91.0556 30.828 90.8196 31.036 90.7016 31.322 90.7016 31.686 90.7016 32.03 90.8156 32.302 91.0436 32.502 91.2716 32.702 91.5896 32.802 91.9976 32.802zm6.8917 3.318C98.5853 36.12 98.2913 36.076 98.0073 35.988 97.7273 35.896 97.4753 35.764 97.2513 35.592 97.0273 35.416 96.8493 35.2 96.7173 34.944 96.5853 34.688 96.5193 34.39 96.5193 34.05V29.796h1.464v4.086C97.9833 34.218 98.0893 34.494 98.3013 34.71 98.5173 34.926 98.8413 35.034 99.2733 35.034 99.6653 35.034 99.9793 34.932 100.215 34.728 100.451 34.52 100.569 34.222 100.569 33.834V29.796h1.452V36h-1.122L100.737 34.788C100.661 35.128 100.527 35.396 100.335 35.592 100.147 35.784 99.9253 35.92 99.6693 36 99.4173 36.08 99.1573 36.12 98.8893 36.12zM105.916 36.12C105.484 36.12 105.074 36.052 104.686 35.916 104.302 35.776 103.978 35.558 103.714 35.262 103.454 34.966 103.29 34.584 103.222 34.116H104.506C104.562 34.344 104.66 34.53 104.8 34.674 104.944 34.818 105.114 34.924 105.31 34.992 105.506 35.056 105.706 35.088 105.91 35.088 106.282 35.088 106.582 35.024 106.81 34.896 107.042 34.768 107.158 34.57 107.158 34.302 107.158 34.106 107.094 33.95 106.966 33.834S106.634 33.63 106.354 33.57L105.172 33.3C104.648 33.184 104.226 32.992 103.906 32.724 103.59 32.456 103.43 32.078 103.426 31.59 103.422 31.222 103.514 30.894 103.702 30.606 103.89 30.318 104.17 30.092 104.542 29.928 104.914 29.76 105.374 29.676 105.922 29.676 106.646 29.676 107.226 29.838 107.662 30.162 108.098 30.482 108.322 30.94 108.334 31.536h-1.242C107.048 31.268 106.922 31.06 106.714 30.912 106.506 30.76 106.236 30.684 105.904 30.684 105.56 30.684 105.278 30.75 105.058 30.882 104.838 31.014 104.728 31.216 104.728 31.488 104.728 31.676 104.812 31.824 104.98 31.932 105.148 32.04 105.4 32.132 105.736 32.208L106.852 32.478C107.172 32.558 107.434 32.666 107.638 32.802 107.842 32.938 108.002 33.088 108.118 33.252 108.234 33.412 108.314 33.578 108.358 33.75 108.406 33.918 108.43 34.074 108.43 34.218 108.43 34.618 108.326 34.96 108.118 35.244 107.914 35.524 107.624 35.74 107.248 35.892 106.872 36.044 106.428 36.12 105.916 36.12zm7.276-5.292h-1.386L111.812 34.386C111.812 34.57 111.832 34.706 111.872 34.794 111.916 34.878 111.984 34.934 112.076 34.962 112.172 34.986 112.3 34.998 112.46 34.998H113.222v.924C113.142 35.954 113.02 35.982 112.856 36.006 112.696 36.034 112.48 36.048 112.208 36.048 111.716 36.048 111.334 35.984 111.062 35.856 110.794 35.724 110.608 35.538 110.504 35.298 110.4 35.058 110.348 34.772 110.348 34.44V30.828H109.34V29.796h1.05l.366-1.842h1.05V29.79h1.386v1.038zM117.149 36V35.22 34.818C117.149 34.374 117.231 33.992 117.395 33.672 117.559 33.348 117.777 33.066 118.049 32.826 118.321 32.586 118.619 32.374 118.943 32.19 119.271 32.002 119.595 31.826 119.915 31.662 120.239 31.494 120.537 31.322 120.809 31.146 121.081 30.966 121.299 30.766 121.463 30.546 121.631 30.326 121.715 30.064 121.715 29.76 121.715 29.372 121.577 29.056 121.301 28.812 121.029 28.564 120.659 28.44 120.191 28.44 119.695 28.44 119.285 28.582 118.961 28.866 118.641 29.15 118.451 29.55 118.391 30.066H116.975C116.983 29.538 117.109 29.058 117.353 28.626 117.597 28.194 117.959 27.85 118.439 27.594 118.919 27.334 119.517 27.204 120.233 27.204 120.853 27.204 121.387 27.312 121.835 27.528 122.287 27.74 122.635 28.038 122.879 28.422 123.127 28.802 123.251 29.246 123.251 29.754 123.251 30.198 123.169 30.578 123.005 30.894 122.845 31.21 122.631 31.484 122.363 31.716 122.099 31.944 121.807 32.146 121.487 32.322 121.171 32.498 120.853 32.664 120.533 32.82 120.217 32.972 119.925 33.132 119.657 33.3 119.393 33.464 119.179 33.652 119.015 33.864 118.855 34.076 118.775 34.33 118.775 34.626V34.752h4.494V36h-6.12zm10.485-8.796C128.626 27.204 129.41 27.586 129.986 28.35 130.566 29.11 130.856 30.22 130.856 31.68 130.856 33.132 130.568 34.238 129.992 34.998 129.42 35.754 128.632 36.132 127.628 36.132s-1.794-.378-2.37-1.134C124.686 34.242 124.4 33.14 124.4 31.692 124.4 30.716 124.532 29.896 124.796 29.232 125.06 28.564 125.434 28.06 125.918 27.72 126.402 27.376 126.974 27.204 127.634 27.204zm0 7.71C128.198 34.914 128.618 34.664 128.894 34.164 129.17 33.664 129.308 32.838 129.308 31.686 129.308 30.51 129.168 29.666 128.888 29.154S128.188 28.386 127.628 28.386C127.068 28.386 126.644 28.644 126.356 29.16 126.072 29.676 125.93 30.518 125.93 31.686 125.93 32.834 126.072 33.66 126.356 34.164 126.644 34.664 127.07 34.914 127.634 34.914zM132.114 36V35.22 34.818C132.114 34.374 132.196 33.992 132.36 33.672 132.524 33.348 132.742 33.066 133.014 32.826 133.286 32.586 133.584 32.374 133.908 32.19 134.236 32.002 134.56 31.826 134.88 31.662 135.204 31.494 135.502 31.322 135.774 31.146 136.046 30.966 136.264 30.766 136.428 30.546 136.596 30.326 136.68 30.064 136.68 29.76 136.68 29.372 136.542 29.056 136.266 28.812 135.994 28.564 135.624 28.44 135.156 28.44 134.66 28.44 134.25 28.582 133.926 28.866 133.606 29.15 133.416 29.55 133.356 30.066H131.94C131.948 29.538 132.074 29.058 132.318 28.626 132.562 28.194 132.924 27.85 133.404 27.594 133.884 27.334 134.482 27.204 135.198 27.204 135.818 27.204 136.352 27.312 136.8 27.528 137.252 27.74 137.6 28.038 137.844 28.422 138.092 28.802 138.216 29.246 138.216 29.754 138.216 30.198 138.134 30.578 137.97 30.894 137.81 31.21 137.596 31.484 137.328 31.716 137.064 31.944 136.772 32.146 136.452 32.322 136.136 32.498 135.818 32.664 135.498 32.82 135.182 32.972 134.89 33.132 134.622 33.3 134.358 33.464 134.144 33.652 133.98 33.864 133.82 34.076 133.74 34.33 133.74 34.626V34.752h4.494V36h-6.12zm11.229-8.676h1.452V32.7H146.181v1.242H144.795V36h-1.416L143.385 33.942H139.347V32.7L143.343 27.324zM140.715 32.7H143.373V29.136L140.715 32.7z" fill="oklch(0.575934 0.247012 287.24)"></path><path d="M165.53 49.324h1.452V54.7h1.386v1.242h-1.386V58h-1.416L165.572 55.942H161.534V54.7L165.53 49.324zM162.902 54.7H165.56V51.136L162.902 54.7z" fill="#3F404D" fill-opacity="0.5"></path><path d="M28.422 88.324h5.394L33.762 89.542H29.61L29.412 91.954C29.72 91.738 30.03 91.582 30.342 91.486 30.654 91.39 30.998 91.342 31.374 91.342 31.926 91.342 32.428 91.45 32.88 91.666 33.332 91.882 33.692 92.2 33.96 92.62S34.362 93.554 34.362 94.162C34.362 94.77 34.226 95.296 33.954 95.74 33.686 96.184 33.306 96.528 32.814 96.772 32.326 97.012 31.748 97.132 31.08 97.132 30.528 97.132 30.014 97.042 29.538 96.862 29.066 96.678 28.658 96.426 28.314 96.106 27.974 95.786 27.72 95.42 27.552 95.008L28.734 94.384C28.882 94.68 29.058 94.946 29.262 95.182 29.47 95.418 29.712 95.604 29.988 95.74 30.268 95.872 30.588 95.938 30.948 95.938 31.512 95.938 31.964 95.782 32.304 95.47 32.648 95.154 32.82 94.734 32.82 94.21 32.82 93.886 32.74 93.598 32.58 93.346 32.424 93.094 32.21 92.898 31.938 92.758 31.67 92.614 31.364 92.542 31.02 92.542 30.816 92.542 30.624 92.56 30.444 92.596 30.268 92.632 30.09 92.7 29.91 92.8 29.73 92.896 29.536 93.042 29.328 93.238 29.288 93.258 29.258 93.268 29.238 93.268 29.222 93.264 29.192 93.252 29.148 93.232L28.026 92.776 28.422 88.324z" fill="#3F404D" fill-opacity="0.5"></path><path d="M30.606 135.132C30.098 135.132 29.622 135.034 29.178 134.838S28.368 134.364 28.08 134.004C27.792 133.644 27.624 133.22 27.576 132.732h1.398C29.058 133.096 29.24 133.392 29.52 133.62 29.8 133.844 30.144 133.956 30.552 133.956 31.012 133.956 31.41 133.842 31.746 133.614 32.086 133.386 32.34 133.028 32.508 132.54S32.738 131.418 32.694 130.638C32.586 130.894 32.428 131.118 32.22 131.31 32.016 131.502 31.772 131.652 31.488 131.76 31.208 131.864 30.896 131.916 30.552 131.916 29.972 131.916 29.458 131.806 29.01 131.586 28.566 131.362 28.218 131.044 27.966 130.632 27.714 130.216 27.588 129.724 27.588 129.156 27.588 128.58 27.716 128.07 27.972 127.626 28.232 127.182 28.596 126.834 29.064 126.582 29.536 126.33 30.09 126.204 30.726 126.204 31.434 126.204 32.046 126.378 32.562 126.726 33.078 127.074 33.474 127.57 33.75 128.214 34.03 128.858 34.17 129.622 34.17 130.506 34.17 131.514 34.028 132.362 33.744 133.05 33.464 133.734 33.058 134.252 32.526 134.604 31.998 134.956 31.358 135.132 30.606 135.132zM30.768 130.728C31.048 130.728 31.316 130.664 31.572 130.536 31.828 130.408 32.038 130.242 32.202 130.038 32.366 129.834 32.448 129.618 32.448 129.39 32.452 128.974 32.384 128.614 32.244 128.31 32.104 128.002 31.906 127.764 31.65 127.596 31.398 127.424 31.102 127.338 30.762 127.338 30.454 127.338 30.178 127.412 29.934 127.56 29.694 127.708 29.506 127.914 29.37 128.178 29.234 128.438 29.166 128.74 29.166 129.084 29.166 129.596 29.308 129.998 29.592 130.29 29.876 130.582 30.268 130.728 30.768 130.728z" fill="#3F404D" fill-opacity="0.5"></path><path d="M76.08 88.204C76.592 88.204 77.066 88.3 77.502 88.492 77.938 88.68 78.296 88.952 78.576 89.308 78.856 89.664 79.02 90.094 79.068 90.598H77.718C77.606 90.21 77.414 89.91 77.142 89.698 76.87 89.486 76.526 89.38 76.11 89.38 75.65 89.38 75.266 89.51 74.958 89.77 74.65 90.03 74.428 90.404 74.292 90.892 74.16 91.376 74.118 91.956 74.166 92.632 74.29 92.396 74.458 92.192 74.67 92.02 74.882 91.844 75.124 91.708 75.396 91.612 75.668 91.516 75.956 91.468 76.26 91.468 76.84 91.468 77.348 91.578 77.784 91.798 78.22 92.018 78.56 92.33 78.804 92.734 79.048 93.138 79.17 93.616 79.17 94.168 79.17 94.74 79.038 95.25 78.774 95.698 78.51 96.142 78.14 96.492 77.664 96.748S76.632 97.132 75.996 97.132C75.288 97.132 74.676 96.956 74.16 96.604 73.644 96.252 73.246 95.754 72.966 95.11 72.69 94.462 72.552 93.696 72.552 92.812 72.552 91.872 72.69 91.058 72.966 90.37 73.242 89.678 73.642 89.144 74.166 88.768 74.694 88.392 75.332 88.204 76.08 88.204zM75.954 92.59C75.678 92.59 75.41 92.654 75.15 92.782 74.894 92.91 74.684 93.076 74.52 93.28 74.36 93.484 74.28 93.702 74.28 93.934 74.276 94.346 74.344 94.706 74.484 95.014 74.624 95.322 74.82 95.562 75.072 95.734 75.328 95.902 75.624 95.986 75.96 95.986 76.272 95.986 76.552 95.912 76.8 95.764 77.052 95.616 77.25 95.41 77.394 95.146 77.542 94.882 77.616 94.578 77.616 94.234 77.616 93.882 77.548 93.584 77.412 93.34 77.276 93.096 77.082 92.91 76.83 92.782 76.582 92.654 76.29 92.59 75.954 92.59z" fill="#3F404D" fill-opacity="0.5"></path><path d="M117.534 88.324h6.306v1.218C123.548 89.922 123.258 90.362 122.97 90.862 122.682 91.358 122.406 91.884 122.142 92.44 121.878 92.992 121.642 93.546 121.434 94.102 121.226 94.654 121.056 95.18 120.924 95.68 120.792 96.18 120.712 96.62 120.684 97h-1.578C119.154 96.628 119.25 96.164 119.394 95.608 119.542 95.048 119.744 94.432 120 93.76 120.256 93.084 120.574 92.386 120.954 91.666 121.334 90.946 121.778 90.238 122.286 89.542h-4.752V88.324z" fill="oklch(0.575934 0.247012 287.24)"></path><path d="M164.96 88.204C165.536 88.204 166.052 88.298 166.508 88.486 166.964 88.67 167.324 88.942 167.588 89.302 167.856 89.658 167.99 90.094 167.99 90.61 167.99 91.07 167.866 91.458 167.618 91.774 167.37 92.086 167.056 92.326 166.676 92.494 166.952 92.55 167.22 92.684 167.48 92.896 167.74 93.104 167.954 93.36 168.122 93.664 168.29 93.968 168.374 94.286 168.374 94.618 168.374 95.126 168.232 95.568 167.948 95.944 167.668 96.32 167.27 96.612 166.754 96.82 166.242 97.024 165.644 97.126 164.96 97.126S163.678 97.024 163.166 96.82C162.658 96.612 162.262 96.32 161.978 95.944 161.694 95.568 161.552 95.126 161.552 94.618 161.552 94.286 161.634 93.968 161.798 93.664 161.966 93.36 162.18 93.104 162.44 92.896 162.7 92.684 162.968 92.55 163.244 92.494 162.872 92.326 162.56 92.086 162.308 91.774 162.056 91.458 161.93 91.07 161.93 90.61 161.93 90.094 162.062 89.658 162.326 89.302 162.59 88.942 162.95 88.67 163.406 88.486 163.866 88.298 164.384 88.204 164.96 88.204zM164.96 91.912C165.416 91.912 165.788 91.796 166.076 91.564 166.368 91.328 166.514 91 166.514 90.58 166.514 90.164 166.368 89.834 166.076 89.59S165.412 89.224 164.96 89.224 164.134 89.346 163.838 89.59C163.546 89.834 163.4 90.164 163.4 90.58 163.4 91 163.546 91.328 163.838 91.564 164.134 91.796 164.508 91.912 164.96 91.912zm0 4.086C165.532 95.998 165.984 95.87 166.316 95.614S166.814 95.016 166.814 94.588C166.814 94.304 166.738 94.054 166.586 93.838 166.434 93.618 166.22 93.446 165.944 93.322 165.668 93.198 165.34 93.136 164.96 93.136 164.584 93.136 164.256 93.198 163.976 93.322 163.7 93.446 163.486 93.618 163.334 93.838 163.186 94.054 163.112 94.304 163.112 94.588 163.112 95.016 163.278 95.358 163.61 95.614 163.946 95.87 164.396 95.998 164.96 95.998z" fill="#3F404D" fill-opacity="0.5"></path></g><defs><linearGradient id="paint0_linear_5593_557" x1=".116537e-4" y1="18.5" x2="218" y2="18.5561" gradientUnits="userSpaceOnUse"><stop stop-color="#76717f" stop-opacity="0"></stop><stop offset=".245" stop-color="#3f404d" stop-opacity=".5"></stop><stop offset=".75" stop-color="#3f404d" stop-opacity=".5"></stop><stop offset="1" stop-color="#76717f" stop-opacity="0"></stop></linearGradient><linearGradient id="paint1_linear_5593_557" x1="19.5" y1=".953883e-5" x2="19.4626" y2="178" gradientUnits="userSpaceOnUse"><stop stop-color="#76717f" stop-opacity="0"></stop><stop offset=".245" stop-color="#3f404d" stop-opacity=".5"></stop><stop offset=".75" stop-color="#3f404d" stop-opacity=".5"></stop><stop offset="1" stop-color="#76717f" stop-opacity="0"></stop></linearGradient><linearGradient id="paint2_linear_5593_557" x1="199.5" y1=".953883e-5" x2="199.463" y2="178" gradientUnits="userSpaceOnUse"><stop stop-color="#76717f" stop-opacity="0"></stop><stop offset=".245" stop-color="#3f404d" stop-opacity=".5"></stop><stop offset=".75" stop-color="#3f404d" stop-opacity=".5"></stop><stop offset="1" stop-color="#76717f" stop-opacity="0"></stop></linearGradient><linearGradient id="paint3_linear_5593_557" x1=".116537e-4" y1="157.5" x2="218" y2="157.556" gradientUnits="userSpaceOnUse"><stop stop-color="#76717f" stop-opacity="0"></stop><stop offset=".245" stop-color="#3f404d" stop-opacity=".5"></stop><stop offset=".75" stop-color="#3f404d" stop-opacity=".5"></stop><stop offset="1" stop-color="#76717f" stop-opacity="0"></stop></linearGradient><clipPath id="clip0_5593_557"><rect width="218" height="178" fill="#fff"></rect></clipPath><linearGradient id="paint0_linear_5593_557" x1=".116537e-4" y1="18.5" x2="218" y2="18.5561" gradientUnits="userSpaceOnUse"><stop stop-color="#76717f" stop-opacity="0"></stop><stop offset=".245" stop-color="#3f404d" stop-opacity=".5"></stop><stop offset=".75" stop-color="#3f404d" stop-opacity=".5"></stop><stop offset="1" stop-color="#76717f" stop-opacity="0"></stop></linearGradient><linearGradient id="paint1_linear_5593_557" x1="19.5" y1=".953883e-5" x2="19.4626" y2="178" gradientUnits="userSpaceOnUse"><stop stop-color="#76717f" stop-opacity="0"></stop><stop offset=".245" stop-color="#3f404d" stop-opacity=".5"></stop><stop offset=".75" stop-color="#3f404d" stop-opacity=".5"></stop><stop offset="1" stop-color="#76717f" stop-opacity="0"></stop></linearGradient><linearGradient id="paint2_linear_5593_557" x1="199.5" y1=".953883e-5" x2="199.463" y2="178" gradientUnits="userSpaceOnUse"><stop stop-color="#76717f" stop-opacity="0"></stop><stop offset=".245" stop-color="#3f404d" stop-opacity=".5"></stop><stop offset=".75" stop-color="#3f404d" stop-opacity=".5"></stop><stop offset="1" stop-color="#76717f" stop-opacity="0"></stop></linearGradient><linearGradient id="paint3_linear_5593_557" x1=".116537e-4" y1="157.5" x2="218" y2="157.556" gradientUnits="userSpaceOnUse"><stop stop-color="#76717f" stop-opacity="0"></stop><stop offset=".245" stop-color="#3f404d" stop-opacity=".5"></stop><stop offset=".75" stop-color="#3f404d" stop-opacity=".5"></stop><stop offset="1" stop-color="#76717f" stop-opacity="0"></stop></linearGradient><linearGradient id="paint0_linear_5593_557" x1=".116537e-4" y1="18.5" x2="218" y2="18.5561" gradientUnits="userSpaceOnUse"><stop stop-color="#76717f" stop-opacity="0"></stop><stop offset=".245" stop-color="#3f404d" stop-opacity=".5"></stop><stop offset=".75" stop-color="#3f404d" stop-opacity=".5"></stop><stop offset="1" stop-color="#76717f" stop-opacity="0"></stop></linearGradient><linearGradient id="paint1_linear_5593_557" x1="19.5" y1=".953883e-5" x2="19.4626" y2="178" gradientUnits="userSpaceOnUse"><stop stop-color="#76717f" stop-opacity="0"></stop><stop offset=".245" stop-color="#3f404d" stop-opacity=".5"></stop><stop offset=".75" stop-color="#3f404d" stop-opacity=".5"></stop><stop offset="1" stop-color="#76717f" stop-opacity="0"></stop></linearGradient><linearGradient id="paint2_linear_5593_557" x1="199.5" y1=".953883e-5" x2="199.463" y2="178" gradientUnits="userSpaceOnUse"><stop stop-color="#76717f" stop-opacity="0"></stop><stop offset=".245" stop-color="#3f404d" stop-opacity=".5"></stop><stop offset=".75" stop-color="#3f404d" stop-opacity=".5"></stop><stop offset="1" stop-color="#76717f" stop-opacity="0"></stop></linearGradient><linearGradient id="paint3_linear_5593_557" x1=".116537e-4" y1="157.5" x2="218" y2="157.556" gradientUnits="userSpaceOnUse"><stop stop-color="#76717f" stop-opacity="0"></stop><stop offset=".245" stop-color="#3f404d" stop-opacity=".5"></stop><stop offset=".75" stop-color="#3f404d" stop-opacity=".5"></stop><stop offset="1" stop-color="#76717f" stop-opacity="0"></stop></linearGradient><linearGradient id="paint0_linear_5593_557" x1=".116537e-4" y1="18.5" x2="218" y2="18.5561" gradientUnits="userSpaceOnUse"><stop stop-color="#76717f" stop-opacity="0"></stop><stop offset=".245" stop-color="#3f404d" stop-opacity=".5"></stop><stop offset=".75" stop-color="#3f404d" stop-opacity=".5"></stop><stop offset="1" stop-color="#76717f" stop-opacity="0"></stop></linearGradient><linearGradient id="paint1_linear_5593_557" x1="19.5" y1=".953883e-5" x2="19.4626" y2="178" gradientUnits="userSpaceOnUse"><stop stop-color="#76717f" stop-opacity="0"></stop><stop offset=".245" stop-color="#3f404d" stop-opacity=".5"></stop><stop offset=".75" stop-color="#3f404d" stop-opacity=".5"></stop><stop offset="1" stop-color="#76717f" stop-opacity="0"></stop></linearGradient><linearGradient id="paint2_linear_5593_557" x1="199.5" y1=".953883e-5" x2="199.463" y2="178" gradientUnits="userSpaceOnUse"><stop stop-color="#76717f" stop-opacity="0"></stop><stop offset=".245" stop-color="#3f404d" stop-opacity=".5"></stop><stop offset=".75" stop-color="#3f404d" stop-opacity=".5"></stop><stop offset="1" stop-color="#76717f" stop-opacity="0"></stop></linearGradient><linearGradient id="paint3_linear_5593_557" x1=".116537e-4" y1="157.5" x2="218" y2="157.556" gradientUnits="userSpaceOnUse"><stop stop-color="#76717f" stop-opacity="0"></stop><stop offset=".245" stop-color="#3f404d" stop-opacity=".5"></stop><stop offset=".75" stop-color="#3f404d" stop-opacity=".5"></stop><stop offset="1" stop-color="#76717f" stop-opacity="0"></stop></linearGradient></defs></svg>