<svg xmlns:xlink="http://www.w3.org/1999/xlink" width="230" height="114" viewBox="0 0 230 114" fill="none" xmlns="http://www.w3.org/2000/svg"><g clip-path="url(#clip0_5657_36904)" fill="none"><path d="M25 114V-.366569e-5" stroke="url(&quot;#paint0_linear_5657_36904&quot;)" stroke-opacity="0.4" fill="none"></path><path d="M205 114V-.366569e-5" stroke="url(&quot;#paint1_linear_5657_36904&quot;)" stroke-opacity="0.4" fill="none"></path><path d="M230 20H-.411272e-5" stroke="url(&quot;#paint2_linear_5657_36904&quot;)" stroke-opacity="0.4" fill="none"></path><path d="M230 94H-.411272e-5" stroke="url(&quot;#paint3_linear_5657_36904&quot;)" stroke-opacity="0.4" fill="none"></path><rect x="25" y="20" width="180" height="74" rx="8" fill="#76717F" fill-opacity="0.06"></rect><rect x="41" y="43" width="28" height="28" rx="8" fill="#76717F" fill-opacity="0.06"></rect><rect x="81" y="43" width="28" height="28" rx="8" fill="oklch(0.575934 0.247012 287.24)" fill-opacity="0.1"></rect><rect x="121" y="43" width="28" height="28" rx="8" fill="#76717F" fill-opacity="0.06"></rect><rect x="161" y="43" width="28" height="28" rx="8" fill="#76717F" fill-opacity="0.06"></rect><path d="M58.4834 63 57.5518 59.9414H52.8672L51.9355 63H49l4.5352-12.9023h3.331L61.4189 63H58.4834zm-1.582-5.3438C56.04 54.8848 55.5537 53.3174 55.4424 52.9541 55.3369 52.5908 55.2607 52.3037 55.2139 52.0928 55.0205 52.8428 54.4668 54.6973 53.5527 57.6562h3.3487z" fill="#76717F" fill-opacity="0.3"></path><path d="M90.6172 50.1504H94.6162C96.4385 50.1504 97.7598 50.4111 98.5801 50.9326 99.4062 51.4482 99.8193 52.2715 99.8193 53.4023 99.8193 54.1699 99.6377 54.7998 99.2744 55.292 98.917 55.7842 98.4395 56.0801 97.8418 56.1797V56.2676C98.6562 56.4492 99.2422 56.7891 99.5996 57.2871 99.9629 57.7852 100.145 58.4473 100.145 59.2734c0 1.1719-.425299999999993 2.086-1.2749 2.7422C98.0264 62.6719 96.8779 63 95.4248 63H90.6172V50.1504zM93.3418 55.2393H94.9238C95.6621 55.2393 96.1953 55.125 96.5234 54.8965 96.8574 54.668 97.0244 54.29 97.0244 53.7627 97.0244 53.2705 96.8428 52.9189 96.4795 52.708 96.1221 52.4912 95.5537 52.3828 94.7744 52.3828H93.3418v2.8565zm0 2.1621V60.75H95.1172C95.8672 60.75 96.4209 60.6064 96.7783 60.3193 97.1357 60.0322 97.3145 59.5928 97.3145 59.001 97.3145 57.9346 96.5527 57.4014 95.0293 57.4014H93.3418z" fill="oklch(0.575934 0.247012 287.24)"></path><path d="M136.075 52.2334C135.05 52.2334 134.256 52.6201 133.693 53.3936 133.131 54.1611 132.85 55.2334 132.85 56.6104 132.85 59.4756 133.925 60.9082 136.075 60.9082 136.978 60.9082 138.07 60.6826 139.354 60.2314v2.2852C138.299 62.9561 137.121 63.1758 135.82 63.1758 133.951 63.1758 132.521 62.6104 131.531 61.4795 130.541 60.3428 130.046 58.7139 130.046 56.5928 130.046 55.2568 130.289 54.0879 130.775 53.0859 131.262 52.0781 131.959 51.3076 132.867 50.7744 133.781 50.2354 134.851 49.9658 136.075 49.9658 137.323 49.9658 138.577 50.2676 139.837 50.8711L138.958 53.0859C138.478 52.8574 137.994 52.6582 137.508 52.4883 137.021 52.3184 136.544 52.2334 136.075 52.2334z" fill="#76717F" fill-opacity="0.3"></path><path d="M181.278 56.4521c0 2.1153-.60299999999998 3.7354-1.81 4.8604C178.267 62.4375 176.529 63 174.256 63H170.617V50.1504H174.651C176.749 50.1504 178.378 50.7041 179.538 51.8115 180.698 52.9189 181.278 54.4658 181.278 56.4521zM178.448 56.5225C178.448 53.7627 177.229 52.3828 174.792 52.3828H173.342V60.75H174.511C177.136 60.75 178.448 59.3408 178.448 56.5225z" fill="#76717F" fill-opacity="0.3"></path></g><defs><linearGradient id="paint0_linear_5657_36904" x1="25.5" y1=".611218e-5" x2="25.4847" y2="114" gradientUnits="userSpaceOnUse"><stop stop-color="#76717f" stop-opacity="0"></stop><stop offset=".245" stop-color="#3f404d" stop-opacity=".5"></stop><stop offset=".75" stop-color="#3f404d" stop-opacity=".5"></stop><stop offset="1" stop-color="#76717f" stop-opacity="0"></stop></linearGradient><linearGradient id="paint1_linear_5657_36904" x1="205.5" y1=".611218e-5" x2="205.485" y2="114" gradientUnits="userSpaceOnUse"><stop stop-color="#76717f" stop-opacity="0"></stop><stop offset=".245" stop-color="#3f404d" stop-opacity=".5"></stop><stop offset=".75" stop-color="#3f404d" stop-opacity=".5"></stop><stop offset="1" stop-color="#76717f" stop-opacity="0"></stop></linearGradient><linearGradient id="paint2_linear_5657_36904" x1=".122952e-4" y1="19.5" x2="230" y2="19.5624" gradientUnits="userSpaceOnUse"><stop stop-color="#76717f" stop-opacity="0"></stop><stop offset=".245" stop-color="#3f404d" stop-opacity=".5"></stop><stop offset=".75" stop-color="#3f404d" stop-opacity=".5"></stop><stop offset="1" stop-color="#76717f" stop-opacity="0"></stop></linearGradient><linearGradient id="paint3_linear_5657_36904" x1=".122952e-4" y1="93.5" x2="230" y2="93.5624" gradientUnits="userSpaceOnUse"><stop stop-color="#76717f" stop-opacity="0"></stop><stop offset=".245" stop-color="#3f404d" stop-opacity=".5"></stop><stop offset=".75" stop-color="#3f404d" stop-opacity=".5"></stop><stop offset="1" stop-color="#76717f" stop-opacity="0"></stop></linearGradient><clipPath id="clip0_5657_36904"><rect width="230" height="114" fill="#fff"></rect></clipPath><linearGradient id="paint0_linear_5657_36904" x1="25.5" y1=".611218e-5" x2="25.4847" y2="114" gradientUnits="userSpaceOnUse"><stop stop-color="#76717f" stop-opacity="0"></stop><stop offset=".245" stop-color="#3f404d" stop-opacity=".5"></stop><stop offset=".75" stop-color="#3f404d" stop-opacity=".5"></stop><stop offset="1" stop-color="#76717f" stop-opacity="0"></stop></linearGradient><linearGradient id="paint1_linear_5657_36904" x1="205.5" y1=".611218e-5" x2="205.485" y2="114" gradientUnits="userSpaceOnUse"><stop stop-color="#76717f" stop-opacity="0"></stop><stop offset=".245" stop-color="#3f404d" stop-opacity=".5"></stop><stop offset=".75" stop-color="#3f404d" stop-opacity=".5"></stop><stop offset="1" stop-color="#76717f" stop-opacity="0"></stop></linearGradient><linearGradient id="paint2_linear_5657_36904" x1=".122952e-4" y1="19.5" x2="230" y2="19.5624" gradientUnits="userSpaceOnUse"><stop stop-color="#76717f" stop-opacity="0"></stop><stop offset=".245" stop-color="#3f404d" stop-opacity=".5"></stop><stop offset=".75" stop-color="#3f404d" stop-opacity=".5"></stop><stop offset="1" stop-color="#76717f" stop-opacity="0"></stop></linearGradient><linearGradient id="paint3_linear_5657_36904" x1=".122952e-4" y1="93.5" x2="230" y2="93.5624" gradientUnits="userSpaceOnUse"><stop stop-color="#76717f" stop-opacity="0"></stop><stop offset=".245" stop-color="#3f404d" stop-opacity=".5"></stop><stop offset=".75" stop-color="#3f404d" stop-opacity=".5"></stop><stop offset="1" stop-color="#76717f" stop-opacity="0"></stop></linearGradient><linearGradient id="paint0_linear_5657_36904" x1="25.5" y1=".611218e-5" x2="25.4847" y2="114" gradientUnits="userSpaceOnUse"><stop stop-color="#76717f" stop-opacity="0"></stop><stop offset=".245" stop-color="#3f404d" stop-opacity=".5"></stop><stop offset=".75" stop-color="#3f404d" stop-opacity=".5"></stop><stop offset="1" stop-color="#76717f" stop-opacity="0"></stop></linearGradient><linearGradient id="paint1_linear_5657_36904" x1="205.5" y1=".611218e-5" x2="205.485" y2="114" gradientUnits="userSpaceOnUse"><stop stop-color="#76717f" stop-opacity="0"></stop><stop offset=".245" stop-color="#3f404d" stop-opacity=".5"></stop><stop offset=".75" stop-color="#3f404d" stop-opacity=".5"></stop><stop offset="1" stop-color="#76717f" stop-opacity="0"></stop></linearGradient><linearGradient id="paint2_linear_5657_36904" x1=".122952e-4" y1="19.5" x2="230" y2="19.5624" gradientUnits="userSpaceOnUse"><stop stop-color="#76717f" stop-opacity="0"></stop><stop offset=".245" stop-color="#3f404d" stop-opacity=".5"></stop><stop offset=".75" stop-color="#3f404d" stop-opacity=".5"></stop><stop offset="1" stop-color="#76717f" stop-opacity="0"></stop></linearGradient><linearGradient id="paint3_linear_5657_36904" x1=".122952e-4" y1="93.5" x2="230" y2="93.5624" gradientUnits="userSpaceOnUse"><stop stop-color="#76717f" stop-opacity="0"></stop><stop offset=".245" stop-color="#3f404d" stop-opacity=".5"></stop><stop offset=".75" stop-color="#3f404d" stop-opacity=".5"></stop><stop offset="1" stop-color="#76717f" stop-opacity="0"></stop></linearGradient><linearGradient id="paint0_linear_5657_36904" x1="25.5" y1=".611218e-5" x2="25.4847" y2="114" gradientUnits="userSpaceOnUse"><stop stop-color="#76717f" stop-opacity="0"></stop><stop offset=".245" stop-color="#3f404d" stop-opacity=".5"></stop><stop offset=".75" stop-color="#3f404d" stop-opacity=".5"></stop><stop offset="1" stop-color="#76717f" stop-opacity="0"></stop></linearGradient><linearGradient id="paint1_linear_5657_36904" x1="205.5" y1=".611218e-5" x2="205.485" y2="114" gradientUnits="userSpaceOnUse"><stop stop-color="#76717f" stop-opacity="0"></stop><stop offset=".245" stop-color="#3f404d" stop-opacity=".5"></stop><stop offset=".75" stop-color="#3f404d" stop-opacity=".5"></stop><stop offset="1" stop-color="#76717f" stop-opacity="0"></stop></linearGradient><linearGradient id="paint2_linear_5657_36904" x1=".122952e-4" y1="19.5" x2="230" y2="19.5624" gradientUnits="userSpaceOnUse"><stop stop-color="#76717f" stop-opacity="0"></stop><stop offset=".245" stop-color="#3f404d" stop-opacity=".5"></stop><stop offset=".75" stop-color="#3f404d" stop-opacity=".5"></stop><stop offset="1" stop-color="#76717f" stop-opacity="0"></stop></linearGradient><linearGradient id="paint3_linear_5657_36904" x1=".122952e-4" y1="93.5" x2="230" y2="93.5624" gradientUnits="userSpaceOnUse"><stop stop-color="#76717f" stop-opacity="0"></stop><stop offset=".245" stop-color="#3f404d" stop-opacity=".5"></stop><stop offset=".75" stop-color="#3f404d" stop-opacity=".5"></stop><stop offset="1" stop-color="#76717f" stop-opacity="0"></stop></linearGradient></defs></svg>