<svg xmlns:xlink="http://www.w3.org/1999/xlink" width="93" height="121" viewBox="0 0 93 121" fill="none" xmlns="http://www.w3.org/2000/svg"><g clip-path="url(#clip0_5593_211)" fill="none"><path d="M12.6133 120.969V.0317719" stroke="url(&quot;#paint0_linear_5593_211&quot;)" stroke-opacity="0.4" fill="none"></path><path d="M80.3867 120.969V.0317719" stroke="url(&quot;#paint1_linear_5593_211&quot;)" stroke-opacity="0.4" fill="none"></path><path d="M93 11H-.181794e-5" stroke="url(&quot;#paint2_linear_5593_211&quot;)" stroke-opacity="0.4" fill="none"></path><path d="M93 110H-.181794e-5" stroke="url(&quot;#paint3_linear_5593_211&quot;)" stroke-opacity="0.4" fill="none"></path><rect x="12.4565" y="11.2712" width="68.087" height="98.4575" rx="8" fill="#76717F" fill-opacity="0.06"></rect><path d="M39.9588 64V55.2727h1.3168v3.7926h4.3508V55.2727H46.9474V64H45.6264V60.1946H41.2756V64H39.9588zm8.804.0V57.4545h1.2741V64H48.7628zm.6434-7.5554C49.1847 56.4446 48.9943 56.3707 48.8352 56.223 48.679 56.0724 48.6009 55.8935 48.6009 55.6861 48.6009 55.4759 48.679 55.2969 48.8352 55.1491 48.9943 54.9986 49.1847 54.9233 49.4062 54.9233 49.6278 54.9233 49.8168 54.9986 49.973 55.1491 50.1321 55.2969 50.2116 55.4759 50.2116 55.6861 50.2116 55.8935 50.1321 56.0724 49.973 56.223 49.8168 56.3707 49.6278 56.4446 49.4062 56.4446zm3.1844 7.6364C52.3576 64.081 52.1573 63.9986 51.9897 63.8338 51.8221 63.6662 51.7383 63.4645 51.7383 63.2287 51.7383 62.9957 51.8221 62.7969 51.9897 62.6321 52.1573 62.4645 52.3576 62.3807 52.5906 62.3807 52.8235 62.3807 53.0238 62.4645 53.1914 62.6321 53.359 62.7969 53.4428 62.9957 53.4428 63.2287 53.4428 63.3849 53.4031 63.5284 53.3235 63.6591 53.2468 63.7869 53.1445 63.8892 53.0167 63.9659 52.8888 64.0426 52.7468 64.081 52.5906 64.081z" fill="oklch(0.575934 0.247012 287.24)"></path><rect x="33.74" y="17.6804" width="24.9945" height="5.12444" rx="2.56222" fill="oklch(0.575934 0.247012 287.24)"></rect></g><defs><linearGradient id="paint0_linear_5593_211" x1="13.1133" y1=".0317753" x2="13.096" y2="120.969" gradientUnits="userSpaceOnUse"><stop stop-color="#76717f" stop-opacity="0"></stop><stop offset=".245" stop-color="#3f404d" stop-opacity=".5"></stop><stop offset=".75" stop-color="#3f404d" stop-opacity=".5"></stop><stop offset="1" stop-color="#76717f" stop-opacity="0"></stop></linearGradient><linearGradient id="paint1_linear_5593_211" x1="80.8867" y1=".0317753" x2="80.8695" y2="120.969" gradientUnits="userSpaceOnUse"><stop stop-color="#76717f" stop-opacity="0"></stop><stop offset=".245" stop-color="#3f404d" stop-opacity=".5"></stop><stop offset=".75" stop-color="#3f404d" stop-opacity=".5"></stop><stop offset="1" stop-color="#76717f" stop-opacity="0"></stop></linearGradient><linearGradient id="paint2_linear_5593_211" x1=".497153e-5" y1="10.5" x2="93.0001" y2="10.5102" gradientUnits="userSpaceOnUse"><stop stop-color="#76717f" stop-opacity="0"></stop><stop offset=".245" stop-color="#3f404d" stop-opacity=".5"></stop><stop offset=".75" stop-color="#3f404d" stop-opacity=".5"></stop><stop offset="1" stop-color="#76717f" stop-opacity="0"></stop></linearGradient><linearGradient id="paint3_linear_5593_211" x1=".497153e-5" y1="109.5" x2="93.0001" y2="109.51" gradientUnits="userSpaceOnUse"><stop stop-color="#76717f" stop-opacity="0"></stop><stop offset=".245" stop-color="#3f404d" stop-opacity=".5"></stop><stop offset=".75" stop-color="#3f404d" stop-opacity=".5"></stop><stop offset="1" stop-color="#76717f" stop-opacity="0"></stop></linearGradient><clipPath id="clip0_5593_211"><rect width="93" height="121" fill="#fff"></rect></clipPath><linearGradient id="paint0_linear_5593_211" x1="13.1133" y1=".0317753" x2="13.096" y2="120.969" gradientUnits="userSpaceOnUse"><stop stop-color="#76717f" stop-opacity="0"></stop><stop offset=".245" stop-color="#3f404d" stop-opacity=".5"></stop><stop offset=".75" stop-color="#3f404d" stop-opacity=".5"></stop><stop offset="1" stop-color="#76717f" stop-opacity="0"></stop></linearGradient><linearGradient id="paint1_linear_5593_211" x1="80.8867" y1=".0317753" x2="80.8695" y2="120.969" gradientUnits="userSpaceOnUse"><stop stop-color="#76717f" stop-opacity="0"></stop><stop offset=".245" stop-color="#3f404d" stop-opacity=".5"></stop><stop offset=".75" stop-color="#3f404d" stop-opacity=".5"></stop><stop offset="1" stop-color="#76717f" stop-opacity="0"></stop></linearGradient><linearGradient id="paint2_linear_5593_211" x1=".497153e-5" y1="10.5" x2="93.0001" y2="10.5102" gradientUnits="userSpaceOnUse"><stop stop-color="#76717f" stop-opacity="0"></stop><stop offset=".245" stop-color="#3f404d" stop-opacity=".5"></stop><stop offset=".75" stop-color="#3f404d" stop-opacity=".5"></stop><stop offset="1" stop-color="#76717f" stop-opacity="0"></stop></linearGradient><linearGradient id="paint3_linear_5593_211" x1=".497153e-5" y1="109.5" x2="93.0001" y2="109.51" gradientUnits="userSpaceOnUse"><stop stop-color="#76717f" stop-opacity="0"></stop><stop offset=".245" stop-color="#3f404d" stop-opacity=".5"></stop><stop offset=".75" stop-color="#3f404d" stop-opacity=".5"></stop><stop offset="1" stop-color="#76717f" stop-opacity="0"></stop></linearGradient><linearGradient id="paint0_linear_5593_211" x1="13.1133" y1=".0317753" x2="13.096" y2="120.969" gradientUnits="userSpaceOnUse"><stop stop-color="#76717f" stop-opacity="0"></stop><stop offset=".245" stop-color="#3f404d" stop-opacity=".5"></stop><stop offset=".75" stop-color="#3f404d" stop-opacity=".5"></stop><stop offset="1" stop-color="#76717f" stop-opacity="0"></stop></linearGradient><linearGradient id="paint1_linear_5593_211" x1="80.8867" y1=".0317753" x2="80.8695" y2="120.969" gradientUnits="userSpaceOnUse"><stop stop-color="#76717f" stop-opacity="0"></stop><stop offset=".245" stop-color="#3f404d" stop-opacity=".5"></stop><stop offset=".75" stop-color="#3f404d" stop-opacity=".5"></stop><stop offset="1" stop-color="#76717f" stop-opacity="0"></stop></linearGradient><linearGradient id="paint2_linear_5593_211" x1=".497153e-5" y1="10.5" x2="93.0001" y2="10.5102" gradientUnits="userSpaceOnUse"><stop stop-color="#76717f" stop-opacity="0"></stop><stop offset=".245" stop-color="#3f404d" stop-opacity=".5"></stop><stop offset=".75" stop-color="#3f404d" stop-opacity=".5"></stop><stop offset="1" stop-color="#76717f" stop-opacity="0"></stop></linearGradient><linearGradient id="paint3_linear_5593_211" x1=".497153e-5" y1="109.5" x2="93.0001" y2="109.51" gradientUnits="userSpaceOnUse"><stop stop-color="#76717f" stop-opacity="0"></stop><stop offset=".245" stop-color="#3f404d" stop-opacity=".5"></stop><stop offset=".75" stop-color="#3f404d" stop-opacity=".5"></stop><stop offset="1" stop-color="#76717f" stop-opacity="0"></stop></linearGradient><linearGradient id="paint0_linear_5593_211" x1="13.1133" y1=".0317753" x2="13.096" y2="120.969" gradientUnits="userSpaceOnUse"><stop stop-color="#76717f" stop-opacity="0"></stop><stop offset=".245" stop-color="#3f404d" stop-opacity=".5"></stop><stop offset=".75" stop-color="#3f404d" stop-opacity=".5"></stop><stop offset="1" stop-color="#76717f" stop-opacity="0"></stop></linearGradient><linearGradient id="paint1_linear_5593_211" x1="80.8867" y1=".0317753" x2="80.8695" y2="120.969" gradientUnits="userSpaceOnUse"><stop stop-color="#76717f" stop-opacity="0"></stop><stop offset=".245" stop-color="#3f404d" stop-opacity=".5"></stop><stop offset=".75" stop-color="#3f404d" stop-opacity=".5"></stop><stop offset="1" stop-color="#76717f" stop-opacity="0"></stop></linearGradient><linearGradient id="paint2_linear_5593_211" x1=".497153e-5" y1="10.5" x2="93.0001" y2="10.5102" gradientUnits="userSpaceOnUse"><stop stop-color="#76717f" stop-opacity="0"></stop><stop offset=".245" stop-color="#3f404d" stop-opacity=".5"></stop><stop offset=".75" stop-color="#3f404d" stop-opacity=".5"></stop><stop offset="1" stop-color="#76717f" stop-opacity="0"></stop></linearGradient><linearGradient id="paint3_linear_5593_211" x1=".497153e-5" y1="109.5" x2="93.0001" y2="109.51" gradientUnits="userSpaceOnUse"><stop stop-color="#76717f" stop-opacity="0"></stop><stop offset=".245" stop-color="#3f404d" stop-opacity=".5"></stop><stop offset=".75" stop-color="#3f404d" stop-opacity=".5"></stop><stop offset="1" stop-color="#76717f" stop-opacity="0"></stop></linearGradient></defs></svg>