<svg xmlns:xlink="http://www.w3.org/1999/xlink" width="237" height="82" viewBox="0 0 237 82" fill="none" xmlns="http://www.w3.org/2000/svg"><g clip-path="url(#clip0_5515_6956)" fill="none"><rect x="21" y="17" width="42" height="48" rx="8" fill="#76717F" fill-opacity="0.06"></rect><rect x="72" y="17" width="42" height="48" rx="8" fill="#76717F" fill-opacity="0.06"></rect><rect x="123" y="17" width="42" height="48" rx="8" fill="oklch(0.575934 0.247012 287.24)" fill-opacity="0.1"></rect><rect x="174" y="17" width="42" height="48" rx="8" fill="#76717F" fill-opacity="0.06"></rect><path d="M42.213 48V37.974H39.801V36.669C40.563 36.669 41.166 36.606 41.61 36.48 42.06 36.348 42.387 36.156 42.591 35.904 42.801 35.652 42.921 35.346 42.951 34.986h1.494V48H42.213z" fill="#76717F" fill-opacity="0.3"></path><path d="M138.945 38.892C138.945 38.004 139.158 37.257 139.584 36.651 140.01 36.039 140.58 35.58 141.294 35.274 142.014 34.962 142.812 34.806 143.688 34.806 144.63 34.806 145.464 34.935 146.19 35.193 146.922 35.445 147.495 35.826 147.909 36.336 148.329 36.846 148.539 37.479 148.539 38.235 148.539 38.877 148.344 39.45 147.954 39.954 147.564 40.458 146.949 40.854 146.109 41.142 146.631 41.286 147.099 41.502 147.513 41.79 147.927 42.072 148.254 42.426 148.494 42.852 148.74 43.278 148.863 43.779 148.863 44.355 148.863 44.973 148.728 45.522 148.458 46.002 148.194 46.482 147.822 46.887 147.342 47.217 146.868 47.541 146.313 47.787 145.677 47.955 145.041 48.117 144.357 48.198 143.625 48.198 142.647 48.192 141.804 48.024 141.096 47.694 140.388 47.364 139.836 46.893 139.44 46.281 139.05 45.669 138.846 44.943 138.828 44.103H140.961C141.087 44.877 141.393 45.453 141.879 45.831c.492000000000019.372 1.089.558 1.791.558C144.252 46.389 144.756 46.302 145.182 46.128 145.608 45.948 145.935 45.702 146.163 45.39 146.397 45.078 146.514 44.715 146.514 44.301 146.514 43.863 146.388 43.488 146.136 43.176 145.89 42.864 145.551 42.624 145.119 42.456 144.687 42.288 144.201 42.198 143.661 42.186L142.455 42.15V40.368L143.571 40.323C144.087 40.305 144.54 40.206 144.93 40.026 145.326 39.846 145.635 39.609 145.857 39.315 146.079 39.021 146.19 38.691 146.19 38.325 146.19 37.989 146.085 37.686 145.875 37.416 145.671 37.146 145.38 36.936 145.002 36.786 144.624 36.63 144.177 36.552 143.661 36.552 143.223 36.552 142.812 36.63 142.428 36.786 142.044 36.942 141.726 37.194 141.474 37.542 141.228 37.884 141.093 38.334 141.069 38.892h-2.124z" fill="oklch(0.575934 0.247012 287.24)"></path><path d="M89.062 48V46.83 46.227C89.062 45.561 89.185 44.988 89.431 44.508 89.677 44.022 90.004 43.599 90.412 43.239 90.82 42.879 91.267 42.561 91.753 42.285 92.245 42.003 92.731 41.739 93.211 41.493 93.697 41.241 94.144 40.983 94.552 40.719 94.96 40.449 95.287 40.149 95.533 39.819 95.785 39.489 95.911 39.096 95.911 38.64 95.911 38.058 95.704 37.584 95.29 37.218 94.882 36.846 94.327 36.66 93.625 36.66 92.881 36.66 92.266 36.873 91.78 37.299 91.3 37.725 91.015 38.325 90.925 39.099H88.801C88.813 38.307 89.002 37.587 89.368 36.939S90.277 35.775 90.997 35.391C91.717 35.001 92.614 34.806 93.688 34.806 94.618 34.806 95.419 34.968 96.091 35.292 96.769 35.61 97.291 36.057 97.657 36.633 98.029 37.203 98.215 37.869 98.215 38.631 98.215 39.297 98.092 39.867 97.846 40.341 97.606 40.815 97.285 41.226 96.883 41.574 96.487 41.916 96.049 42.219 95.569 42.483 95.095 42.747 94.618 42.996 94.138 43.23 93.664 43.458 93.226 43.698 92.824 43.95 92.428 44.196 92.107 44.478 91.861 44.796 91.621 45.114 91.501 45.495 91.501 45.939v.189h6.741V48H89.062z" fill="#76717F" fill-opacity="0.3"></path><path d="M237 17H.715256e-5" stroke="url(&quot;#paint0_linear_5515_6956&quot;)" stroke-opacity="0.4" fill="none"></path><path d="M237 65H.715256e-5" stroke="url(&quot;#paint1_linear_5515_6956&quot;)" stroke-opacity="0.4" fill="none"></path><path d="M20 82V-.169873e-5" stroke="url(&quot;#paint2_linear_5515_6956&quot;)" stroke-opacity="0.4" fill="none"></path><path d="M216 82V-.169873e-5" stroke="url(&quot;#paint3_linear_5515_6956&quot;)" stroke-opacity="0.4" fill="none"></path></g><defs><linearGradient id="paint0_linear_5515_6956" x1=".126694e-4" y1="16.5" x2="237" y2="16.5663" gradientUnits="userSpaceOnUse"><stop stop-color="#76717f" stop-opacity="0"></stop><stop offset=".245" stop-color="#3f404d" stop-opacity=".5"></stop><stop offset=".75" stop-color="#3f404d" stop-opacity=".5"></stop><stop offset="1" stop-color="#76717f" stop-opacity="0"></stop></linearGradient><linearGradient id="paint1_linear_5515_6956" x1=".126694e-4" y1="64.5" x2="237" y2="64.5663" gradientUnits="userSpaceOnUse"><stop stop-color="#76717f" stop-opacity="0"></stop><stop offset=".245" stop-color="#3f404d" stop-opacity=".5"></stop><stop offset=".75" stop-color="#3f404d" stop-opacity=".5"></stop><stop offset="1" stop-color="#76717f" stop-opacity="0"></stop></linearGradient><linearGradient id="paint2_linear_5515_6956" x1="20.5" y1=".435075e-5" x2="20.4921" y2="82" gradientUnits="userSpaceOnUse"><stop stop-color="#76717f" stop-opacity="0"></stop><stop offset=".245" stop-color="#3f404d" stop-opacity=".5"></stop><stop offset=".75" stop-color="#3f404d" stop-opacity=".5"></stop><stop offset="1" stop-color="#76717f" stop-opacity="0"></stop></linearGradient><linearGradient id="paint3_linear_5515_6956" x1="216.5" y1=".435075e-5" x2="216.492" y2="82" gradientUnits="userSpaceOnUse"><stop stop-color="#76717f" stop-opacity="0"></stop><stop offset=".245" stop-color="#3f404d" stop-opacity=".5"></stop><stop offset=".75" stop-color="#3f404d" stop-opacity=".5"></stop><stop offset="1" stop-color="#76717f" stop-opacity="0"></stop></linearGradient><clipPath id="clip0_5515_6956"><rect width="237" height="82" fill="#fff"></rect></clipPath><linearGradient id="paint0_linear_5515_6956" x1=".126694e-4" y1="16.5" x2="237" y2="16.5663" gradientUnits="userSpaceOnUse"><stop stop-color="#76717f" stop-opacity="0"></stop><stop offset=".245" stop-color="#3f404d" stop-opacity=".5"></stop><stop offset=".75" stop-color="#3f404d" stop-opacity=".5"></stop><stop offset="1" stop-color="#76717f" stop-opacity="0"></stop></linearGradient><linearGradient id="paint1_linear_5515_6956" x1=".126694e-4" y1="64.5" x2="237" y2="64.5663" gradientUnits="userSpaceOnUse"><stop stop-color="#76717f" stop-opacity="0"></stop><stop offset=".245" stop-color="#3f404d" stop-opacity=".5"></stop><stop offset=".75" stop-color="#3f404d" stop-opacity=".5"></stop><stop offset="1" stop-color="#76717f" stop-opacity="0"></stop></linearGradient><linearGradient id="paint2_linear_5515_6956" x1="20.5" y1=".435075e-5" x2="20.4921" y2="82" gradientUnits="userSpaceOnUse"><stop stop-color="#76717f" stop-opacity="0"></stop><stop offset=".245" stop-color="#3f404d" stop-opacity=".5"></stop><stop offset=".75" stop-color="#3f404d" stop-opacity=".5"></stop><stop offset="1" stop-color="#76717f" stop-opacity="0"></stop></linearGradient><linearGradient id="paint3_linear_5515_6956" x1="216.5" y1=".435075e-5" x2="216.492" y2="82" gradientUnits="userSpaceOnUse"><stop stop-color="#76717f" stop-opacity="0"></stop><stop offset=".245" stop-color="#3f404d" stop-opacity=".5"></stop><stop offset=".75" stop-color="#3f404d" stop-opacity=".5"></stop><stop offset="1" stop-color="#76717f" stop-opacity="0"></stop></linearGradient><linearGradient id="paint0_linear_5515_6956" x1=".126694e-4" y1="16.5" x2="237" y2="16.5663" gradientUnits="userSpaceOnUse"><stop stop-color="#76717f" stop-opacity="0"></stop><stop offset=".245" stop-color="#3f404d" stop-opacity=".5"></stop><stop offset=".75" stop-color="#3f404d" stop-opacity=".5"></stop><stop offset="1" stop-color="#76717f" stop-opacity="0"></stop></linearGradient><linearGradient id="paint1_linear_5515_6956" x1=".126694e-4" y1="64.5" x2="237" y2="64.5663" gradientUnits="userSpaceOnUse"><stop stop-color="#76717f" stop-opacity="0"></stop><stop offset=".245" stop-color="#3f404d" stop-opacity=".5"></stop><stop offset=".75" stop-color="#3f404d" stop-opacity=".5"></stop><stop offset="1" stop-color="#76717f" stop-opacity="0"></stop></linearGradient><linearGradient id="paint2_linear_5515_6956" x1="20.5" y1=".435075e-5" x2="20.4921" y2="82" gradientUnits="userSpaceOnUse"><stop stop-color="#76717f" stop-opacity="0"></stop><stop offset=".245" stop-color="#3f404d" stop-opacity=".5"></stop><stop offset=".75" stop-color="#3f404d" stop-opacity=".5"></stop><stop offset="1" stop-color="#76717f" stop-opacity="0"></stop></linearGradient><linearGradient id="paint3_linear_5515_6956" x1="216.5" y1=".435075e-5" x2="216.492" y2="82" gradientUnits="userSpaceOnUse"><stop stop-color="#76717f" stop-opacity="0"></stop><stop offset=".245" stop-color="#3f404d" stop-opacity=".5"></stop><stop offset=".75" stop-color="#3f404d" stop-opacity=".5"></stop><stop offset="1" stop-color="#76717f" stop-opacity="0"></stop></linearGradient><linearGradient id="paint0_linear_5515_6956" x1=".126694e-4" y1="16.5" x2="237" y2="16.5663" gradientUnits="userSpaceOnUse"><stop stop-color="#76717f" stop-opacity="0"></stop><stop offset=".245" stop-color="#3f404d" stop-opacity=".5"></stop><stop offset=".75" stop-color="#3f404d" stop-opacity=".5"></stop><stop offset="1" stop-color="#76717f" stop-opacity="0"></stop></linearGradient><linearGradient id="paint1_linear_5515_6956" x1=".126694e-4" y1="64.5" x2="237" y2="64.5663" gradientUnits="userSpaceOnUse"><stop stop-color="#76717f" stop-opacity="0"></stop><stop offset=".245" stop-color="#3f404d" stop-opacity=".5"></stop><stop offset=".75" stop-color="#3f404d" stop-opacity=".5"></stop><stop offset="1" stop-color="#76717f" stop-opacity="0"></stop></linearGradient><linearGradient id="paint2_linear_5515_6956" x1="20.5" y1=".435075e-5" x2="20.4921" y2="82" gradientUnits="userSpaceOnUse"><stop stop-color="#76717f" stop-opacity="0"></stop><stop offset=".245" stop-color="#3f404d" stop-opacity=".5"></stop><stop offset=".75" stop-color="#3f404d" stop-opacity=".5"></stop><stop offset="1" stop-color="#76717f" stop-opacity="0"></stop></linearGradient><linearGradient id="paint3_linear_5515_6956" x1="216.5" y1=".435075e-5" x2="216.492" y2="82" gradientUnits="userSpaceOnUse"><stop stop-color="#76717f" stop-opacity="0"></stop><stop offset=".245" stop-color="#3f404d" stop-opacity=".5"></stop><stop offset=".75" stop-color="#3f404d" stop-opacity=".5"></stop><stop offset="1" stop-color="#76717f" stop-opacity="0"></stop></linearGradient></defs></svg>