<svg xmlns:xlink="http://www.w3.org/1999/xlink" width="222" height="87" viewBox="0 0 222 87" fill="none" xmlns="http://www.w3.org/2000/svg"><g clip-path="url(#clip0_5515_6979)" fill="none"><rect x="21" y="17" width="180" height="41" rx="8" fill="#76717F" fill-opacity="0.06"></rect><rect x="21" y="67" width="39" height="3" rx="1.5" fill="oklch(0.575934 0.247012 287.24)"></rect><rect x="66" y="67" width="39" height="3" rx="1.5" fill="oklch(0.575934 0.247012 287.24)"></rect><rect x="111" y="67" width="39" height="3" rx="1.5" fill="oklch(0.575934 0.247012 287.24)" fill-opacity="0.1"></rect><rect x="156" y="67" width="39" height="3" rx="1.5" fill="oklch(0.575934 0.247012 287.24)" fill-opacity="0.1"></rect><path d="M39.868 40.625C39.868 41.399 39.781 42.05 39.607 42.578 39.439 43.1 39.133 43.499 38.689 43.775 38.245 44.045 37.612 44.18 36.79 44.18 36.358 44.18 35.929 44.135 35.503 44.045 35.083 43.961 34.786 43.892 34.612 43.838L34.693 41.804C34.873 41.858 35.08 41.924 35.314 42.002 35.548 42.074 35.821 42.11 36.133 42.11 36.733 42.11 37.138 41.948 37.348 41.624 37.564 41.3 37.672 40.769 37.672 40.031V30.986H39.868v9.639zm6.3541 3.555c-.887999999999998.0-1.662-.189-2.322-.567C43.2401 43.229 42.7271 42.68 42.3611 41.966 42.0011 41.252 41.8211 40.394 41.8211 39.392 41.8211 38.42 41.9951 37.568 42.3431 36.836 42.6971 36.104 43.2041 35.534 43.8641 35.126 44.5241 34.718 45.3131 34.514 46.2311 34.514 47.1191 34.514 47.8901 34.709 48.5441 35.099 49.1981 35.489 49.7021 36.047 50.0561 36.773 50.4161 37.499 50.5961 38.372 50.5961 39.392 50.5961 40.334 50.4251 41.165 50.0831 41.885 49.7471 42.599 49.2521 43.16 48.5981 43.568 47.9501 43.976 47.1581 44.18 46.2221 44.18zM46.2311 42.515C46.7351 42.515 47.1491 42.377 47.4731 42.101 47.8031 41.825 48.0461 41.447 48.2021 40.967 48.3641 40.487 48.4451 39.941 48.4451 39.329 48.4451 38.759 48.3731 38.234 48.2291 37.754 48.0911 37.274 47.8571 36.89 47.5271 36.602 47.2031 36.308 46.7711 36.161 46.2311 36.161 45.7211 36.161 45.2981 36.296 44.9621 36.566 44.6321 36.83 44.3831 37.202 44.2151 37.682 44.0531 38.156 43.9721 38.705 43.9721 39.329 43.9721 39.893 44.0441 40.418 44.1881 40.904 44.3381 41.384 44.5781 41.774 44.9081 42.074 45.2381 42.368 45.6791 42.515 46.2311 42.515zM52.5389 44V30.626h2.16v5.418C54.8489 35.81 55.0469 35.585 55.2929 35.369 55.5389 35.147 55.8389 34.967 56.1929 34.829 56.5529 34.685 56.9819 34.613 57.4799 34.613 58.0739 34.613 58.6169 34.727 59.1089 34.955 59.6009 35.183 59.9939 35.513 60.2879 35.945 60.5819 36.371 60.7289 36.881 60.7289 37.475V44H58.5329V37.844C58.5329 37.364 58.3619 36.992 58.0199 36.728 57.6839 36.464 57.2579 36.332 56.7419 36.332 56.3999 36.332 56.0729 36.392 55.7609 36.512S55.1969 36.812 55.0049 37.052C54.8189 37.286 54.7259 37.58 54.7259 37.934V44h-2.187zm10.5293.0V34.694h2.142v1.332C65.3542 35.786 65.5492 35.555 65.7952 35.333 66.0472 35.111 66.3562 34.931 66.7222 34.793S67.5172 34.586 68.0092 34.586C68.5852 34.586 69.1192 34.7 69.6112 34.928 70.1092 35.156 70.5082 35.513 70.8082 35.999 71.1142 36.485 71.2672 37.112 71.2672 37.88V44h-2.196V38.141C69.0712 37.529 68.9032 37.076 68.5672 36.782 68.2312 36.482 67.8082 36.332 67.2982 36.332 66.9502 36.332 66.6202 36.392 66.3082 36.512 65.9962 36.626 65.7412 36.803 65.5432 37.043 65.3512 37.277 65.2552 37.571 65.2552 37.925V44h-2.187zM84.181 44.621C83.695 45.005 83.086 45.326 82.354 45.584 81.622 45.848 80.806 45.98 79.906 45.98 78.838 45.98 77.881 45.809 77.035 45.467S75.472 44.651 74.884 44.045C74.296 43.445 73.846 42.749 73.534 41.957 73.228 41.165 73.075 40.319 73.075 39.419 73.075 38.471 73.243 37.577 73.579 36.737 73.915 35.891 74.395 35.144 75.019 34.496 75.649 33.842 76.402 33.332 77.278 32.966 78.154 32.594 79.135 32.408 80.221 32.408 81.001 32.408 81.763 32.516 82.507 32.732 83.257 32.948 83.932 33.284 84.532 33.74 85.132 34.196 85.609 34.781 85.963 35.495 86.323 36.203 86.503 37.052 86.503 38.042 86.503 38.936 86.356 39.725 86.062 40.409 85.768 41.087 85.36 41.618 84.838 42.002 84.322 42.386 83.731 42.578 83.065 42.578 82.573 42.578 82.198 42.494 81.94 42.326 81.688 42.158 81.514 41.951 81.418 41.705 81.382 41.627 81.349 41.591 81.319 41.597 81.295 41.597 81.256 41.63 81.202 41.696 80.944 42.02 80.614 42.29 80.212 42.506 79.816 42.722 79.354 42.83 78.826 42.83 78.346 42.83 77.908 42.704 77.512 42.452 77.122 42.194 76.81 41.831 76.576 41.363 76.348 40.895 76.234 40.349 76.234 39.725 76.234 38.999 76.378 38.327 76.666 37.709 76.96 37.091 77.368 36.596 77.89 36.224s1.131-.558 1.827-.558C80.209 35.666 80.608 35.759 80.914 35.945S81.472 36.365 81.67 36.647C81.7 36.677 81.727 36.689 81.751 36.683 81.781 36.671 81.799 36.638 81.805 36.584L81.931 36.116H83.263L82.606 40.049C82.528 40.505 82.546 40.82 82.66 40.994 82.774 41.168 82.957 41.255 83.209 41.255 83.533 41.255 83.836 41.138 84.118 40.904 84.4 40.664 84.628 40.313 84.802 39.851 84.982 39.389 85.072 38.822 85.072 38.15 85.072 37.328 84.934 36.632 84.658 36.062S84.01 35.033 83.542 34.685C83.08 34.337 82.558 34.085 81.976 33.929 81.4 33.773 80.812 33.695 80.212 33.695 79.264 33.695 78.433 33.845 77.719 34.145 77.005 34.445 76.411 34.859 75.937 35.387 75.469 35.915 75.115 36.524 74.875 37.214 74.641 37.904 74.524 38.636 74.524 39.41 74.524 40.208 74.65 40.934 74.902 41.588 75.154 42.242 75.523 42.806 76.009 43.28 76.495 43.754 77.086 44.117 77.782 44.369 78.484 44.627 79.285 44.756 80.185 44.756 80.725 44.756 81.181 44.705 81.553 44.603 81.931 44.507 82.267 44.375 82.561 44.207 82.855 44.039 83.152 43.856 83.452 43.658L84.181 44.621zm-6.309-5.04C77.872 40.115 77.983 40.556 78.205 40.904 78.433 41.252 78.766 41.426 79.204 41.426 79.558 41.426 79.882 41.321 80.176 41.111 80.476 40.901 80.719 40.625 80.905 40.283 81.097 39.935 81.214 39.566 81.256 39.176 81.304 38.738 81.268 38.363 81.148 38.051 81.028 37.733 80.851 37.49 80.617 37.322 80.389 37.148 80.128 37.061 79.834 37.061 79.462 37.061 79.126 37.175 78.826 37.403 78.532 37.631 78.298 37.934 78.124 38.312 77.956 38.69 77.872 39.113 77.872 39.581zm10.9999-8.595C88.9259 30.986 89.0849 30.986 89.3489 30.986S89.9249 30.986 90.2849 30.986C90.6509 30.986 91.0199 30.989 91.3919 30.995 91.7699 30.995 92.0969 30.998 92.3729 31.004 93.9569 31.034 95.2439 31.307 96.2339 31.823 97.2299 32.333 97.9589 33.062 98.4209 34.01 98.8889 34.952 99.1229 36.089 99.1229 37.421c0 1.392-.248999999999995 2.577-.747 3.555C97.8839 41.954 97.1279 42.704 96.1079 43.226 95.0939 43.742 93.8039 44 92.2379 44h-3.366V30.986zm2.223 1.809v9.396h1.179C93.1679 42.191 93.9569 42.038 94.6409 41.732 95.3249 41.42 95.8589 40.916 96.2429 40.22 96.6329 39.524 96.8279 38.594 96.8279 37.43 96.8279 36.302 96.6479 35.399 96.2879 34.721 95.9279 34.043 95.4119 33.554 94.7399 33.254 94.0679 32.948 93.2639 32.795 92.3279 32.795h-1.233zM105.144 44.18C104.256 44.18 103.482 43.991 102.822 43.613 102.162 43.229 101.649 42.68 101.283 41.966 100.923 41.252 100.743 40.394 100.743 39.392 100.743 38.42 100.917 37.568 101.265 36.836 101.619 36.104 102.126 35.534 102.786 35.126 103.446 34.718 104.235 34.514 105.153 34.514 106.041 34.514 106.812 34.709 107.466 35.099 108.12 35.489 108.624 36.047 108.978 36.773 109.338 37.499 109.518 38.372 109.518 39.392 109.518 40.334 109.347 41.165 109.005 41.885 108.669 42.599 108.174 43.16 107.52 43.568 106.872 43.976 106.08 44.18 105.144 44.18zM105.153 42.515C105.657 42.515 106.071 42.377 106.395 42.101 106.725 41.825 106.968 41.447 107.124 40.967 107.286 40.487 107.367 39.941 107.367 39.329 107.367 38.759 107.295 38.234 107.151 37.754 107.013 37.274 106.779 36.89 106.449 36.602 106.125 36.308 105.693 36.161 105.153 36.161 104.643 36.161 104.22 36.296 103.884 36.566 103.554 36.83 103.305 37.202 103.137 37.682 102.975 38.156 102.894 38.705 102.894 39.329 102.894 39.893 102.966 40.418 103.11 40.904 103.26 41.384 103.5 41.774 103.83 42.074 104.16 42.368 104.601 42.515 105.153 42.515zm8.027-2.664C113.174 40.379 113.258 40.847 113.432 41.255 113.606 41.663 113.864 41.984 114.206 42.218 114.548 42.446 114.971 42.56 115.475 42.56 115.991 42.56 116.438 42.446 116.816 42.218 117.2 41.984 117.455 41.63 117.581 41.156H119.588C119.48 41.804 119.222 42.353 118.814 42.803 118.406 43.253 117.911 43.595 117.329 43.829 116.753 44.063 116.153 44.18 115.529 44.18 114.629 44.18 113.837 43.991 113.153 43.613 112.475 43.229 111.944 42.683 111.56 41.975 111.182 41.267 110.993 40.424 110.993 39.446 110.993 38.492 111.167 37.646 111.515 36.908 111.863 36.164 112.364 35.579 113.018 35.153 113.678 34.727 114.47 34.514 115.394 34.514 116.312 34.514 117.083 34.709 117.707 35.099 118.337 35.489 118.811 36.035 119.129 36.737 119.453 37.433 119.615 38.249 119.615 39.185V39.851H113.18zm0-1.359h4.365C117.545 38.042 117.467 37.637 117.311 37.277 117.155 36.911 116.915 36.623 116.591 36.413 116.273 36.197 115.871 36.089 115.385 36.089 114.905 36.089 114.5 36.206 114.17 36.44 113.84 36.674 113.591 36.977 113.423 37.349 113.255 37.715 113.174 38.096 113.18 38.492zM123.627 44V33.974H121.215V32.669C121.977 32.669 122.58 32.606 123.024 32.48 123.474 32.348 123.801 32.156 124.005 31.904 124.215 31.652 124.335 31.346 124.365 30.986h1.494V44h-2.232zm5.39.0V42.83 42.227C129.017 41.561 129.14 40.988 129.386 40.508 129.632 40.022 129.959 39.599 130.367 39.239 130.775 38.879 131.222 38.561 131.708 38.285 132.2 38.003 132.686 37.739 133.166 37.493 133.652 37.241 134.099 36.983 134.507 36.719 134.915 36.449 135.242 36.149 135.488 35.819 135.74 35.489 135.866 35.096 135.866 34.64 135.866 34.058 135.659 33.584 135.245 33.218 134.837 32.846 134.282 32.66 133.58 32.66 132.836 32.66 132.221 32.873 131.735 33.299 131.255 33.725 130.97 34.325 130.88 35.099h-2.124C128.768 34.307 128.957 33.587 129.323 32.939 129.689 32.291 130.232 31.775 130.952 31.391 131.672 31.001 132.569 30.806 133.643 30.806 134.573 30.806 135.374 30.968 136.046 31.292 136.724 31.61 137.246 32.057 137.612 32.633 137.984 33.203 138.17 33.869 138.17 34.631 138.17 35.297 138.047 35.867 137.801 36.341 137.561 36.815 137.24 37.226 136.838 37.574 136.442 37.916 136.004 38.219 135.524 38.483 135.05 38.747 134.573 38.996 134.093 39.23 133.619 39.458 133.181 39.698 132.779 39.95 132.383 40.196 132.062 40.478 131.816 40.796 131.576 41.114 131.456 41.495 131.456 41.939v.189H138.197V44H129.017zm10.992-9.108C140.009 34.004 140.222 33.257 140.648 32.651 141.074 32.039 141.644 31.58 142.358 31.274 143.078 30.962 143.876 30.806 144.752 30.806 145.694 30.806 146.528 30.935 147.254 31.193 147.986 31.445 148.559 31.826 148.973 32.336 149.393 32.846 149.603 33.479 149.603 34.235 149.603 34.877 149.408 35.45 149.018 35.954 148.628 36.458 148.013 36.854 147.173 37.142 147.695 37.286 148.163 37.502 148.577 37.79 148.991 38.072 149.318 38.426 149.558 38.852 149.804 39.278 149.927 39.779 149.927 40.355 149.927 40.973 149.792 41.522 149.522 42.002 149.258 42.482 148.886 42.887 148.406 43.217 147.932 43.541 147.377 43.787 146.741 43.955 146.105 44.117 145.421 44.198 144.689 44.198 143.711 44.192 142.868 44.024 142.16 43.694 141.452 43.364 140.9 42.893 140.504 42.281 140.114 41.669 139.91 40.943 139.892 40.103H142.025C142.151 40.877 142.457 41.453 142.943 41.831c.49199999999999.372 1.089.558 1.791.558C145.316 42.389 145.82 42.302 146.246 42.128 146.672 41.948 146.999 41.702 147.227 41.39 147.461 41.078 147.578 40.715 147.578 40.301 147.578 39.863 147.452 39.488 147.2 39.176 146.954 38.864 146.615 38.624 146.183 38.456 145.751 38.288 145.265 38.198 144.725 38.186L143.519 38.15V36.368L144.635 36.323C145.151 36.305 145.604 36.206 145.994 36.026 146.39 35.846 146.699 35.609 146.921 35.315 147.143 35.021 147.254 34.691 147.254 34.325 147.254 33.989 147.149 33.686 146.939 33.416 146.735 33.146 146.444 32.936 146.066 32.786 145.688 32.63 145.241 32.552 144.725 32.552 144.287 32.552 143.876 32.63 143.492 32.786 143.108 32.942 142.79 33.194 142.538 33.542 142.292 33.884 142.157 34.334 142.133 34.892H140.009zm17.487-3.906h2.178V39.05H161.753v1.863H159.674V44H157.55L157.559 40.913H151.502V39.05l5.994-8.064zM153.554 39.05H157.541V33.704L153.554 39.05z" fill="#76717F" fill-opacity="0.3"></path><path d="M223 17H.244379e-5" stroke="url(&quot;#paint0_linear_5515_6979&quot;)" stroke-opacity="0.4" fill="none"></path><path d="M223 70H.244379e-5" stroke="url(&quot;#paint1_linear_5515_6979&quot;)" stroke-opacity="0.4" fill="none"></path><path d="M20 87V-2563e-9" stroke="url(&quot;#paint2_linear_5515_6979&quot;)" stroke-opacity="0.4" fill="none"></path><path d="M201 87V-2563e-9" stroke="url(&quot;#paint3_linear_5515_6979&quot;)" stroke-opacity="0.4" fill="none"></path></g><defs><linearGradient id="paint0_linear_5515_6979" x1="11921e-9" y1="16.5" x2="223" y2="16.5587" gradientUnits="userSpaceOnUse"><stop stop-color="#76717f" stop-opacity="0"></stop><stop offset=".245" stop-color="#3f404d" stop-opacity=".5"></stop><stop offset=".75" stop-color="#3f404d" stop-opacity=".5"></stop><stop offset="1" stop-color="#76717f" stop-opacity="0"></stop></linearGradient><linearGradient id="paint1_linear_5515_6979" x1="11921e-9" y1="69.5" x2="223" y2="69.5587" gradientUnits="userSpaceOnUse"><stop stop-color="#76717f" stop-opacity="0"></stop><stop offset=".245" stop-color="#3f404d" stop-opacity=".5"></stop><stop offset=".75" stop-color="#3f404d" stop-opacity=".5"></stop><stop offset="1" stop-color="#76717f" stop-opacity="0"></stop></linearGradient><linearGradient id="paint2_linear_5515_6979" x1="20.5" y1=".461604e-5" x2="20.4911" y2="87.0001" gradientUnits="userSpaceOnUse"><stop stop-color="#76717f" stop-opacity="0"></stop><stop offset=".245" stop-color="#3f404d" stop-opacity=".5"></stop><stop offset=".75" stop-color="#3f404d" stop-opacity=".5"></stop><stop offset="1" stop-color="#76717f" stop-opacity="0"></stop></linearGradient><linearGradient id="paint3_linear_5515_6979" x1="201.5" y1=".461604e-5" x2="201.491" y2="87.0001" gradientUnits="userSpaceOnUse"><stop stop-color="#76717f" stop-opacity="0"></stop><stop offset=".245" stop-color="#3f404d" stop-opacity=".5"></stop><stop offset=".75" stop-color="#3f404d" stop-opacity=".5"></stop><stop offset="1" stop-color="#76717f" stop-opacity="0"></stop></linearGradient><clipPath id="clip0_5515_6979"><rect width="222" height="87" fill="#fff"></rect></clipPath><linearGradient id="paint0_linear_5515_6979" x1="11921e-9" y1="16.5" x2="223" y2="16.5587" gradientUnits="userSpaceOnUse"><stop stop-color="#76717f" stop-opacity="0"></stop><stop offset=".245" stop-color="#3f404d" stop-opacity=".5"></stop><stop offset=".75" stop-color="#3f404d" stop-opacity=".5"></stop><stop offset="1" stop-color="#76717f" stop-opacity="0"></stop></linearGradient><linearGradient id="paint1_linear_5515_6979" x1="11921e-9" y1="69.5" x2="223" y2="69.5587" gradientUnits="userSpaceOnUse"><stop stop-color="#76717f" stop-opacity="0"></stop><stop offset=".245" stop-color="#3f404d" stop-opacity=".5"></stop><stop offset=".75" stop-color="#3f404d" stop-opacity=".5"></stop><stop offset="1" stop-color="#76717f" stop-opacity="0"></stop></linearGradient><linearGradient id="paint2_linear_5515_6979" x1="20.5" y1=".461604e-5" x2="20.4911" y2="87.0001" gradientUnits="userSpaceOnUse"><stop stop-color="#76717f" stop-opacity="0"></stop><stop offset=".245" stop-color="#3f404d" stop-opacity=".5"></stop><stop offset=".75" stop-color="#3f404d" stop-opacity=".5"></stop><stop offset="1" stop-color="#76717f" stop-opacity="0"></stop></linearGradient><linearGradient id="paint3_linear_5515_6979" x1="201.5" y1=".461604e-5" x2="201.491" y2="87.0001" gradientUnits="userSpaceOnUse"><stop stop-color="#76717f" stop-opacity="0"></stop><stop offset=".245" stop-color="#3f404d" stop-opacity=".5"></stop><stop offset=".75" stop-color="#3f404d" stop-opacity=".5"></stop><stop offset="1" stop-color="#76717f" stop-opacity="0"></stop></linearGradient><linearGradient id="paint0_linear_5515_6979" x1="11921e-9" y1="16.5" x2="223" y2="16.5587" gradientUnits="userSpaceOnUse"><stop stop-color="#76717f" stop-opacity="0"></stop><stop offset=".245" stop-color="#3f404d" stop-opacity=".5"></stop><stop offset=".75" stop-color="#3f404d" stop-opacity=".5"></stop><stop offset="1" stop-color="#76717f" stop-opacity="0"></stop></linearGradient><linearGradient id="paint1_linear_5515_6979" x1="11921e-9" y1="69.5" x2="223" y2="69.5587" gradientUnits="userSpaceOnUse"><stop stop-color="#76717f" stop-opacity="0"></stop><stop offset=".245" stop-color="#3f404d" stop-opacity=".5"></stop><stop offset=".75" stop-color="#3f404d" stop-opacity=".5"></stop><stop offset="1" stop-color="#76717f" stop-opacity="0"></stop></linearGradient><linearGradient id="paint2_linear_5515_6979" x1="20.5" y1=".461604e-5" x2="20.4911" y2="87.0001" gradientUnits="userSpaceOnUse"><stop stop-color="#76717f" stop-opacity="0"></stop><stop offset=".245" stop-color="#3f404d" stop-opacity=".5"></stop><stop offset=".75" stop-color="#3f404d" stop-opacity=".5"></stop><stop offset="1" stop-color="#76717f" stop-opacity="0"></stop></linearGradient><linearGradient id="paint3_linear_5515_6979" x1="201.5" y1=".461604e-5" x2="201.491" y2="87.0001" gradientUnits="userSpaceOnUse"><stop stop-color="#76717f" stop-opacity="0"></stop><stop offset=".245" stop-color="#3f404d" stop-opacity=".5"></stop><stop offset=".75" stop-color="#3f404d" stop-opacity=".5"></stop><stop offset="1" stop-color="#76717f" stop-opacity="0"></stop></linearGradient><linearGradient id="paint0_linear_5515_6979" x1="11921e-9" y1="16.5" x2="223" y2="16.5587" gradientUnits="userSpaceOnUse"><stop stop-color="#76717f" stop-opacity="0"></stop><stop offset=".245" stop-color="#3f404d" stop-opacity=".5"></stop><stop offset=".75" stop-color="#3f404d" stop-opacity=".5"></stop><stop offset="1" stop-color="#76717f" stop-opacity="0"></stop></linearGradient><linearGradient id="paint1_linear_5515_6979" x1="11921e-9" y1="69.5" x2="223" y2="69.5587" gradientUnits="userSpaceOnUse"><stop stop-color="#76717f" stop-opacity="0"></stop><stop offset=".245" stop-color="#3f404d" stop-opacity=".5"></stop><stop offset=".75" stop-color="#3f404d" stop-opacity=".5"></stop><stop offset="1" stop-color="#76717f" stop-opacity="0"></stop></linearGradient><linearGradient id="paint2_linear_5515_6979" x1="20.5" y1=".461604e-5" x2="20.4911" y2="87.0001" gradientUnits="userSpaceOnUse"><stop stop-color="#76717f" stop-opacity="0"></stop><stop offset=".245" stop-color="#3f404d" stop-opacity=".5"></stop><stop offset=".75" stop-color="#3f404d" stop-opacity=".5"></stop><stop offset="1" stop-color="#76717f" stop-opacity="0"></stop></linearGradient><linearGradient id="paint3_linear_5515_6979" x1="201.5" y1=".461604e-5" x2="201.491" y2="87.0001" gradientUnits="userSpaceOnUse"><stop stop-color="#76717f" stop-opacity="0"></stop><stop offset=".245" stop-color="#3f404d" stop-opacity=".5"></stop><stop offset=".75" stop-color="#3f404d" stop-opacity=".5"></stop><stop offset="1" stop-color="#76717f" stop-opacity="0"></stop></linearGradient></defs></svg>