<svg xmlns:xlink="http://www.w3.org/1999/xlink" width="81" height="67" viewBox="0 0 81 67" fill="none" xmlns="http://www.w3.org/2000/svg"><g clip-path="url(#clip0_5515_5634)" fill="none"><path d="M81 12H-.330806e-5" stroke="url(&quot;#paint0_linear_5515_5634&quot;)" stroke-opacity="0.4" fill="none"></path><path d="M81 53H-.330806e-5" stroke="url(&quot;#paint1_linear_5515_5634&quot;)" stroke-opacity="0.4" fill="none"></path><path d="M17 67V.89407e-6" stroke="url(&quot;#paint2_linear_5515_5634&quot;)" stroke-opacity="0.4" fill="none"></path><path d="M65 66V-.999999" stroke="url(&quot;#paint3_linear_5515_5634&quot;)" stroke-opacity="0.4" fill="none"></path><path d="M26.75 18.75l28.5 28.5" stroke="oklch(0.575934 0.247012 287.24)" stroke-width="2px" stroke-linecap="round" stroke-linejoin="round" fill="none"></path><path d="M48.9167 41.9167c.552300000000003.0 1-.447800000000001 1-1 0-.552299999999995-.447699999999998-1-1-1v2zm-20.5833-1L27.8406 40.0465C27.4454 40.2703 27.2507 40.7323 27.3664 41.1714 27.4821 41.6106 27.8792 41.9167 28.3334 41.9167v-1zm3.1666-4.75L32.4928 36.2868C32.4976 36.247 32.5 36.2068 32.5 36.1667h-1zm0-4.75L30.5011 31.3697C30.5004 31.3854 30.5 31.401 30.5 31.4167h1zm2.8413-5.3059C34.6604 25.66 34.5537 25.0359 34.1029 24.7168 33.6522 24.3977 33.028 24.5044 32.7089 24.9552l1.6324 1.1556zm1.9453-4.4946C35.8146 21.903 35.6645 22.5182 35.9513 22.9901 36.2381 23.4621 36.8532 23.6122 37.3252 23.3254l-1.0386-1.7092zm1.5469.3005L38.2612 22.8206C38.6107 22.6552 38.8335 22.3033 38.8335 21.9167h-1zm6.3333.0h-1C43.1668 22.3034 43.3898 22.6554 43.7394 22.8207L44.1668 21.9167zm6.3334 9.5h1C51.5002 31.401 51.4998 31.3854 51.4991 31.3698L50.5002 31.4167zm-1 4.75c0 .552300000000003.447699999999998 1 1 1 .552199999999999.0 1-.447699999999998 1-1h-2zM48.9167 39.9167H28.3334v2H48.9167v-2zM28.8261 41.7868c2.0261-1.1473 3.3869-3.1885 3.6667-5.5L30.5073 36.0465C30.3038 37.7276 29.3141 39.2121 27.8406 40.0465L28.8261 41.7868zM32.5 36.1667v-4.75h-2v4.75h2zM32.4989 31.4636C32.5893 29.54 33.2286 27.6825 34.3413 26.1108l-1.6324-1.1556c-1.3333 1.8835-2.0994 4.1094-2.2078 6.4145L32.4989 31.4636zm4.8263-8.1382C37.6277 23.1416 37.9392 22.973 38.2612 22.8206L37.4058 21.0128C37.0185 21.196 36.646 21.3979 36.2866 21.6162l1.0386 1.7092zm1.5083-1.4087C38.8335 20.72 39.8035 19.75 41.0002 19.75v-2c-2.3012.0-4.1667 1.8655-4.1667 4.1667h2zM41.0002 19.75C42.1968 19.75 43.1668 20.72 43.1668 21.9167h2c0-2.3012-1.8655-4.1667-4.1666-4.1667v2zm2.7392 3.0707c3.3709 1.594 5.587 4.9181 5.7619 8.6429L51.4991 31.3698C51.2896 26.9063 48.6339 22.9228 44.5943 21.0126L43.7394 22.8207zm5.7608 8.596v4.75h2v-4.75h-2z" fill="oklch(0.575934 0.247012 287.24)"></path><path d="M36.25 40.9167V42.5c0 2.6233 2.1266 4.75 4.75 4.75s4.75-2.1267 4.75-4.75V40.9167" stroke="oklch(0.575934 0.247012 287.24)" stroke-width="2px" stroke-linecap="round" stroke-linejoin="round" fill="none"></path></g><defs><linearGradient id="paint0_linear_5515_5634" x1=".433004e-5" y1="11.5" x2="81" y2="11.5077" gradientUnits="userSpaceOnUse"><stop stop-color="#76717f" stop-opacity="0"></stop><stop offset=".245" stop-color="#3f404d" stop-opacity=".5"></stop><stop offset=".75" stop-color="#3f404d" stop-opacity=".5"></stop><stop offset="1" stop-color="#76717f" stop-opacity="0"></stop></linearGradient><linearGradient id="paint1_linear_5515_5634" x1=".433004e-5" y1="52.5" x2="81" y2="52.5077" gradientUnits="userSpaceOnUse"><stop stop-color="#76717f" stop-opacity="0"></stop><stop offset=".245" stop-color="#3f404d" stop-opacity=".5"></stop><stop offset=".75" stop-color="#3f404d" stop-opacity=".5"></stop><stop offset="1" stop-color="#76717f" stop-opacity="0"></stop></linearGradient><linearGradient id="paint2_linear_5515_5634" x1="17.5" y1=".358459e-5" x2="17.4947" y2="67" gradientUnits="userSpaceOnUse"><stop stop-color="#76717f" stop-opacity="0"></stop><stop offset=".245" stop-color="#3f404d" stop-opacity=".5"></stop><stop offset=".75" stop-color="#3f404d" stop-opacity=".5"></stop><stop offset="1" stop-color="#76717f" stop-opacity="0"></stop></linearGradient><linearGradient id="paint3_linear_5515_5634" x1="65.5" y1="-.999996" x2="65.4947" y2="66" gradientUnits="userSpaceOnUse"><stop stop-color="#76717f" stop-opacity="0"></stop><stop offset=".245" stop-color="#3f404d" stop-opacity=".5"></stop><stop offset=".75" stop-color="#3f404d" stop-opacity=".5"></stop><stop offset="1" stop-color="#76717f" stop-opacity="0"></stop></linearGradient><clipPath id="clip0_5515_5634"><rect width="81" height="67" fill="#fff"></rect></clipPath><linearGradient id="paint0_linear_5515_5634" x1=".433004e-5" y1="11.5" x2="81" y2="11.5077" gradientUnits="userSpaceOnUse"><stop stop-color="#76717f" stop-opacity="0"></stop><stop offset=".245" stop-color="#3f404d" stop-opacity=".5"></stop><stop offset=".75" stop-color="#3f404d" stop-opacity=".5"></stop><stop offset="1" stop-color="#76717f" stop-opacity="0"></stop></linearGradient><linearGradient id="paint1_linear_5515_5634" x1=".433004e-5" y1="52.5" x2="81" y2="52.5077" gradientUnits="userSpaceOnUse"><stop stop-color="#76717f" stop-opacity="0"></stop><stop offset=".245" stop-color="#3f404d" stop-opacity=".5"></stop><stop offset=".75" stop-color="#3f404d" stop-opacity=".5"></stop><stop offset="1" stop-color="#76717f" stop-opacity="0"></stop></linearGradient><linearGradient id="paint2_linear_5515_5634" x1="17.5" y1=".358459e-5" x2="17.4947" y2="67" gradientUnits="userSpaceOnUse"><stop stop-color="#76717f" stop-opacity="0"></stop><stop offset=".245" stop-color="#3f404d" stop-opacity=".5"></stop><stop offset=".75" stop-color="#3f404d" stop-opacity=".5"></stop><stop offset="1" stop-color="#76717f" stop-opacity="0"></stop></linearGradient><linearGradient id="paint3_linear_5515_5634" x1="65.5" y1="-.999996" x2="65.4947" y2="66" gradientUnits="userSpaceOnUse"><stop stop-color="#76717f" stop-opacity="0"></stop><stop offset=".245" stop-color="#3f404d" stop-opacity=".5"></stop><stop offset=".75" stop-color="#3f404d" stop-opacity=".5"></stop><stop offset="1" stop-color="#76717f" stop-opacity="0"></stop></linearGradient><linearGradient id="paint0_linear_5515_5634" x1=".433004e-5" y1="11.5" x2="81" y2="11.5077" gradientUnits="userSpaceOnUse"><stop stop-color="#76717f" stop-opacity="0"></stop><stop offset=".245" stop-color="#3f404d" stop-opacity=".5"></stop><stop offset=".75" stop-color="#3f404d" stop-opacity=".5"></stop><stop offset="1" stop-color="#76717f" stop-opacity="0"></stop></linearGradient><linearGradient id="paint1_linear_5515_5634" x1=".433004e-5" y1="52.5" x2="81" y2="52.5077" gradientUnits="userSpaceOnUse"><stop stop-color="#76717f" stop-opacity="0"></stop><stop offset=".245" stop-color="#3f404d" stop-opacity=".5"></stop><stop offset=".75" stop-color="#3f404d" stop-opacity=".5"></stop><stop offset="1" stop-color="#76717f" stop-opacity="0"></stop></linearGradient><linearGradient id="paint2_linear_5515_5634" x1="17.5" y1=".358459e-5" x2="17.4947" y2="67" gradientUnits="userSpaceOnUse"><stop stop-color="#76717f" stop-opacity="0"></stop><stop offset=".245" stop-color="#3f404d" stop-opacity=".5"></stop><stop offset=".75" stop-color="#3f404d" stop-opacity=".5"></stop><stop offset="1" stop-color="#76717f" stop-opacity="0"></stop></linearGradient><linearGradient id="paint3_linear_5515_5634" x1="65.5" y1="-.999996" x2="65.4947" y2="66" gradientUnits="userSpaceOnUse"><stop stop-color="#76717f" stop-opacity="0"></stop><stop offset=".245" stop-color="#3f404d" stop-opacity=".5"></stop><stop offset=".75" stop-color="#3f404d" stop-opacity=".5"></stop><stop offset="1" stop-color="#76717f" stop-opacity="0"></stop></linearGradient><linearGradient id="paint0_linear_5515_5634" x1=".433004e-5" y1="11.5" x2="81" y2="11.5077" gradientUnits="userSpaceOnUse"><stop stop-color="#76717f" stop-opacity="0"></stop><stop offset=".245" stop-color="#3f404d" stop-opacity=".5"></stop><stop offset=".75" stop-color="#3f404d" stop-opacity=".5"></stop><stop offset="1" stop-color="#76717f" stop-opacity="0"></stop></linearGradient><linearGradient id="paint1_linear_5515_5634" x1=".433004e-5" y1="52.5" x2="81" y2="52.5077" gradientUnits="userSpaceOnUse"><stop stop-color="#76717f" stop-opacity="0"></stop><stop offset=".245" stop-color="#3f404d" stop-opacity=".5"></stop><stop offset=".75" stop-color="#3f404d" stop-opacity=".5"></stop><stop offset="1" stop-color="#76717f" stop-opacity="0"></stop></linearGradient><linearGradient id="paint2_linear_5515_5634" x1="17.5" y1=".358459e-5" x2="17.4947" y2="67" gradientUnits="userSpaceOnUse"><stop stop-color="#76717f" stop-opacity="0"></stop><stop offset=".245" stop-color="#3f404d" stop-opacity=".5"></stop><stop offset=".75" stop-color="#3f404d" stop-opacity=".5"></stop><stop offset="1" stop-color="#76717f" stop-opacity="0"></stop></linearGradient><linearGradient id="paint3_linear_5515_5634" x1="65.5" y1="-.999996" x2="65.4947" y2="66" gradientUnits="userSpaceOnUse"><stop stop-color="#76717f" stop-opacity="0"></stop><stop offset=".245" stop-color="#3f404d" stop-opacity=".5"></stop><stop offset=".75" stop-color="#3f404d" stop-opacity=".5"></stop><stop offset="1" stop-color="#76717f" stop-opacity="0"></stop></linearGradient></defs></svg>