<svg xmlns:xlink="http://www.w3.org/1999/xlink" width="223" height="82" viewBox="0 0 223 82" fill="none" xmlns="http://www.w3.org/2000/svg"><g clip-path="url(#clip0_5515_7036)" fill="none"><rect x="21" y="17" width="180" height="48" rx="8" fill="#76717F" fill-opacity="0.06"></rect><path d="M41.567 46.223l-1.771-2.904-1.804 2.959-1.485-1.034 2.178-2.651L35.605 41.735 36.188 40.129l2.926 1.232L38.883 38.094h1.826l-.253 3.278 2.97-1.298L43.943 41.68 40.94 42.582l2.134 2.585-1.507 1.056zm9.6035.0L49.3995 43.319l-1.804 2.959-1.485-1.034 2.178-2.651L45.2085 41.735 45.7915 40.129l2.926 1.232L48.4865 38.094h1.826l-.253 3.278 2.97-1.298L53.5465 41.68 50.5435 42.582l2.134 2.585L51.1705 46.223zm9.6035.0-1.771-2.904-1.804 2.959-1.485-1.034 2.178-2.651L54.812 41.735 55.395 40.129l2.926 1.232L58.09 38.094H59.916l-.253 3.278L62.633 40.074 63.15 41.68 60.147 42.582l2.134 2.585-1.507 1.056zm9.6035.0-1.771-2.904-1.804 2.959-1.485-1.034L67.4955 42.593 64.4155 41.735 64.9985 40.129 67.9245 41.361 67.6935 38.094H69.5195l-.253 3.278L72.2365 40.074 72.7535 41.68 69.7505 42.582l2.134 2.585L70.3775 46.223zm9.6036.0-1.771-2.904-1.804 2.959-1.485-1.034L77.0991 42.593 74.0191 41.735 74.6021 40.129l2.926 1.232L77.2971 38.094H79.1231l-.253 3.278L81.8401 40.074 82.3571 41.68 79.3541 42.582l2.134 2.585L79.9811 46.223zm9.6035.0-1.771-2.904L86.0096 46.278l-1.485-1.034 2.178-2.651L83.6226 41.735 84.2056 40.129l2.926 1.232L86.9006 38.094H88.7266l-.253 3.278 2.97-1.298L91.9606 41.68 88.9576 42.582l2.134 2.585L89.5846 46.223zM99.1881 46.223l-1.771-2.904-1.804 2.959-1.485-1.034 2.178-2.651L93.2261 41.735 93.8091 40.129l2.926 1.232L96.5041 38.094H98.3301l-.253 3.278 2.9699-1.298L101.564 41.68 98.5611 42.582l2.1339 2.585L99.1881 46.223zm9.6039.0-1.771-2.904-1.804 2.959-1.485-1.034 2.178-2.651L102.83 41.735 103.413 40.129l2.926 1.232L106.108 38.094H107.934l-.253 3.278 2.97-1.298L111.168 41.68 108.165 42.582l2.134 2.585L108.792 46.223z" fill="#3F404D" fill-opacity="0.5"></path><path d="M170.5 33.5l15 15" stroke="oklch(0.575934 0.247012 287.24)" stroke-width="1.5px" stroke-linecap="round" stroke-linejoin="round" fill="none"></path><path d="M176.82 39.8225C176.169 40.4733 176.168 41.5288 176.819 42.18 177.47 42.8312 178.525 42.8316 179.177 42.1808" stroke="oklch(0.575934 0.247012 287.24)" stroke-width="1.5px" stroke-linecap="round" stroke-linejoin="round" fill="none"></path><path d="M175.596 34.7498C175.198 34.8637 174.967 35.2789 175.081 35.6771 175.195 36.0754 175.611 36.3058 176.009 36.1919L175.596 34.7498zM178 35.1667 177.997 35.9167H178v-.75zM186.333 41 186.984 41.3722C187.116 41.1416 187.116 40.8585 186.984 40.6279L186.333 41zm-2.636 2.3976C183.416 43.7018 183.434 44.1763 183.738 44.4574 184.043 44.7386 184.517 44.7199 184.798 44.4157l-1.101-1.0181zM182.883 46.0793C183.227 45.8477 183.318 45.3816 183.086 45.0381 182.854 44.6947 182.388 44.6041 182.045 44.8357L182.883 46.0793zM169.667 41 169.015 40.6278C168.884 40.8584 168.884 41.1415 169.015 41.3721L169.667 41zM173.948 37.1699C174.29 36.9373 174.38 36.471 174.147 36.1282 173.915 35.7854 173.448 35.696 173.106 35.9285L173.948 37.1699zM176.009 36.1919C176.655 36.007 177.325 35.9143 177.997 35.9167L178.003 34.4167C177.189 34.4138 176.379 34.5259 175.596 34.7498L176.009 36.1919zM178 35.9167C180.973 35.9167 183.541 37.6253 185.682 41.3721L186.984 40.6279C184.681 36.5964 181.693 34.4167 178 34.4167v1.5zM185.682 40.6278C185.057 41.7221 184.394 42.6432 183.697 43.3976l1.101 1.0181C185.586 43.5634 186.313 42.5462 186.984 41.3722L185.682 40.6278zm-3.637 4.2079C180.807 45.6702 179.466 46.0833 178 46.0833v1.5C179.77 47.5833 181.403 47.0781 182.883 46.0793L182.045 44.8357zM178 46.0833C175.027 46.0833 172.459 44.3747 170.318 40.6279L169.015 41.3721C171.319 45.4036 174.307 47.5833 178 47.5833v-1.5zM170.318 41.3722C171.42 39.4446 172.636 38.0599 173.948 37.1699L173.106 35.9285C171.553 36.9818 170.195 38.5638 169.015 40.6278L170.318 41.3722z" fill="oklch(0.575934 0.247012 287.24)"></path><path d="M223 17H.244379e-5" stroke="url(&quot;#paint0_linear_5515_7036&quot;)" stroke-opacity="0.4" fill="none"></path><path d="M223 65H.244379e-5" stroke="url(&quot;#paint1_linear_5515_7036&quot;)" stroke-opacity="0.4" fill="none"></path><path d="M20 82V-.169873e-5" stroke="url(&quot;#paint2_linear_5515_7036&quot;)" stroke-opacity="0.4" fill="none"></path><path d="M201 82V-.169873e-5" stroke="url(&quot;#paint3_linear_5515_7036&quot;)" stroke-opacity="0.4" fill="none"></path></g><defs><linearGradient id="paint0_linear_5515_7036" x1="11921e-9" y1="16.5" x2="223" y2="16.5587" gradientUnits="userSpaceOnUse"><stop stop-color="#76717f" stop-opacity="0"></stop><stop offset=".245" stop-color="#3f404d" stop-opacity=".5"></stop><stop offset=".75" stop-color="#3f404d" stop-opacity=".5"></stop><stop offset="1" stop-color="#76717f" stop-opacity="0"></stop></linearGradient><linearGradient id="paint1_linear_5515_7036" x1="11921e-9" y1="64.5" x2="223" y2="64.5587" gradientUnits="userSpaceOnUse"><stop stop-color="#76717f" stop-opacity="0"></stop><stop offset=".245" stop-color="#3f404d" stop-opacity=".5"></stop><stop offset=".75" stop-color="#3f404d" stop-opacity=".5"></stop><stop offset="1" stop-color="#76717f" stop-opacity="0"></stop></linearGradient><linearGradient id="paint2_linear_5515_7036" x1="20.5" y1=".435075e-5" x2="20.4921" y2="82" gradientUnits="userSpaceOnUse"><stop stop-color="#76717f" stop-opacity="0"></stop><stop offset=".245" stop-color="#3f404d" stop-opacity=".5"></stop><stop offset=".75" stop-color="#3f404d" stop-opacity=".5"></stop><stop offset="1" stop-color="#76717f" stop-opacity="0"></stop></linearGradient><linearGradient id="paint3_linear_5515_7036" x1="201.5" y1=".435075e-5" x2="201.492" y2="82" gradientUnits="userSpaceOnUse"><stop stop-color="#76717f" stop-opacity="0"></stop><stop offset=".245" stop-color="#3f404d" stop-opacity=".5"></stop><stop offset=".75" stop-color="#3f404d" stop-opacity=".5"></stop><stop offset="1" stop-color="#76717f" stop-opacity="0"></stop></linearGradient><clipPath id="clip0_5515_7036"><rect width="223" height="82" fill="#fff"></rect></clipPath><linearGradient id="paint0_linear_5515_7036" x1="11921e-9" y1="16.5" x2="223" y2="16.5587" gradientUnits="userSpaceOnUse"><stop stop-color="#76717f" stop-opacity="0"></stop><stop offset=".245" stop-color="#3f404d" stop-opacity=".5"></stop><stop offset=".75" stop-color="#3f404d" stop-opacity=".5"></stop><stop offset="1" stop-color="#76717f" stop-opacity="0"></stop></linearGradient><linearGradient id="paint1_linear_5515_7036" x1="11921e-9" y1="64.5" x2="223" y2="64.5587" gradientUnits="userSpaceOnUse"><stop stop-color="#76717f" stop-opacity="0"></stop><stop offset=".245" stop-color="#3f404d" stop-opacity=".5"></stop><stop offset=".75" stop-color="#3f404d" stop-opacity=".5"></stop><stop offset="1" stop-color="#76717f" stop-opacity="0"></stop></linearGradient><linearGradient id="paint2_linear_5515_7036" x1="20.5" y1=".435075e-5" x2="20.4921" y2="82" gradientUnits="userSpaceOnUse"><stop stop-color="#76717f" stop-opacity="0"></stop><stop offset=".245" stop-color="#3f404d" stop-opacity=".5"></stop><stop offset=".75" stop-color="#3f404d" stop-opacity=".5"></stop><stop offset="1" stop-color="#76717f" stop-opacity="0"></stop></linearGradient><linearGradient id="paint3_linear_5515_7036" x1="201.5" y1=".435075e-5" x2="201.492" y2="82" gradientUnits="userSpaceOnUse"><stop stop-color="#76717f" stop-opacity="0"></stop><stop offset=".245" stop-color="#3f404d" stop-opacity=".5"></stop><stop offset=".75" stop-color="#3f404d" stop-opacity=".5"></stop><stop offset="1" stop-color="#76717f" stop-opacity="0"></stop></linearGradient><linearGradient id="paint0_linear_5515_7036" x1="11921e-9" y1="16.5" x2="223" y2="16.5587" gradientUnits="userSpaceOnUse"><stop stop-color="#76717f" stop-opacity="0"></stop><stop offset=".245" stop-color="#3f404d" stop-opacity=".5"></stop><stop offset=".75" stop-color="#3f404d" stop-opacity=".5"></stop><stop offset="1" stop-color="#76717f" stop-opacity="0"></stop></linearGradient><linearGradient id="paint1_linear_5515_7036" x1="11921e-9" y1="64.5" x2="223" y2="64.5587" gradientUnits="userSpaceOnUse"><stop stop-color="#76717f" stop-opacity="0"></stop><stop offset=".245" stop-color="#3f404d" stop-opacity=".5"></stop><stop offset=".75" stop-color="#3f404d" stop-opacity=".5"></stop><stop offset="1" stop-color="#76717f" stop-opacity="0"></stop></linearGradient><linearGradient id="paint2_linear_5515_7036" x1="20.5" y1=".435075e-5" x2="20.4921" y2="82" gradientUnits="userSpaceOnUse"><stop stop-color="#76717f" stop-opacity="0"></stop><stop offset=".245" stop-color="#3f404d" stop-opacity=".5"></stop><stop offset=".75" stop-color="#3f404d" stop-opacity=".5"></stop><stop offset="1" stop-color="#76717f" stop-opacity="0"></stop></linearGradient><linearGradient id="paint3_linear_5515_7036" x1="201.5" y1=".435075e-5" x2="201.492" y2="82" gradientUnits="userSpaceOnUse"><stop stop-color="#76717f" stop-opacity="0"></stop><stop offset=".245" stop-color="#3f404d" stop-opacity=".5"></stop><stop offset=".75" stop-color="#3f404d" stop-opacity=".5"></stop><stop offset="1" stop-color="#76717f" stop-opacity="0"></stop></linearGradient><linearGradient id="paint0_linear_5515_7036" x1="11921e-9" y1="16.5" x2="223" y2="16.5587" gradientUnits="userSpaceOnUse"><stop stop-color="#76717f" stop-opacity="0"></stop><stop offset=".245" stop-color="#3f404d" stop-opacity=".5"></stop><stop offset=".75" stop-color="#3f404d" stop-opacity=".5"></stop><stop offset="1" stop-color="#76717f" stop-opacity="0"></stop></linearGradient><linearGradient id="paint1_linear_5515_7036" x1="11921e-9" y1="64.5" x2="223" y2="64.5587" gradientUnits="userSpaceOnUse"><stop stop-color="#76717f" stop-opacity="0"></stop><stop offset=".245" stop-color="#3f404d" stop-opacity=".5"></stop><stop offset=".75" stop-color="#3f404d" stop-opacity=".5"></stop><stop offset="1" stop-color="#76717f" stop-opacity="0"></stop></linearGradient><linearGradient id="paint2_linear_5515_7036" x1="20.5" y1=".435075e-5" x2="20.4921" y2="82" gradientUnits="userSpaceOnUse"><stop stop-color="#76717f" stop-opacity="0"></stop><stop offset=".245" stop-color="#3f404d" stop-opacity=".5"></stop><stop offset=".75" stop-color="#3f404d" stop-opacity=".5"></stop><stop offset="1" stop-color="#76717f" stop-opacity="0"></stop></linearGradient><linearGradient id="paint3_linear_5515_7036" x1="201.5" y1=".435075e-5" x2="201.492" y2="82" gradientUnits="userSpaceOnUse"><stop stop-color="#76717f" stop-opacity="0"></stop><stop offset=".245" stop-color="#3f404d" stop-opacity=".5"></stop><stop offset=".75" stop-color="#3f404d" stop-opacity=".5"></stop><stop offset="1" stop-color="#76717f" stop-opacity="0"></stop></linearGradient></defs></svg>