<svg version="1.2" xmlns="http://www.w3.org/2000/svg" viewBox="0 0 747 300" width="747" height="300">
	<title>hero</title>
	<defs>
		<clipPath clipPathUnits="userSpaceOnUse" id="cp1">
			<path d="m99.59 287.07h56.03v37.61h-56.03z"/>
		</clipPath>
		<clipPath clipPathUnits="userSpaceOnUse" id="cp2">
			<path d="m49.04 285.89h36.44v38.31h-36.44z"/>
		</clipPath>
		<clipPath clipPathUnits="userSpaceOnUse" id="cp3">
			<path d="m521.62 285.89h36.14v36.14h-36.14z"/>
		</clipPath>
		<linearGradient id="g1" x2="1" gradientUnits="userSpaceOnUse" gradientTransform="matrix(13.774,-6.55,5.951,12.515,135.821,57.341)">
			<stop offset="0" stop-color="#e40035"/>
			<stop offset=".2" stop-color="#f60a48"/>
			<stop offset=".4" stop-color="#f20755"/>
			<stop offset=".5" stop-color="#dc087d"/>
			<stop offset=".7" stop-color="#9717e7"/>
			<stop offset="1" stop-color="#6c00f5"/>
		</linearGradient>
		<linearGradient id="g2" x2="1" gradientUnits="userSpaceOnUse" gradientTransform="matrix(9.013,10.291,-10.653,9.33,135.196,42.892)">
			<stop offset="0" stop-color="#ff31d9" stop-opacity="1"/>
			<stop offset="1" stop-color="#ff5be1" stop-opacity="0"/>
		</linearGradient>
	</defs>
	<style>
		.s0 { opacity: .1;fill: #5952ef } 
		.s1 { fill: #6e6ac8 } 
		.s2 { opacity: .7;fill: #ffffff } 
		.s3 { fill: #111111 } 
		.s4 { fill: #6e67ff } 
		.s5 { fill: none;stroke: #6e67ff;stroke-linecap: round;stroke-linejoin: round;stroke-width: 2.6 } 
		.s6 { opacity: .1;fill: #d818d1 } 
		.s7 { fill: #be14bc } 
		.s8 { fill: #9015f0 } 
		.s9 { fill: #4945ff } 
		.s10 { fill: url(#g1) } 
		.s11 { fill: url(#g2) } 
		.s12 { fill: #ffffff } 
		.s13 { fill: #9593ff } 
	</style>
	<g id="Clip-Path" clip-path="url(#cp1)">
		<g>
		</g>
	</g>
	<g id="Clip-Path" clip-path="url(#cp2)">
		<g>
		</g>
	</g>
	<path fill-rule="evenodd" class="s0" d="m405.9 16.2h276.2c16.9 0 30.7 13.8 30.7 30.7v204.4c0 17-13.8 30.7-30.7 30.7h-276.2c-17 0-30.7-13.7-30.7-30.7v-204.4c0-16.9 13.7-30.7 30.7-30.7z"/>
	<path class="s1" d="m396.9 54.7v-12.9h5.1q1.3 0 2.1 0.5 0.9 0.6 1.3 1.4 0.4 0.8 0.4 1.7 0 1-0.5 1.8-0.5 0.7-1.4 1v-0.5q1.2 0.3 1.9 1.2 0.6 0.8 0.6 2 0 1.1-0.4 2-0.5 0.8-1.3 1.3-0.9 0.5-2.2 0.5zm2.2-2h3.2q0.6 0 1-0.3 0.5-0.2 0.7-0.6 0.3-0.4 0.3-1 0-0.5-0.3-0.9-0.2-0.4-0.6-0.7-0.4-0.2-1-0.2h-3.3zm0-5.7h2.9q0.5 0 0.8-0.2 0.4-0.2 0.6-0.6 0.2-0.3 0.2-0.8 0-0.7-0.4-1.1-0.4-0.5-1.2-0.5h-2.9zm11.8 8q-1 0-1.7-0.4-0.8-0.4-1.1-1-0.4-0.7-0.4-1.5 0-0.7 0.2-1.2 0.3-0.6 0.7-1 0.5-0.4 1.3-0.7 0.6-0.2 1.4-0.3 0.7-0.2 1.7-0.3 0.9-0.1 1.9-0.3l-0.8 0.5q0-1-0.4-1.5-0.5-0.5-1.6-0.5-0.6 0-1.2 0.3-0.6 0.3-0.9 1.1l-2-0.7q0.4-1.2 1.4-1.9 1-0.8 2.7-0.8 1.3 0 2.3 0.4 1 0.5 1.4 1.4 0.3 0.5 0.4 1.1 0 0.5 0 1.1v6h-1.9v-2.1l0.3 0.3q-0.6 1.1-1.5 1.6-0.9 0.4-2.2 0.4zm0.5-1.7q0.7 0 1.2-0.2 0.5-0.3 0.8-0.7 0.4-0.4 0.5-0.7 0.1-0.4 0.1-0.9 0.1-0.6 0.1-0.9l0.6 0.2q-0.9 0.2-1.6 0.3-0.7 0.1-1.2 0.2-0.5 0.1-0.9 0.2-0.4 0.2-0.7 0.3-0.2 0.2-0.4 0.4-0.1 0.3-0.1 0.6 0 0.3 0.2 0.6 0.2 0.3 0.5 0.5 0.4 0.1 0.9 0.1zm11.3 1.7q-1.4 0-2.5-0.6-1.1-0.7-1.6-1.9-0.6-1.1-0.6-2.6 0-1.5 0.6-2.6 0.6-1.2 1.6-1.8 1.1-0.7 2.6-0.7 1.6 0 2.8 0.9 1.1 0.8 1.5 2.2l-2.2 0.6q-0.2-0.8-0.8-1.2-0.6-0.4-1.4-0.4-0.8 0-1.3 0.4-0.6 0.3-0.8 1-0.3 0.7-0.3 1.6 0 1.4 0.6 2.3 0.6 0.8 1.8 0.8 0.9 0 1.4-0.4 0.5-0.4 0.8-1.1l2.2 0.5q-0.5 1.5-1.6 2.2-1.1 0.8-2.8 0.8zm6.1-0.2l0.1-12.9h2.1v7.9l3.6-4.7h2.7l-3.8 4.8 4.1 4.9h-2.9l-3.7-4.7v4.7zm13.9 0.2q-1.5 0-2.6-0.6-1.1-0.6-1.7-1.8-0.6-1.1-0.6-2.6 0-1.5 0.6-2.7 0.6-1.2 1.7-1.8 1.1-0.7 2.5-0.7 1.5 0 2.5 0.7 1.1 0.7 1.6 2 0.5 1.3 0.4 3h-2.1v-0.8q-0.1-1.5-0.6-2.3-0.5-0.7-1.7-0.7-1.3 0-2 0.8-0.6 0.9-0.6 2.4 0 1.5 0.6 2.3 0.7 0.8 1.9 0.8 0.8 0 1.4-0.3 0.5-0.4 0.9-1.1l2.1 0.7q-0.6 1.3-1.7 2-1.2 0.7-2.6 0.7zm-3.3-4.5v-1.6h6.6v1.6zm16.2 4.3v-4.7q0-0.4-0.1-1-0.1-0.6-0.3-1.1-0.2-0.5-0.7-0.8-0.4-0.3-1.2-0.3-0.4 0-0.8 0.1-0.4 0.1-0.7 0.5-0.4 0.3-0.6 0.8-0.2 0.6-0.2 1.5l-1.2-0.5q0-1.3 0.4-2.3 0.5-1 1.5-1.6 0.9-0.6 2.3-0.6 1 0 1.7 0.4 0.7 0.3 1.1 0.9 0.4 0.5 0.6 1.2 0.2 0.6 0.3 1.2 0.1 0.5 0.1 0.9v5.4zm-6.8 0v-9.7h2v3h0.2v6.7zm15 0.2q-1.3 0-2.3-0.6-1-0.7-1.6-1.9-0.5-1.1-0.5-2.6 0-1.4 0.5-2.6 0.6-1.1 1.6-1.8 1-0.7 2.4-0.7 1.3 0 2.3 0.7 0.9 0.7 1.4 1.8 0.5 1.2 0.5 2.6 0 1.5-0.5 2.6-0.5 1.2-1.4 1.9-1 0.6-2.4 0.6zm0.3-1.9q0.9 0 1.4-0.4 0.6-0.4 0.8-1.1 0.2-0.7 0.2-1.7 0-0.9-0.2-1.6-0.2-0.7-0.8-1.1-0.5-0.4-1.3-0.4-0.9 0-1.4 0.4-0.6 0.4-0.9 1.1-0.2 0.8-0.2 1.6 0 0.9 0.2 1.6 0.3 0.8 0.8 1.2 0.6 0.4 1.4 0.4zm2.4 1.7v-6.8h-0.2v-6.1h2.2v12.9zm12.2 0.2q-1 0-2-0.3-1-0.3-1.6-1-0.5-0.6-0.7-1.2-0.3-0.7-0.3-1.4 0-0.8 0.2-1.5 0.2-0.7 0.7-1.2 0.2-0.2 0.4-0.4 0.2-0.2 0.4-0.3-0.5-0.6-0.8-1.2-0.3-0.5-0.3-1.3 0-1.1 0.6-2 0.6-0.9 1.7-1.3 0.5-0.1 0.9-0.2 0.5-0.1 0.9-0.1 0.9 0 1.7 0.3 0.7 0.2 1.3 0.8 0.3 0.3 0.6 0.8 0.2 0.4 0.3 0.8l-2.1 0.5q-0.1-0.4-0.4-0.7-0.3-0.3-0.7-0.4-0.4 0-0.7 0-0.6 0-1 0.2-0.5 0.2-0.7 0.5-0.2 0.4-0.2 0.9 0 0.4 0.2 0.7 0.1 0.3 0.4 0.5 0.2 0.2 0.4 0.4 0.2 0.2 0.5 0.5l3.2 3q0-0.2 0-0.4 0-0.2 0-0.4v-1.6h1.9v2.3q0 0.5 0 1 0 0.4-0.1 0.7l1.6 1.5-1.4 1.5-1.2-1.2q-0.5 0.4-1 0.7-0.6 0.3-1.2 0.4-0.4 0.1-0.7 0.1-0.4 0-0.8 0zm0.1-2q0.3 0 0.5 0 0.3-0.1 0.5-0.1 0.3-0.1 0.6-0.3 0.2-0.1 0.4-0.3l-3.4-3.1q-0.3 0.1-0.4 0.2-0.2 0.2-0.4 0.3-0.1 0.3-0.2 0.6-0.1 0.3-0.1 0.6 0 0.4 0.1 0.8 0.1 0.3 0.3 0.5 0.4 0.4 1 0.6 0.6 0.2 1.1 0.2zm10.3 1.8l4.1-12.9h3.2l4 12.9h-2.2l-3.7-11.6h0.5l-3.7 11.6zm2.3-2.8v-2h6.8v2zm10.6 2.8v-12.9h5.4q0.1 0 0.4 0 0.3 0 0.6 0 1.1 0.2 1.8 0.8 0.8 0.6 1.1 1.4 0.4 0.9 0.4 2 0 1-0.4 1.9-0.3 0.9-1.1 1.4-0.7 0.6-1.8 0.8-0.3 0-0.6 0-0.3 0.1-0.4 0.1h-3.2v4.5zm2.1-6.6h3.1q0.2 0 0.4 0 0.3 0 0.4 0 0.6-0.2 0.9-0.5 0.3-0.4 0.4-0.8 0.2-0.4 0.2-0.8 0-0.4-0.2-0.9-0.1-0.4-0.4-0.7-0.3-0.4-0.9-0.5-0.1-0.1-0.4-0.1-0.2 0-0.4 0h-3.1zm9.5 6.5v-12.9h2.2v12.9z"/>
	<path fill-rule="evenodd" class="s2" d="m411 70h61.4c8.5 0 15.4 6.8 15.4 15.3v61.4c0 8.5-6.9 15.4-15.4 15.4h-61.4c-8.5 0-15.4-6.9-15.4-15.4v-61.4c0-8.5 6.9-15.3 15.4-15.3z"/>
	<path class="s3" d="m429.4 137.3l2.4-7.8h1.9l2.5 7.8h-1.3l-2.3-7h0.3l-2.2 7zm1.4-1.7v-1.2h4.1v1.2zm8.6 1.9q-0.6 0-1.1-0.2-0.4-0.3-0.6-0.6-0.3-0.3-0.4-0.7-0.1-0.4-0.2-0.7 0-0.4 0-0.6v-3.2h1.3v2.8q0 0.2 0.1 0.6 0 0.3 0.1 0.6 0.2 0.3 0.4 0.5 0.3 0.2 0.8 0.2 0.2 0 0.5 0 0.2-0.1 0.4-0.3 0.2-0.2 0.3-0.6 0.2-0.3 0.2-0.8l0.7 0.3q0 0.7-0.3 1.3-0.3 0.7-0.8 1-0.6 0.4-1.4 0.4zm1.9-0.2v-1.8h-0.1v-4h1.3v5.8zm6.1 0q-0.6 0.1-1.2 0.1-0.5 0-1-0.2-0.4-0.2-0.6-0.6-0.2-0.4-0.2-0.8 0-0.4 0-0.9v-5.1h1.3v5q0 0.4 0 0.7 0 0.2 0.1 0.4 0.2 0.3 0.6 0.4 0.4 0 1-0.1zm-4.1-4.8v-1h4.1v1zm9.3 4.8v-2.8q0-0.3 0-0.6 0-0.4-0.2-0.7-0.1-0.3-0.4-0.5-0.3-0.2-0.7-0.2-0.3 0-0.5 0.1-0.3 0.1-0.5 0.3-0.2 0.2-0.3 0.5-0.1 0.4-0.1 0.9l-0.8-0.3q0-0.8 0.3-1.4 0.3-0.6 0.9-0.9 0.5-0.4 1.4-0.4 0.6 0 1 0.2 0.5 0.2 0.7 0.6 0.3 0.3 0.4 0.7 0.1 0.4 0.1 0.7 0.1 0.3 0.1 0.5v3.3zm-4.1 0v-7.8h1.2v4.1h0.1v3.7z"/>
	<path fill-rule="evenodd" class="s4" d="m433.3 101.7v-2.9c0-2.3 0.8-4.4 2.4-5.9 1.5-1.6 3.7-2.5 5.9-2.5 2.2 0 4.3 0.9 5.8 2.5 1.6 1.5 2.5 3.6 2.5 5.9v2.9h1.5c2.3 0 4.1 1.8 4.1 4.1v11.2c0 2.3-1.8 4.1-4.1 4.1h-19.7c-2.2 0-4.1-1.8-4.1-4.1v-11.2c0-2.3 1.9-4.1 4.1-4.1zm-1.5 2.6c-0.9 0-1.6 0.6-1.6 1.5v11.2c0 0.9 0.7 1.6 1.6 1.6h19.7c0.8 0 1.5-0.7 1.5-1.6v-11.2c0-0.9-0.7-1.5-1.5-1.5h-2.7q-0.1 0-0.1 0-0.1 0-0.1 0h-13.9q-0.1 0-0.1 0-0.1 0-0.1 0zm4.1-5.5v2.9h11.5v-2.9c0-1.6-0.6-3-1.7-4.1-1.1-1.1-2.5-1.7-4.1-1.7-1.5 0-2.9 0.6-4 1.7-1.1 1.1-1.7 2.5-1.7 4.1zm3.1 12.6c0-1.5 1.2-2.7 2.6-2.7 1.5 0 2.7 1.2 2.7 2.7 0 1.5-1.2 2.7-2.7 2.7-1.4 0-2.6-1.2-2.6-2.7zm2.6-0.1c0 0-0.1 0-0.1 0.1q0 0.1 0.1 0.1 0.2 0 0.2-0.1 0-0.1-0.2-0.1z"/>
	<path fill-rule="evenodd" class="s2" d="m513.3 70h61.5c8.4 0 15.3 6.8 15.3 15.3v61.4c0 8.5-6.9 15.4-15.3 15.4h-61.5c-8.4 0-15.3-6.9-15.3-15.4v-61.4c0-8.5 6.9-15.3 15.3-15.3z"/>
	<path class="s3" d="m519.7 138.5v-7.8h3.2q0.1 0 0.3 0.1 0.2 0 0.3 0 0.7 0.1 1.1 0.4 0.5 0.4 0.7 0.9 0.2 0.5 0.2 1.2 0 0.6-0.2 1.2-0.2 0.5-0.7 0.8-0.4 0.4-1.1 0.5-0.1 0-0.3 0-0.2 0-0.3 0h-1.9v2.7zm1.3-3.9h1.9q0.1 0 0.2 0 0.1 0 0.3-0.1 0.3 0 0.5-0.2 0.2-0.2 0.2-0.5 0.1-0.3 0.1-0.5 0-0.3-0.1-0.5 0-0.3-0.2-0.5-0.2-0.2-0.5-0.3-0.2 0-0.3 0-0.1 0-0.2 0h-1.9zm7.1 4.1q-0.6 0-1.1-0.3-0.4-0.2-0.6-0.6-0.3-0.4-0.3-0.9 0-0.4 0.2-0.7 0.1-0.4 0.4-0.6 0.3-0.3 0.8-0.4 0.3-0.2 0.8-0.2 0.5-0.1 1-0.2 0.6-0.1 1.2-0.2l-0.5 0.3q0-0.6-0.3-0.9-0.2-0.3-0.9-0.3-0.4 0-0.7 0.2-0.4 0.2-0.6 0.6l-1.2-0.4q0.3-0.7 0.9-1.1 0.6-0.5 1.6-0.5 0.8 0 1.4 0.3 0.6 0.2 0.9 0.8 0.1 0.3 0.2 0.6 0 0.3 0 0.7v3.6h-1.2v-1.3l0.2 0.3q-0.4 0.6-0.9 0.9-0.5 0.3-1.3 0.3zm0.3-1.1q0.4 0 0.7-0.1 0.3-0.2 0.5-0.4 0.2-0.2 0.3-0.4 0.1-0.3 0.1-0.6 0-0.3 0-0.5l0.4 0.1q-0.6 0.1-1 0.2-0.4 0-0.7 0.1-0.3 0-0.6 0.1-0.2 0.1-0.4 0.2-0.1 0.1-0.2 0.3-0.1 0.1-0.1 0.3 0 0.2 0.1 0.4 0.1 0.1 0.3 0.2 0.2 0.1 0.6 0.1zm4.7 3.5l1.2-3.1v0.9l-2.6-6.2h1.4l1.8 4.6h-0.3l1.7-4.6h1.3l-3.2 8.4zm12.3-2.6v-3.5q0-0.6-0.3-1-0.3-0.3-0.8-0.3-0.3 0-0.6 0.1-0.2 0.2-0.4 0.5-0.1 0.2-0.1 0.6l-0.6-0.3q0-0.6 0.3-1.1 0.2-0.5 0.7-0.7 0.5-0.3 1.1-0.3 0.9 0 1.5 0.6 0.5 0.6 0.5 1.5v3.9zm-7.1 0v-5.8h1.2v1.8h0.2v4zm3.5 0v-3.5q0-0.6-0.3-1-0.3-0.3-0.8-0.3-0.5 0-0.8 0.3-0.3 0.4-0.3 0.9l-0.6-0.4q0-0.5 0.3-1 0.3-0.5 0.7-0.7 0.5-0.3 1.1-0.3 0.7 0 1.1 0.3 0.4 0.3 0.7 0.8 0.2 0.4 0.2 1v3.9zm8.8 0.2q-0.9 0-1.6-0.4-0.7-0.4-1-1.1-0.4-0.7-0.4-1.5 0-1 0.4-1.7 0.3-0.7 1-1.1 0.6-0.4 1.5-0.4 0.9 0 1.5 0.4 0.7 0.5 1 1.2 0.3 0.8 0.2 1.9h-1.3v-0.5q0-1-0.3-1.4-0.3-0.5-1-0.5-0.8 0-1.2 0.5-0.4 0.5-0.4 1.5 0 0.9 0.4 1.4 0.4 0.5 1.1 0.5 0.5 0 0.8-0.3 0.4-0.2 0.6-0.6l1.3 0.4q-0.4 0.8-1.1 1.2-0.7 0.5-1.5 0.5zm-2-2.7v-1h4v1zm9.7 2.5v-2.8q0-0.3 0-0.6 0-0.4-0.2-0.7-0.1-0.3-0.4-0.5-0.3-0.2-0.7-0.2-0.3 0-0.5 0.1-0.3 0.1-0.5 0.3-0.2 0.2-0.3 0.5-0.1 0.4-0.1 0.9l-0.8-0.3q0-0.8 0.3-1.4 0.3-0.6 0.9-0.9 0.5-0.4 1.4-0.4 0.6 0 1 0.2 0.5 0.2 0.7 0.6 0.3 0.3 0.4 0.7 0.1 0.4 0.1 0.7 0.1 0.3 0.1 0.5v3.3zm-4.1 0v-5.8h1.2v1.8h0.1v4zm10.2 0q-0.5 0.1-1.1 0.1-0.5 0-1-0.2-0.4-0.2-0.6-0.6-0.2-0.4-0.3-0.8 0-0.4 0-0.9v-5.1h1.3v5q0 0.4 0 0.7 0 0.2 0.1 0.4 0.2 0.3 0.7 0.4 0.4 0 0.9-0.1zm-4-4.8v-1h4v1zm7.6 5q-1 0-1.7-0.5-0.7-0.5-0.8-1.4l1.3-0.2q0.1 0.5 0.4 0.7 0.4 0.2 0.9 0.2 0.5 0 0.8-0.1 0.2-0.2 0.2-0.5 0-0.3-0.1-0.4-0.1-0.1-0.4-0.2-0.3-0.1-1-0.3-0.7-0.2-1.1-0.4-0.5-0.2-0.7-0.5-0.2-0.4-0.2-0.8 0-0.5 0.3-0.9 0.3-0.5 0.8-0.7 0.5-0.2 1.2-0.2 0.7 0 1.3 0.2 0.5 0.2 0.8 0.6 0.3 0.4 0.4 0.9l-1.3 0.3q-0.1-0.4-0.4-0.6-0.2-0.2-0.7-0.3-0.5 0-0.8 0.2-0.3 0.1-0.3 0.4 0 0.2 0.2 0.3 0.1 0.1 0.4 0.3 0.4 0.1 1 0.3 0.7 0.1 1.2 0.4 0.4 0.2 0.6 0.5 0.2 0.3 0.2 0.8 0 0.9-0.7 1.4-0.6 0.5-1.8 0.5z"/>
	<path fill-rule="evenodd" class="s4" d="m523.6 97c0-2.9 2.4-5.3 5.3-5.3h32.1c3 0 5.3 2.4 5.3 5.3v20.1c0 3-2.3 5.3-5.3 5.3h-32.1c-2.9 0-5.3-2.3-5.3-5.3zm2.5 4.8h37.7v-4.8c0-1.5-1.2-2.7-2.8-2.7h-32.1c-1.5 0-2.8 1.2-2.8 2.7zm0 2.6v12.8c0 1.5 1.3 2.7 2.8 2.7h32.1c1.6 0 2.8-1.2 2.8-2.7v-12.8z"/>
	<path fill-rule="evenodd" class="s2" d="m615.7 70h61.4c8.5 0 15.4 6.8 15.4 15.3v61.4c0 8.5-6.9 15.4-15.4 15.4h-61.4c-8.5 0-15.4-6.9-15.4-15.4v-61.4c0-8.5 6.9-15.3 15.4-15.3z"/>
	<path class="s3" d="m640.6 138.3l2.4-7.8h1.9l2.5 7.8h-1.3l-2.3-7h0.3l-2.2 7zm1.4-1.7v-1.3h4.1v1.3zm6.5 1.7v-7.8h1.3v7.8z"/>
	<path fill-rule="evenodd" class="s4" d="m646.1 91.7c0.7 0 1.3 0.6 1.3 1.3v5.8h9.2c2.7 0 4.8 2.1 4.8 4.8v5.7h2.3c0.7 0 1.2 0.6 1.2 1.3 0 0.7-0.5 1.3-1.2 1.3h-2.3v5.7c0 2.7-2.1 4.8-4.8 4.8h-21.1c-2.6 0-4.8-2.1-4.8-4.8v-5.7h-2.2c-0.7 0-1.3-0.6-1.3-1.3 0-0.7 0.6-1.3 1.3-1.3h2.2v-5.7c0-2.7 2.2-4.8 4.8-4.8h9.3v-4.5h-5.8c-0.7 0-1.2-0.6-1.2-1.3 0-0.7 0.5-1.3 1.2-1.3zm-12.8 18.9q0 0 0 0v7c0 1.3 1 2.3 2.3 2.3h21.1c1.2 0 2.2-1 2.2-2.3v-14c0-1.3-1-2.3-2.2-2.3h-21.1c-1.3 0-2.3 1-2.3 2.3 0 0 0 7 0 7zm18.1-3.1c0.7 0 1.3 0.6 1.3 1.3v3.5c0 0.8-0.6 1.3-1.3 1.3-0.7 0-1.3-0.5-1.3-1.3v-3.5c0-0.7 0.6-1.3 1.3-1.3zm-9.3 4.8c0 0.8-0.5 1.3-1.2 1.3-0.7 0-1.3-0.5-1.3-1.3v-3.5c0-0.7 0.6-1.3 1.3-1.3 0.7 0 1.2 0.6 1.2 1.3z"/>
	<path fill-rule="evenodd" class="s2" d="m410.7 172.4h61.4c8.5 0 15.3 6.9 15.3 15.4v61.4c0 8.5-6.8 15.4-15.3 15.4h-61.4c-8.5 0-15.4-6.9-15.4-15.4v-61.4c0-8.5 6.9-15.4 15.4-15.4z"/>
	<path class="s3" d="m405.1 233v-7.7h1.2l2.7 5.5 2.7-5.5h1.1v7.7h-1.2v-4.9l-2.4 4.9h-0.5l-2.4-4.9v4.9zm11.5 0.2q-0.7 0-1.1-0.2-0.4-0.2-0.7-0.6-0.2-0.3-0.3-0.7-0.1-0.3-0.2-0.7 0-0.3 0-0.5v-3.3h1.3v2.8q0 0.3 0 0.6 0.1 0.4 0.2 0.7 0.2 0.3 0.4 0.5 0.3 0.2 0.8 0.2 0.2 0 0.5-0.1 0.2-0.1 0.4-0.3 0.2-0.2 0.3-0.5 0.1-0.4 0.1-0.9l0.8 0.3q0 0.8-0.3 1.4-0.3 0.6-0.8 1-0.6 0.3-1.4 0.3zm1.9-0.2v-1.8h-0.2v-4h1.3v5.8zm2.8 0v-7.9h1.3v7.9zm6.4 0q-0.6 0.2-1.1 0.1-0.6 0-1-0.2-0.5-0.2-0.7-0.6-0.2-0.4-0.2-0.7 0-0.4 0-0.9v-5.1h1.3v5q0 0.3 0 0.6 0 0.3 0.1 0.4 0.2 0.4 0.6 0.4 0.4 0 1 0zm-4.1-4.9v-1h4.1v1zm5.4-1.9v-1.2h1.3v1.2zm0 6.8v-5.9h1.3v5.9zm2.9-2.9v-1.1h3.2v1.1zm8.1 2.9q-0.6 0.1-1.1 0-0.6 0-1-0.2-0.5-0.1-0.7-0.6-0.2-0.3-0.2-0.7 0-0.4 0-0.9v-5.1h1.3v5q0 0.3 0 0.6 0 0.3 0.1 0.4 0.2 0.4 0.6 0.4 0.4 0 1 0zm-4.1-4.9v-1h4.1v1zm7.7 5q-0.9 0-1.6-0.4-0.6-0.3-1-1-0.4-0.7-0.4-1.6 0-1 0.4-1.7 0.3-0.7 1-1.1 0.7-0.3 1.5-0.3 0.9 0 1.6 0.4 0.6 0.4 0.9 1.2 0.3 0.7 0.2 1.8h-1.3v-0.5q0-0.9-0.3-1.4-0.3-0.4-1-0.4-0.8 0-1.2 0.5-0.4 0.5-0.4 1.4 0 0.9 0.4 1.4 0.4 0.5 1.1 0.5 0.5 0 0.8-0.2 0.4-0.2 0.6-0.6l1.3 0.4q-0.4 0.7-1.1 1.2-0.7 0.4-1.5 0.4zm-2-2.7v-1h4v1zm9.8 2.6v-2.9q0-0.2-0.1-0.6 0-0.3-0.2-0.6-0.1-0.3-0.4-0.5-0.2-0.2-0.7-0.2-0.3 0-0.5 0.1-0.2 0-0.4 0.2-0.2 0.2-0.4 0.6-0.1 0.3-0.1 0.9l-0.8-0.4q0-0.7 0.3-1.3 0.3-0.6 0.9-1 0.6-0.4 1.4-0.4 0.6 0 1 0.3 0.5 0.2 0.7 0.5 0.3 0.3 0.4 0.7 0.1 0.4 0.1 0.7 0.1 0.4 0.1 0.6v3.3zm-4.1 0v-5.9h1.2v1.8h0.1v4.1zm8.5 0.1q-0.7 0-1.1-0.2-0.4-0.3-0.7-0.7-0.2-0.4-0.2-0.8 0-0.5 0.1-0.8 0.2-0.3 0.5-0.6 0.3-0.2 0.7-0.4 0.4-0.1 0.9-0.2 0.4-0.1 1-0.2 0.5 0 1.2-0.1l-0.5 0.2q0-0.6-0.3-0.9-0.3-0.3-0.9-0.3-0.4 0-0.8 0.2-0.3 0.2-0.5 0.7l-1.2-0.4q0.2-0.7 0.8-1.2 0.7-0.4 1.7-0.4 0.8 0 1.4 0.2 0.6 0.3 0.8 0.8 0.2 0.3 0.2 0.7 0.1 0.3 0.1 0.7v3.6h-1.2v-1.3l0.2 0.2q-0.4 0.6-0.9 0.9-0.5 0.3-1.3 0.3zm0.2-1q0.5 0 0.8-0.2 0.3-0.1 0.5-0.4 0.2-0.2 0.2-0.4 0.1-0.2 0.2-0.6 0-0.3 0-0.5l0.4 0.1q-0.6 0.1-1 0.2-0.5 0.1-0.8 0.1-0.3 0.1-0.5 0.2-0.2 0.1-0.4 0.2-0.1 0.1-0.2 0.2-0.1 0.2-0.1 0.3 0 0.3 0.1 0.4 0.1 0.2 0.3 0.3 0.2 0.1 0.5 0.1zm8.4 0.9v-2.9q0-0.2 0-0.6-0.1-0.3-0.2-0.6-0.1-0.3-0.4-0.5-0.3-0.2-0.7-0.2-0.3 0-0.5 0.1-0.3 0-0.5 0.2-0.2 0.2-0.3 0.6-0.1 0.3-0.1 0.9l-0.8-0.4q0-0.7 0.3-1.3 0.3-0.6 0.8-1 0.6-0.4 1.4-0.4 0.7 0 1.1 0.3 0.4 0.2 0.7 0.5 0.2 0.3 0.3 0.7 0.2 0.4 0.2 0.7 0 0.4 0 0.6v3.3zm-4 0v-5.9h1.1v1.8h0.2v4.1zm9.2 0.1q-0.9 0-1.5-0.4-0.6-0.4-1-1.1-0.3-0.7-0.3-1.6 0-0.9 0.3-1.6 0.4-0.7 1-1 0.7-0.4 1.6-0.4 0.9 0 1.6 0.5 0.7 0.5 0.9 1.3l-1.3 0.4q-0.1-0.5-0.5-0.8-0.3-0.2-0.8-0.2-0.5 0-0.8 0.2-0.3 0.3-0.5 0.7-0.1 0.4-0.1 0.9 0 0.9 0.3 1.4 0.4 0.5 1.1 0.5 0.6 0 0.9-0.2 0.3-0.3 0.4-0.7l1.3 0.3q-0.2 0.9-0.9 1.3-0.7 0.5-1.7 0.5zm4.3 2.5l1.1-3.1v0.9l-2.5-6.3h1.3l1.8 4.6h-0.3l1.8-4.6h1.3l-3.3 8.5zm-50.7 13.4q-0.7-0.7-1.1-1.6-0.5-1-0.7-2-0.2-1-0.2-2 0-1 0.2-2 0.2-1.1 0.7-2 0.4-0.9 1.1-1.6l0.9 0.7q-0.6 0.8-1 1.6-0.4 0.8-0.6 1.6-0.1 0.8-0.1 1.7 0 0.9 0.1 1.7 0.2 0.8 0.6 1.6 0.4 0.8 1 1.6zm4.1-2.1v-6.5h-2.6v-1.3h6.4v1.3h-2.5v6.5zm6.5 0.2q-0.9 0-1.6-0.4-0.7-0.4-1.1-1-0.3-0.7-0.3-1.6 0-1 0.3-1.7 0.4-0.7 1.1-1.1 0.6-0.4 1.5-0.4 0.9 0 1.5 0.5 0.7 0.4 1 1.2 0.3 0.7 0.2 1.8h-1.3v-0.5q0-0.9-0.3-1.4-0.4-0.4-1.1-0.4-0.8 0-1.2 0.5-0.3 0.5-0.3 1.4 0 0.9 0.3 1.4 0.4 0.5 1.2 0.5 0.5 0 0.8-0.2 0.4-0.2 0.5-0.7l1.3 0.4q-0.3 0.8-1 1.3-0.7 0.4-1.5 0.4zm-2.1-2.7v-1h4.1v1zm7.4 2.7q-0.7 0-1.1-0.2-0.4-0.3-0.7-0.7-0.2-0.4-0.2-0.9 0-0.4 0.1-0.7 0.2-0.4 0.5-0.6 0.3-0.3 0.7-0.4 0.4-0.1 0.9-0.2 0.4-0.1 1-0.2 0.5-0.1 1.1-0.2l-0.4 0.3q0-0.6-0.3-0.9-0.3-0.3-0.9-0.3-0.4 0-0.8 0.2-0.3 0.2-0.5 0.6l-1.2-0.3q0.2-0.8 0.8-1.2 0.6-0.5 1.7-0.5 0.8 0 1.4 0.3 0.5 0.2 0.8 0.8 0.2 0.3 0.2 0.7 0.1 0.3 0.1 0.7v3.5h-1.2v-1.2l0.2 0.2q-0.4 0.6-0.9 0.9-0.5 0.3-1.3 0.3zm0.2-1q0.5 0 0.8-0.2 0.3-0.2 0.5-0.4 0.2-0.2 0.2-0.4 0.1-0.3 0.1-0.6 0.1-0.3 0.1-0.5l0.4 0.1q-0.6 0.1-1 0.2-0.5 0.1-0.8 0.1-0.3 0.1-0.5 0.2-0.2 0-0.4 0.1-0.2 0.2-0.2 0.3-0.1 0.1-0.1 0.3 0 0.2 0.1 0.4 0.1 0.2 0.3 0.3 0.2 0.1 0.5 0.1zm11.4 0.8v-3.5q0-0.6-0.3-0.9-0.3-0.4-0.8-0.4-0.3 0-0.6 0.2-0.2 0.1-0.4 0.4-0.1 0.3-0.1 0.6l-0.6-0.3q0-0.6 0.3-1.1 0.3-0.4 0.7-0.7 0.5-0.3 1.1-0.3 1 0 1.5 0.6 0.5 0.6 0.5 1.6v3.8zm-7 0v-5.8h1.1v1.8h0.2v4zm3.5 0v-3.5q0-0.6-0.3-0.9-0.3-0.4-0.8-0.4-0.5 0-0.8 0.4-0.3 0.3-0.3 0.8l-0.6-0.4q0-0.5 0.3-1 0.3-0.4 0.7-0.7 0.5-0.3 1.1-0.3 0.7 0 1.1 0.3 0.5 0.3 0.7 0.8 0.2 0.5 0.2 1.1v3.8zm8.5 0.2q-1.1 0-1.8-0.5-0.7-0.5-0.8-1.4l1.3-0.2q0.1 0.5 0.5 0.7 0.3 0.3 0.9 0.3 0.4 0 0.7-0.2 0.3-0.2 0.3-0.5 0-0.2-0.1-0.3-0.1-0.2-0.4-0.3-0.4-0.1-1-0.3-0.8-0.2-1.2-0.4-0.4-0.2-0.6-0.5-0.2-0.3-0.2-0.8 0-0.5 0.3-0.9 0.3-0.4 0.8-0.6 0.5-0.3 1.2-0.3 0.7 0 1.2 0.2 0.5 0.3 0.9 0.6 0.3 0.4 0.4 1l-1.4 0.2q0-0.4-0.3-0.6-0.3-0.2-0.8-0.2-0.4-0.1-0.7 0.1-0.3 0.2-0.3 0.5 0 0.1 0.1 0.2 0.1 0.2 0.5 0.3 0.3 0.1 1 0.3 0.7 0.2 1.1 0.4 0.4 0.2 0.6 0.5 0.2 0.4 0.2 0.8 0 0.9-0.6 1.4-0.7 0.5-1.8 0.5zm4.2 1.9l-1-0.7q0.6-0.8 1-1.6 0.4-0.8 0.6-1.6 0.2-0.9 0.2-1.7 0-0.9-0.2-1.7-0.2-0.9-0.6-1.7-0.4-0.8-1-1.6l1-0.7q0.6 0.8 1 1.7 0.5 0.9 0.7 1.9 0.3 1.1 0.2 2.1 0.1 1-0.2 2-0.2 1-0.7 1.9-0.4 1-1 1.7z"/>
	<path fill-rule="evenodd" class="s4" d="m436.7 217.2q0 0-0.1 0h-4.1c-2.3 0-4.1-1.8-4.1-4.1v-22.5c0-2.3 1.8-4.1 4.1-4.1h16.9c2.2 0 4.1 1.8 4.1 4.1v22.5c0 2.3-1.9 4.1-4.1 4.1h-4.2q0 0-0.1 0 0 0 0 0h-8.3q-0.1 0-0.1 0zm-4.2-28.1c-0.9 0-1.6 0.7-1.6 1.5v22.5c0 0.9 0.7 1.6 1.6 1.6h2.9v-4.4c0-0.7 0.6-1.3 1.3-1.3h8.4c0.8 0 1.3 0.6 1.3 1.3v4.4h3c0.8 0 1.5-0.7 1.5-1.6v-22.5c0-0.8-0.7-1.5-1.5-1.5zm5.5 25.6h5.9v-3.1h-5.9zm-2.7-22.5c0.7 0 1.3 0.5 1.3 1.3 0 0.7-0.6 1.2-1.3 1.2-0.7 0-1.3-0.5-1.3-1.2 0-0.8 0.6-1.3 1.3-1.3zm9.9 1.3c0-0.8 0.6-1.3 1.3-1.3 0.7 0 1.3 0.5 1.3 1.3 0 0.7-0.6 1.2-1.3 1.2-0.7 0-1.3-0.5-1.3-1.2zm-4.3-1.3c0.7 0 1.3 0.5 1.3 1.3 0 0.7-0.6 1.2-1.3 1.2-0.7 0-1.3-0.5-1.3-1.2 0-0.8 0.6-1.3 1.3-1.3zm-1.3 6.9c0-0.7 0.6-1.3 1.3-1.3 0.7 0 1.3 0.6 1.3 1.3 0 0.7-0.6 1.3-1.3 1.3-0.7 0-1.3-0.6-1.3-1.3zm1.3 4.3c0.7 0 1.3 0.6 1.3 1.3 0 0.7-0.6 1.3-1.3 1.3-0.7 0-1.3-0.6-1.3-1.3 0-0.7 0.6-1.3 1.3-1.3zm4.3-4.3c0-0.7 0.6-1.3 1.3-1.3 0.7 0 1.3 0.6 1.3 1.3 0 0.7-0.6 1.3-1.3 1.3-0.7 0-1.3-0.6-1.3-1.3zm1.3 4.3c0.7 0 1.3 0.6 1.3 1.3 0 0.7-0.6 1.3-1.3 1.3-0.7 0-1.3-0.6-1.3-1.3 0-0.7 0.6-1.3 1.3-1.3zm-12.5-4.3c0-0.7 0.5-1.3 1.2-1.3 0.8 0 1.3 0.6 1.3 1.3 0 0.7-0.5 1.3-1.3 1.3-0.7 0-1.2-0.6-1.2-1.3zm1.2 4.3c0.8 0 1.3 0.6 1.3 1.3 0 0.7-0.5 1.3-1.3 1.3-0.7 0-1.2-0.6-1.2-1.3 0-0.7 0.5-1.3 1.2-1.3z"/>
	<path fill-rule="evenodd" class="s2" d="m514 172.4h61.4c8.5 0 15.3 6.9 15.3 15.4v61.4c0 8.5-6.8 15.4-15.3 15.4h-61.4c-8.5 0-15.4-6.9-15.4-15.4v-61.4c0-8.5 6.9-15.4 15.4-15.4z"/>
	<path class="s3" d="m515 240.7v-7.8h4.7v1.3h-3.4v2h2.8v1.3h-2.8v3.2zm5.8-6.7v-1.2h1.3v1.2zm0 6.7v-5.8h1.3v5.8zm3.1 0v-7.9h1.3v7.9zm5.6 0.2q-0.9 0-1.6-0.4-0.7-0.4-1.1-1.1-0.3-0.7-0.3-1.5 0-1 0.3-1.7 0.4-0.7 1.1-1.1 0.6-0.4 1.5-0.4 0.9 0 1.5 0.4 0.7 0.5 1 1.2 0.3 0.8 0.2 1.9h-1.3v-0.5q0-1-0.3-1.4-0.4-0.4-1.1-0.4-0.8 0-1.2 0.5-0.3 0.4-0.3 1.4 0 0.9 0.3 1.4 0.4 0.5 1.2 0.5 0.5 0 0.8-0.3 0.4-0.2 0.5-0.6l1.3 0.4q-0.3 0.8-1 1.2-0.7 0.5-1.5 0.5zm-2.1-2.7v-1h4.1v1zm10.2 2.7q-0.7 0-1.1-0.2-0.4-0.2-0.6-0.6-0.3-0.3-0.4-0.7-0.1-0.4-0.2-0.7 0-0.4 0-0.6v-3.2h1.3v2.8q0 0.3 0.1 0.6 0 0.3 0.1 0.7 0.2 0.3 0.4 0.5 0.3 0.2 0.8 0.2 0.2 0 0.5-0.1 0.2-0.1 0.4-0.3 0.2-0.2 0.3-0.5 0.1-0.4 0.1-0.9l0.8 0.3q0 0.8-0.3 1.4-0.3 0.6-0.8 0.9-0.6 0.4-1.4 0.4zm1.9-0.2v-1.8h-0.2v-4h1.4v5.8zm5.4 0.2q-0.8 0-1.4-0.4-0.6-0.4-0.9-1.1-0.3-0.7-0.3-1.6 0-0.9 0.3-1.6 0.3-0.7 0.9-1.1 0.6-0.4 1.4-0.4 0.8 0 1.4 0.4 0.6 0.4 1 1.1 0.3 0.7 0.3 1.6 0 0.9-0.3 1.6-0.3 0.7-0.9 1.1-0.7 0.4-1.5 0.4zm-2.8 2.4v-8.4h1.2v4.1h0.1v4.3zm2.7-3.6q0.5 0 0.8-0.2 0.3-0.3 0.5-0.7 0.1-0.5 0.1-1 0-0.5-0.1-1-0.2-0.4-0.5-0.7-0.4-0.2-0.9-0.2-0.5 0-0.8 0.2-0.3 0.3-0.5 0.7-0.1 0.4-0.1 1 0 0.6 0.1 1 0.2 0.4 0.5 0.7 0.3 0.2 0.9 0.2zm4.1 1v-7.9h1.3v7.9zm5.5 0.2q-0.8 0-1.5-0.4-0.6-0.4-1-1.1-0.4-0.7-0.4-1.6 0-0.9 0.4-1.6 0.4-0.7 1-1.1 0.7-0.4 1.5-0.4 0.9 0 1.6 0.4 0.6 0.4 1 1.1 0.4 0.7 0.4 1.6 0 0.9-0.4 1.6-0.4 0.7-1 1.1-0.7 0.4-1.6 0.4zm0-1.2q0.8 0 1.2-0.6 0.4-0.5 0.4-1.3 0-0.9-0.4-1.4-0.4-0.5-1.2-0.5-0.5 0-0.8 0.3-0.4 0.2-0.5 0.6-0.2 0.4-0.2 1 0 0.8 0.4 1.4 0.4 0.5 1.1 0.5zm5.8 1.2q-0.6 0-1.1-0.3-0.4-0.2-0.6-0.6-0.3-0.4-0.3-0.9 0-0.4 0.2-0.7 0.1-0.4 0.4-0.6 0.3-0.3 0.8-0.4 0.3-0.1 0.8-0.2 0.5-0.1 1-0.2 0.6-0.1 1.2-0.2l-0.5 0.3q0-0.6-0.3-0.9-0.2-0.3-0.9-0.3-0.4 0-0.8 0.2-0.3 0.2-0.5 0.6l-1.2-0.3q0.3-0.8 0.9-1.2 0.6-0.5 1.6-0.5 0.8 0 1.4 0.3 0.6 0.2 0.9 0.8 0.1 0.3 0.2 0.6 0 0.4 0 0.7v3.6h-1.2v-1.2l0.2 0.2q-0.4 0.6-0.9 0.9-0.5 0.3-1.3 0.3zm0.3-1.1q0.4 0 0.7-0.1 0.3-0.2 0.5-0.4 0.2-0.2 0.3-0.4 0.1-0.3 0.1-0.6 0-0.3 0-0.5l0.4 0.1q-0.6 0.1-1 0.2-0.4 0-0.7 0.1-0.3 0.1-0.6 0.1-0.2 0.1-0.4 0.2-0.1 0.1-0.2 0.3-0.1 0.1-0.1 0.3 0 0.2 0.1 0.4 0.1 0.1 0.3 0.2 0.2 0.1 0.6 0.1zm6.6 1.1q-0.8 0-1.4-0.4-0.6-0.4-0.9-1.1-0.3-0.7-0.3-1.6 0-0.9 0.3-1.6 0.3-0.7 0.9-1.1 0.7-0.4 1.5-0.4 0.8 0 1.4 0.4 0.6 0.4 0.8 1.1 0.3 0.7 0.3 1.6 0 0.9-0.3 1.6-0.2 0.7-0.8 1.1-0.6 0.4-1.5 0.4zm0.2-1.2q0.6 0 0.9-0.2 0.3-0.3 0.5-0.7 0.1-0.4 0.1-1 0-0.6-0.1-1-0.2-0.4-0.5-0.7-0.3-0.2-0.8-0.2-0.5 0-0.9 0.2-0.3 0.3-0.5 0.7-0.1 0.5-0.1 1 0 0.5 0.1 1 0.2 0.4 0.5 0.7 0.3 0.2 0.8 0.2zm1.5 1v-4.1h-0.2v-3.7h1.4v7.8zm4.9 0.2q-1.1 0-1.8-0.5-0.6-0.5-0.8-1.4l1.3-0.2q0.1 0.5 0.5 0.7 0.3 0.3 0.9 0.3 0.5 0 0.7-0.2 0.3-0.2 0.3-0.5 0-0.2-0.1-0.4-0.1-0.1-0.4-0.2-0.4-0.1-1-0.3-0.8-0.2-1.2-0.4-0.4-0.2-0.6-0.5-0.2-0.4-0.2-0.8 0-0.5 0.3-0.9 0.3-0.5 0.8-0.7 0.5-0.2 1.2-0.2 0.7 0 1.2 0.2 0.5 0.2 0.9 0.6 0.3 0.4 0.4 0.9l-1.4 0.3q0-0.4-0.3-0.6-0.3-0.2-0.8-0.3-0.4 0-0.7 0.2-0.3 0.1-0.3 0.4 0 0.2 0.1 0.3 0.1 0.1 0.5 0.3 0.3 0.1 1 0.3 0.7 0.1 1.1 0.4 0.4 0.2 0.6 0.5 0.2 0.3 0.2 0.8 0 0.9-0.6 1.4-0.7 0.5-1.8 0.5z"/>
	<path class="s5" d="m539.8 204.9l5.1-5.2 5.1 5.2"/>
	<path class="s5" d="m544.9 210v-10.3"/>
	<path class="s5" d="m558.5 192.9h-27.2c-1.9 0-3.5 1.5-3.5 3.4v17.1c0 1.9 1.6 3.4 3.5 3.4h27.2c1.9 0 3.5-1.5 3.5-3.4v-17.1c0-1.9-1.6-3.4-3.5-3.4z"/>
	<path class="s5" d="m544.9 216.8v6.8"/>
	<path class="s5" d="m538.1 223.6h13.6"/>
	<path fill-rule="evenodd" class="s2" d="m616 172.4h61.4c8.5 0 15.4 6.9 15.4 15.4v61.4c0 8.5-6.9 15.4-15.4 15.4h-61.4c-8.5 0-15.3-6.9-15.3-15.4v-61.4c0-8.5 6.8-15.4 15.3-15.4z"/>
	<path class="s3" d="m622.3 239.6q-0.9 0-1.6-0.3-0.6-0.3-1.1-0.8-0.4-0.6-0.5-1.4l1.3-0.2q0.2 0.7 0.7 1.1 0.6 0.4 1.3 0.4 0.4 0 0.8-0.2 0.3-0.1 0.6-0.3 0.2-0.3 0.2-0.6 0-0.2-0.1-0.3 0-0.2-0.1-0.3-0.1-0.1-0.3-0.2-0.2-0.1-0.4-0.1l-2-0.6q-0.3-0.1-0.6-0.2-0.3-0.2-0.5-0.4-0.3-0.2-0.5-0.6-0.1-0.3-0.1-0.8 0-0.8 0.3-1.3 0.4-0.5 1.1-0.8 0.6-0.2 1.4-0.2 0.8 0 1.4 0.3 0.7 0.2 1.1 0.7 0.4 0.6 0.6 1.3l-1.4 0.2q-0.1-0.4-0.3-0.7-0.3-0.3-0.6-0.4-0.4-0.2-0.8-0.2-0.4 0-0.7 0.1-0.4 0.1-0.6 0.4-0.2 0.2-0.2 0.5 0 0.3 0.2 0.5 0.2 0.2 0.4 0.3 0.3 0.1 0.6 0.1l1.4 0.4q0.2 0.1 0.6 0.2 0.4 0.2 0.7 0.4 0.3 0.2 0.5 0.6 0.3 0.4 0.3 1 0 0.6-0.3 1-0.3 0.5-0.7 0.8-0.4 0.3-1 0.4-0.5 0.2-1.1 0.2zm6.9 0q-0.9 0-1.6-0.4-0.6-0.4-1-1-0.4-0.7-0.4-1.6 0-1 0.4-1.7 0.3-0.7 1-1.1 0.6-0.4 1.5-0.4 0.9 0 1.5 0.5 0.7 0.4 1 1.2 0.3 0.7 0.2 1.8h-1.3v-0.5q0-1-0.3-1.4-0.3-0.4-1-0.4-0.8 0-1.2 0.5-0.4 0.5-0.4 1.4 0 0.9 0.4 1.4 0.4 0.5 1.1 0.5 0.5 0 0.8-0.2 0.4-0.2 0.6-0.7l1.3 0.4q-0.4 0.8-1.1 1.3-0.7 0.4-1.5 0.4zm-2-2.7v-1h4v1zm5.9 2.5v-5.8h1.1v1.4l-0.1-0.2q0.1-0.3 0.3-0.5 0.1-0.2 0.4-0.4 0.2-0.1 0.5-0.2 0.2-0.1 0.5-0.1 0.3-0.1 0.6 0v1.2q-0.3-0.1-0.6 0-0.4 0-0.7 0.2-0.2 0.1-0.4 0.3-0.2 0.3-0.2 0.5-0.1 0.3-0.1 0.7v2.9zm5.9 0l-2.1-5.8h1.3l1.4 4.2 1.5-4.2h1.3l-2.1 5.8zm6.8 0.2q-0.8 0-1.5-0.4-0.7-0.4-1.1-1-0.3-0.7-0.3-1.6 0-1 0.3-1.7 0.4-0.7 1-1.1 0.7-0.4 1.6-0.4 0.9 0 1.5 0.5 0.6 0.4 1 1.2 0.3 0.7 0.2 1.8h-1.3v-0.5q0-1-0.3-1.4-0.4-0.4-1.1-0.4-0.8 0-1.2 0.5-0.4 0.5-0.4 1.4 0 0.9 0.4 1.4 0.4 0.5 1.2 0.5 0.4 0 0.8-0.2 0.3-0.2 0.5-0.7l1.3 0.4q-0.3 0.8-1 1.3-0.7 0.4-1.6 0.4zm-2-2.7v-1h4v1zm5.9 2.5v-5.8h1.2v1.4l-0.2-0.2q0.1-0.3 0.3-0.5 0.2-0.2 0.5-0.4 0.2-0.1 0.4-0.2 0.3-0.1 0.6-0.1 0.2-0.1 0.5 0v1.2q-0.3-0.1-0.6 0-0.3 0-0.6 0.2-0.3 0.1-0.4 0.3-0.2 0.3-0.3 0.5-0.1 0.3-0.1 0.7v2.9zm4.5 0v-7.9h1.3v7.9zm5.6 0.2q-0.9 0-1.6-0.4-0.7-0.4-1.1-1-0.3-0.7-0.3-1.6 0-1 0.3-1.7 0.4-0.7 1.1-1.1 0.6-0.4 1.5-0.4 0.9 0 1.5 0.5 0.7 0.4 1 1.2 0.3 0.7 0.2 1.8h-1.3v-0.5q0-1-0.3-1.4-0.4-0.4-1.1-0.4-0.8 0-1.2 0.5-0.3 0.5-0.3 1.4 0 0.9 0.3 1.4 0.4 0.5 1.2 0.5 0.5 0 0.8-0.2 0.4-0.2 0.5-0.7l1.3 0.4q-0.3 0.8-1 1.3-0.7 0.4-1.5 0.4zm-2.1-2.7v-1h4.1v1zm8.1 2.7q-1.1 0-1.8-0.5-0.6-0.5-0.8-1.4l1.3-0.2q0.1 0.5 0.5 0.7 0.3 0.3 0.9 0.3 0.5 0 0.7-0.2 0.3-0.2 0.3-0.5 0-0.2-0.1-0.3-0.1-0.2-0.4-0.3-0.4-0.1-1-0.3-0.8-0.2-1.2-0.4-0.4-0.2-0.6-0.5-0.2-0.3-0.2-0.8 0-0.5 0.3-0.9 0.3-0.4 0.8-0.6 0.5-0.3 1.2-0.3 0.7 0 1.2 0.2 0.5 0.3 0.9 0.6 0.3 0.4 0.4 1l-1.4 0.2q0-0.4-0.3-0.6-0.3-0.2-0.8-0.2-0.4-0.1-0.7 0.1-0.3 0.2-0.3 0.5 0 0.1 0.1 0.2 0.1 0.2 0.5 0.3 0.3 0.1 1 0.3 0.7 0.2 1.1 0.4 0.4 0.2 0.6 0.5 0.2 0.4 0.2 0.8 0 0.9-0.6 1.4-0.7 0.5-1.8 0.5zm5.8 0q-1 0-1.7-0.5-0.7-0.5-0.8-1.4l1.3-0.2q0.1 0.5 0.5 0.7 0.3 0.3 0.8 0.3 0.5 0 0.8-0.2 0.2-0.2 0.2-0.5 0-0.2-0.1-0.3-0.1-0.2-0.4-0.3-0.3-0.1-1-0.3-0.7-0.2-1.1-0.4-0.5-0.2-0.7-0.5-0.1-0.3-0.1-0.8 0-0.5 0.2-0.9 0.3-0.4 0.8-0.6 0.6-0.3 1.3-0.3 0.6 0 1.2 0.2 0.5 0.3 0.8 0.6 0.3 0.4 0.4 1l-1.3 0.2q-0.1-0.4-0.4-0.6-0.2-0.2-0.7-0.2-0.5-0.1-0.8 0.1-0.2 0.2-0.2 0.5 0 0.1 0.1 0.2 0.1 0.2 0.4 0.3 0.4 0.1 1.1 0.3 0.7 0.2 1.1 0.4 0.4 0.2 0.6 0.5 0.2 0.4 0.2 0.8 0 0.9-0.7 1.4-0.6 0.5-1.8 0.5z"/>
	<path class="s5" d="m657.4 222.3h-17.1c-2.6 0-5.2-0.7-7.4-2.1-2.2-1.3-4-3.3-5.2-5.6-1.1-2.4-1.6-5-1.4-7.6 0.2-2.6 1.2-5.1 2.7-7.2 1.6-2 3.7-3.7 6.1-4.6 2.5-1 5.1-1.3 7.7-0.8 2.5 0.5 4.9 1.6 6.9 3.4 1.9 1.7 3.4 3.9 4.1 6.4h3.6c2.4 0 4.7 1 6.4 2.7 1.7 1.7 2.6 4 2.6 6.4 0 2.4-0.9 4.7-2.6 6.4-1.7 1.7-4 2.6-6.4 2.6z"/>
	<path fill-rule="evenodd" class="s6" d="m56.9 16.2h276.2c17 0 30.7 13.8 30.7 30.7v205.7c0 16.9-13.7 30.7-30.7 30.7h-276.2c-16.9 0-30.7-13.8-30.7-30.7v-205.7c0-16.9 13.8-30.7 30.7-30.7z"/>
	<path class="s7" d="m47.6 54.4v-12.9h7.8v2.1h-5.6v3.3h4.5v2.1h-4.5v5.4zm9.3 0v-9.7h1.9v2.4l-0.2-0.3q0.2-0.5 0.5-0.9 0.3-0.4 0.7-0.7 0.4-0.2 0.8-0.4 0.4-0.1 0.9-0.1 0.4-0.1 0.9 0v2q-0.5-0.1-1-0.1-0.6 0.1-1 0.4-0.5 0.2-0.8 0.6-0.2 0.4-0.4 0.8-0.1 0.5-0.1 1.1v4.9zm11.2 0.3q-1.4 0-2.5-0.7-1.1-0.7-1.7-1.8-0.6-1.2-0.6-2.6 0-1.6 0.6-2.7 0.7-1.2 1.7-1.8 1.1-0.7 2.5-0.7 1.5 0 2.6 0.7 1.1 0.7 1.7 1.8 0.6 1.2 0.6 2.7 0 1.5-0.6 2.6-0.6 1.2-1.7 1.8-1.1 0.7-2.6 0.7zm0-2.1q1.3 0 2-0.8 0.6-0.9 0.6-2.2 0-1.5-0.6-2.3-0.7-0.8-2-0.8-0.8 0-1.4 0.4-0.5 0.3-0.8 1-0.3 0.7-0.3 1.7 0 1.4 0.7 2.2 0.6 0.8 1.8 0.8zm13.5 1.8v-4.7q0-0.4 0-1-0.1-0.5-0.3-1-0.2-0.6-0.7-0.9-0.5-0.3-1.2-0.3-0.4 0-0.8 0.1-0.4 0.1-0.8 0.5-0.3 0.3-0.5 0.9-0.2 0.5-0.2 1.4l-1.3-0.5q0-1.3 0.5-2.3 0.5-1 1.4-1.6 1-0.6 2.3-0.6 1.1 0 1.8 0.4 0.7 0.4 1.1 0.9 0.4 0.6 0.6 1.2 0.2 0.6 0.3 1.2 0 0.5 0 0.9v5.4zm-6.7 0v-9.7h1.9v3h0.3v6.7zm16.9 0q-1 0.2-1.9 0.1-0.9 0-1.6-0.3-0.7-0.3-1.1-1-0.4-0.6-0.4-1.3 0-0.6 0-1.5v-8.4h2.2v8.3q0 0.6 0 1 0 0.5 0.2 0.7 0.3 0.6 1 0.6 0.7 0.1 1.6 0zm-6.7-8v-1.7h6.7v1.7zm12.7 8.2q-1.4 0-2.6-0.6-1.1-0.6-1.7-1.8-0.6-1.1-0.6-2.6 0-1.5 0.6-2.7 0.6-1.2 1.7-1.8 1.1-0.7 2.5-0.7 1.5 0 2.6 0.7 1 0.7 1.5 2 0.5 1.3 0.4 3h-2.1v-0.7q0-1.6-0.6-2.3-0.5-0.8-1.7-0.8-1.3 0-2 0.9-0.6 0.8-0.6 2.3 0 1.5 0.6 2.3 0.7 0.8 1.9 0.8 0.8 0 1.4-0.3 0.6-0.4 0.9-1.1l2.1 0.7q-0.6 1.3-1.7 2-1.2 0.7-2.6 0.7zm-3.3-4.5v-1.6h6.6v1.6zm16.2 4.3v-4.7q0-0.4-0.1-1 0-0.5-0.3-1.1-0.2-0.5-0.7-0.8-0.4-0.3-1.2-0.3-0.4 0-0.8 0.1-0.4 0.1-0.7 0.5-0.3 0.3-0.5 0.9-0.2 0.5-0.2 1.4l-1.3-0.5q0-1.3 0.5-2.3 0.4-1 1.4-1.6 0.9-0.6 2.3-0.6 1 0 1.7 0.4 0.7 0.3 1.1 0.9 0.5 0.6 0.7 1.2 0.2 0.6 0.2 1.2 0.1 0.5 0.1 0.9v5.4zm-6.7 0v-9.7h1.9v3h0.2v6.7zm15 0.2q-1.3 0-2.3-0.6-1-0.7-1.6-1.9-0.5-1.1-0.5-2.6 0-1.4 0.5-2.6 0.6-1.1 1.6-1.8 1-0.7 2.4-0.7 1.4 0 2.3 0.7 0.9 0.7 1.4 1.8 0.5 1.2 0.5 2.6 0 1.5-0.5 2.6-0.5 1.2-1.4 1.9-1 0.6-2.4 0.6zm0.3-1.9q0.9 0 1.4-0.4 0.6-0.4 0.8-1.1 0.3-0.7 0.3-1.7 0-0.9-0.3-1.6-0.2-0.7-0.8-1.1-0.5-0.4-1.3-0.4-0.9 0-1.4 0.4-0.6 0.4-0.9 1.1-0.2 0.8-0.2 1.6 0 0.9 0.2 1.7 0.3 0.7 0.8 1.1 0.6 0.4 1.4 0.4zm2.5 1.7v-6.8h-0.3v-6.1h2.2v12.9z"/>
	<path fill-rule="evenodd" class="s2" d="m61.7 67.9h61.4c8.5 0 15.4 6.9 15.4 15.3v61.4c0 8.5-6.9 15.4-15.4 15.4h-61.4c-8.5 0-15.4-6.9-15.4-15.4v-61.4c0-8.4 6.9-15.3 15.4-15.3z"/>
	<path class="s3" d="m80.7 136.5v-7.8h3.1q0.8 0 1.3 0.3 0.5 0.3 0.8 0.8 0.2 0.5 0.2 1 0 0.6-0.3 1.1-0.3 0.4-0.8 0.6v-0.3q0.7 0.2 1.1 0.7 0.4 0.6 0.4 1.2 0 0.7-0.3 1.3-0.2 0.5-0.8 0.8-0.5 0.3-1.3 0.3zm1.4-1.3h1.9q0.3 0 0.6-0.1 0.3-0.1 0.4-0.4 0.2-0.3 0.2-0.6 0-0.3-0.2-0.6-0.1-0.2-0.3-0.4-0.3-0.1-0.7-0.1h-1.9zm0-3.5h1.7q0.3 0 0.5-0.1 0.3-0.1 0.4-0.3 0.1-0.2 0.1-0.5 0-0.4-0.2-0.7-0.3-0.3-0.8-0.3h-1.7zm5.6 4.7v-7.9h1.3v7.9zm5.5 0.2q-0.9 0-1.5-0.4-0.7-0.4-1-1.1-0.4-0.7-0.4-1.6 0-0.9 0.4-1.6 0.3-0.7 1-1.1 0.6-0.4 1.5-0.4 0.9 0 1.5 0.4 0.7 0.4 1.1 1.1 0.3 0.7 0.3 1.6 0 0.9-0.3 1.6-0.4 0.7-1.1 1.1-0.6 0.4-1.5 0.4zm0-1.2q0.8 0 1.2-0.6 0.3-0.5 0.3-1.3 0-0.8-0.3-1.4-0.4-0.5-1.2-0.5-0.5 0-0.9 0.3-0.3 0.2-0.5 0.6-0.1 0.4-0.1 1 0 0.9 0.4 1.4 0.4 0.5 1.1 0.5zm6.6 3.8q-0.5 0-1-0.2-0.4-0.1-0.8-0.4-0.3-0.3-0.5-0.7l1.2-0.6q0.1 0.3 0.4 0.5 0.3 0.1 0.7 0.1 0.4 0 0.7-0.1 0.3-0.1 0.5-0.4 0.2-0.3 0.2-0.7v-1.7h0.1v-4.4h1.2v6.1q0 0.2-0.1 0.4 0 0.2 0 0.4-0.1 0.6-0.5 1-0.4 0.3-0.9 0.5-0.6 0.2-1.2 0.2zm-0.1-2.6q-0.8 0-1.4-0.4-0.6-0.4-1-1.1-0.3-0.7-0.3-1.6 0-0.9 0.3-1.6 0.4-0.7 1-1.1 0.6-0.4 1.4-0.4 0.8 0 1.4 0.4 0.6 0.4 0.9 1.1 0.3 0.7 0.3 1.6 0 0.9-0.3 1.6-0.3 0.7-0.9 1.1-0.6 0.4-1.4 0.4zm0.2-1.2q0.5 0 0.8-0.2 0.3-0.3 0.5-0.7 0.1-0.4 0.1-1 0-0.6-0.1-1-0.2-0.4-0.5-0.7-0.3-0.2-0.8-0.2-0.5 0-0.9 0.2-0.3 0.3-0.5 0.7-0.1 0.5-0.1 1 0 0.5 0.1 1 0.2 0.4 0.5 0.7 0.4 0.2 0.9 0.2z"/>
	<path fill-rule="evenodd" class="s8" d="m103.2 89.6c1 0 2.1 0.5 2.8 1.2 0.8 0.8 1.2 1.8 1.2 2.9v22.1c0 1-0.4 2-1.2 2.8-0.7 0.8-1.8 1.2-2.8 1.2h-22.1c-1.1 0-2.1-0.4-2.9-1.2-0.7-0.8-1.2-1.8-1.2-2.8v-12.5c0-2.2 1.9-4 4.1-4h1.5v-5.6c0-1.1 0.4-2.1 1.1-2.9 0.8-0.7 1.8-1.2 2.9-1.2zm-23.6 13.7v12.5c0 0.3 0.2 0.7 0.5 1 0.3 0.3 0.6 0.4 1 0.4 0.4 0 0.8-0.1 1.1-0.4 0.2-0.3 0.4-0.7 0.4-1v-13.9h-1.5c-0.8 0-1.5 0.6-1.5 1.4zm5.6 12.5q0 0.7-0.3 1.4h18.3c0.4 0 0.8-0.1 1-0.4 0.3-0.3 0.5-0.7 0.5-1v-22.1c0-0.4-0.2-0.8-0.5-1.1-0.2-0.3-0.6-0.4-1-0.4h-16.6c-0.3 0-0.7 0.1-1 0.4-0.3 0.3-0.4 0.7-0.4 1.1zm15.2-9.6c0.7 0 1.3 0.6 1.3 1.3 0 0.7-0.6 1.3-1.3 1.3h-11c-0.7 0-1.3-0.6-1.3-1.3 0-0.7 0.6-1.3 1.3-1.3zm-12.3 6.8c0-0.7 0.6-1.3 1.3-1.3h6.9c0.7 0 1.2 0.6 1.2 1.3 0 0.7-0.5 1.3-1.2 1.3h-6.9c-0.7 0-1.3-0.6-1.3-1.3zm12.3-17.8c0.7 0 1.3 0.6 1.3 1.3v5.5c0 0.7-0.6 1.3-1.3 1.3h-11c-0.7 0-1.3-0.6-1.3-1.3v-5.5c0-0.7 0.6-1.3 1.3-1.3zm-1.3 5.5v-3h-8.5v3z"/>
	<path fill-rule="evenodd" class="s2" d="m164 67.9h61.5c8.4 0 15.3 6.9 15.3 15.3v61.4c0 8.5-6.9 15.4-15.3 15.4h-61.5c-8.4 0-15.3-6.9-15.3-15.4v-61.4c0-8.4 6.9-15.3 15.3-15.3z"/>
	<path class="s3" d="m186 128.1v-1.1h1.3v1.1zm0 6.8v-5.9h1.3v5.9zm4.3 0v-6.4l-1.5 0.9v-1.4l1.5-0.9h1.3v7.8zm6 0.1q-0.8 0-1.4-0.3-0.6-0.3-1-0.8-0.3-0.6-0.3-1.3 0-0.7 0.3-1.2 0.3-0.6 0.9-0.9l-0.1 0.4q-0.4-0.3-0.7-0.8-0.2-0.4-0.2-1 0-0.6 0.3-1.1 0.3-0.5 0.9-0.8 0.5-0.3 1.3-0.3 0.7 0 1.2 0.3 0.6 0.3 0.9 0.8 0.3 0.5 0.3 1.1 0 0.6-0.2 1-0.3 0.5-0.7 0.8v-0.4q0.5 0.3 0.8 0.9 0.3 0.5 0.3 1.2 0 0.7-0.3 1.3-0.4 0.5-1 0.8-0.6 0.3-1.3 0.3zm0-1.2q0.5 0 0.9-0.3 0.3-0.3 0.3-0.9 0-0.6-0.3-0.9-0.4-0.4-0.9-0.4-0.6 0-1 0.4-0.3 0.3-0.3 0.9 0 0.6 0.3 0.9 0.4 0.3 1 0.3zm0-3.7q0.4 0 0.7-0.2 0.3-0.3 0.3-0.8 0-0.5-0.3-0.7-0.3-0.2-0.7-0.2-0.5 0-0.8 0.2-0.3 0.2-0.3 0.7 0 0.5 0.3 0.8 0.3 0.2 0.8 0.2zm8.1 4.8v-2.8q0-0.3-0.1-0.6 0-0.4-0.1-0.7-0.2-0.3-0.5-0.5-0.2-0.2-0.7-0.2-0.2 0-0.5 0.1-0.2 0.1-0.4 0.3-0.2 0.2-0.3 0.5-0.2 0.3-0.2 0.9l-0.7-0.4q0-0.7 0.3-1.3 0.2-0.6 0.8-1 0.6-0.3 1.4-0.3 0.6 0 1.1 0.2 0.4 0.2 0.6 0.5 0.3 0.4 0.4 0.8 0.1 0.3 0.2 0.7 0 0.3 0 0.5v3.3zm-4.1 0v-5.9h1.2v1.9h0.2v4z"/>
	<path fill-rule="evenodd" class="s8" d="m208.1 98.3c0.8 1.7 1.2 3.6 1.2 5.6 0 7.9-6.4 14.3-14.3 14.3-7.9 0-14.3-6.4-14.3-14.3 0-7.9 6.4-14.3 14.3-14.3 5.8 0 10.8 3.5 13 8.5q0.1 0.1 0.1 0.2zm-20.9-3.2c-1.8 1.6-3.1 3.8-3.7 6.2h2.4c1 0 2 0.5 2.7 1.2 0.7 0.7 1.1 1.7 1.1 2.7v1.3c0 0.4 0.2 0.7 0.4 1 0.3 0.2 0.6 0.4 1 0.4 1 0 2 0.4 2.7 1.1 0.7 0.7 1.1 1.7 1.1 2.7v4q0.1 0 0.1 0 1.3 0 2.6-0.3v-5c0-1 0.4-2 1.1-2.7 0.8-0.7 1.7-1.1 2.8-1.1h4.9q0.3-1.3 0.3-2.7 0-2-0.7-3.9h-3.2c-0.7 0-1.3 0.6-1.3 1.3 0 1.1-0.5 2-1.2 2.8-0.7 0.7-1.7 1.1-2.7 1.1-2.2 0-3.9-1.7-3.9-3.9 0-0.3-0.1-0.7-0.4-0.9-0.2-0.3-0.6-0.4-0.9-0.4-1.4 0-2.7-0.5-3.7-1.5-0.9-0.9-1.4-2.1-1.5-3.4zm2.5-0.3c0 0.7 0.3 1.4 0.8 1.9 0.5 0.5 1.2 0.7 1.9 0.7 1 0 2 0.4 2.7 1.2 0.7 0.7 1.2 1.7 1.2 2.7 0 0.7 0.5 1.3 1.3 1.3 0.3 0 0.7-0.1 0.9-0.3 0.3-0.3 0.4-0.6 0.4-1 0-2.1 1.7-3.9 3.9-3.9h2c-2.1-3.1-5.7-5.2-9.8-5.2-1.9 0-3.7 0.4-5.3 1.2zm15.8 14.3h-4c-0.4 0-0.7 0.2-1 0.4-0.2 0.3-0.3 0.6-0.3 0.9v4.1c2.3-1.2 4.2-3.1 5.3-5.4zm-13.1 6.3v-3.7c0-0.3-0.2-0.6-0.4-0.9-0.2-0.2-0.6-0.4-0.9-0.4-1.1 0-2.1-0.4-2.8-1.1-0.7-0.7-1.1-1.7-1.1-2.8v-1.3c0-0.3-0.2-0.7-0.4-0.9-0.3-0.3-0.6-0.4-0.9-0.4h-2.7q0 0 0 0c0 5.6 3.9 10.3 9.2 11.5z"/>
	<path fill-rule="evenodd" class="s2" d="m266.4 67.9h61.4c8.5 0 15.4 6.9 15.4 15.3v61.4c0 8.5-6.9 15.4-15.4 15.4h-61.4c-8.5 0-15.4-6.9-15.4-15.4v-61.4c0-8.4 6.9-15.3 15.4-15.3z"/>
	<path class="s3" d="m264.1 134.9v-7.8h1.3v6.6h3.4v1.2zm7.3 0.1q-0.6 0-1.1-0.2-0.4-0.2-0.6-0.6-0.3-0.4-0.3-0.9 0-0.4 0.2-0.8 0.1-0.3 0.4-0.6 0.3-0.2 0.8-0.4 0.3-0.1 0.8-0.2 0.5-0.1 1-0.1 0.6-0.1 1.2-0.2l-0.5 0.3q0-0.7-0.2-0.9-0.3-0.3-1-0.3-0.4 0-0.7 0.2-0.4 0.1-0.6 0.6l-1.1-0.4q0.2-0.7 0.8-1.2 0.6-0.4 1.6-0.4 0.8 0 1.4 0.2 0.6 0.3 0.9 0.9 0.1 0.3 0.2 0.6 0 0.3 0 0.7v3.6h-1.1v-1.3l0.1 0.2q-0.3 0.7-0.9 1-0.5 0.2-1.3 0.2zm0.3-1q0.4 0 0.7-0.1 0.3-0.2 0.5-0.4 0.2-0.3 0.3-0.5 0.1-0.2 0.1-0.5 0-0.4 0-0.6l0.4 0.2q-0.6 0.1-1 0.1-0.4 0.1-0.7 0.2-0.3 0-0.6 0.1-0.2 0.1-0.4 0.2-0.1 0.1-0.2 0.2-0.1 0.2-0.1 0.4 0 0.2 0.1 0.4 0.1 0.1 0.3 0.2 0.3 0.1 0.6 0.1zm8.4 0.9v-2.8q0-0.3-0.1-0.6 0-0.4-0.2-0.7-0.1-0.3-0.4-0.5-0.2-0.2-0.7-0.2-0.3 0-0.5 0.1-0.2 0.1-0.4 0.3-0.2 0.2-0.4 0.5-0.1 0.3-0.1 0.9l-0.8-0.4q0-0.7 0.3-1.3 0.3-0.6 0.9-1 0.6-0.3 1.4-0.3 0.6 0 1 0.2 0.5 0.2 0.7 0.5 0.3 0.4 0.4 0.8 0.1 0.3 0.1 0.7 0.1 0.3 0.1 0.5v3.3zm-4.1 0v-5.9h1.2v1.9h0.1v4zm9.1 0.1q-0.8 0-1.4-0.4-0.6-0.4-1-1.1-0.3-0.7-0.3-1.5 0-0.9 0.3-1.6 0.4-0.7 1-1.1 0.6-0.4 1.4-0.4 0.9 0 1.4 0.4 0.6 0.4 0.9 1.1 0.3 0.7 0.3 1.6 0 0.8-0.3 1.5-0.3 0.7-0.9 1.1-0.6 0.4-1.4 0.4zm0.2-1.1q0.5 0 0.8-0.3 0.3-0.2 0.5-0.6 0.1-0.5 0.1-1 0-0.6-0.1-1-0.2-0.5-0.5-0.7-0.3-0.3-0.8-0.3-0.5 0-0.8 0.3-0.4 0.3-0.5 0.7-0.2 0.4-0.2 1 0 0.5 0.1 0.9 0.2 0.5 0.5 0.7 0.4 0.3 0.9 0.3zm1.4 1v-4.1h-0.1v-3.7h1.3v7.8zm2.8-6.8v-1.1h1.3v1.1zm0 6.8v-5.9h1.3v5.9zm7 0v-2.8q0-0.3-0.1-0.6 0-0.4-0.2-0.7-0.1-0.3-0.4-0.5-0.2-0.2-0.7-0.2-0.3 0-0.5 0.1-0.2 0.1-0.4 0.3-0.2 0.2-0.4 0.5-0.1 0.3-0.1 0.9l-0.7-0.4q0-0.7 0.2-1.3 0.3-0.6 0.9-1 0.6-0.3 1.4-0.3 0.6 0 1.1 0.2 0.4 0.2 0.6 0.5 0.3 0.4 0.4 0.8 0.1 0.3 0.1 0.7 0.1 0.3 0.1 0.5v3.3zm-4.1 0v-5.9h1.2v1.9h0.1v4zm9.3 2.7q-0.5 0-0.9-0.1-0.5-0.2-0.8-0.4-0.4-0.3-0.6-0.7l1.2-0.6q0.1 0.3 0.4 0.4 0.4 0.2 0.7 0.2 0.4 0 0.7-0.1 0.3-0.2 0.5-0.5 0.2-0.2 0.2-0.7v-1.6h0.2v-4.5h1.1v6.2q0 0.2 0 0.4 0 0.2-0.1 0.4-0.1 0.6-0.5 0.9-0.4 0.4-0.9 0.6-0.5 0.1-1.2 0.1zm-0.1-2.6q-0.8 0-1.4-0.4-0.6-0.4-1-1.1-0.3-0.7-0.3-1.5 0-0.9 0.3-1.6 0.4-0.7 1-1.1 0.6-0.4 1.4-0.4 0.9 0 1.4 0.4 0.6 0.4 0.9 1.1 0.3 0.7 0.3 1.6 0 0.8-0.3 1.5-0.3 0.7-0.9 1.1-0.6 0.4-1.4 0.4zm0.2-1.1q0.5 0 0.8-0.3 0.4-0.2 0.5-0.6 0.2-0.5 0.2-1 0-0.6-0.2-1-0.1-0.5-0.5-0.7-0.3-0.3-0.8-0.3-0.5 0-0.8 0.3-0.4 0.3-0.5 0.7-0.2 0.4-0.2 1 0 0.5 0.2 0.9 0.1 0.5 0.4 0.7 0.4 0.3 0.9 0.3zm9.1 1.1q-0.9 0-1.4-0.4-0.6-0.4-0.9-1.1-0.3-0.7-0.3-1.5 0-0.9 0.3-1.6 0.3-0.7 0.8-1.1 0.6-0.4 1.4-0.4 0.9 0 1.5 0.4 0.6 0.4 0.9 1.1 0.4 0.7 0.4 1.6 0 0.8-0.4 1.5-0.3 0.7-0.9 1.1-0.6 0.4-1.4 0.4zm-2.8 2.5v-8.5h1.1v4.1h0.2v4.4zm2.6-3.6q0.5 0 0.8-0.3 0.4-0.2 0.5-0.7 0.2-0.4 0.2-0.9 0-0.6-0.2-1-0.1-0.4-0.5-0.7-0.3-0.3-0.8-0.3-0.5 0-0.9 0.3-0.3 0.2-0.4 0.7-0.2 0.4-0.2 1 0 0.5 0.2 1 0.1 0.4 0.5 0.6 0.3 0.3 0.8 0.3zm5.7 1.1q-0.6 0-1.1-0.2-0.4-0.2-0.6-0.6-0.3-0.4-0.3-0.9 0-0.4 0.2-0.8 0.1-0.3 0.4-0.6 0.3-0.2 0.8-0.4 0.3-0.1 0.8-0.2 0.5-0.1 1-0.1 0.6-0.1 1.2-0.2l-0.5 0.3q0-0.7-0.2-0.9-0.3-0.3-1-0.3-0.4 0-0.7 0.2-0.4 0.1-0.6 0.6l-1.1-0.4q0.2-0.7 0.8-1.2 0.6-0.4 1.6-0.4 0.8 0 1.4 0.2 0.6 0.3 0.9 0.9 0.1 0.3 0.2 0.6 0 0.3 0 0.7v3.6h-1.1v-1.3l0.1 0.2q-0.4 0.7-0.9 1-0.5 0.2-1.3 0.2zm0.3-1q0.4 0 0.7-0.1 0.3-0.2 0.5-0.4 0.2-0.3 0.3-0.5 0.1-0.2 0.1-0.5 0-0.4 0-0.6l0.4 0.2q-0.6 0.1-1 0.1-0.4 0.1-0.7 0.2-0.3 0-0.6 0.1-0.2 0.1-0.4 0.2-0.1 0.1-0.2 0.2-0.1 0.2-0.1 0.4 0 0.2 0.1 0.4 0.1 0.1 0.3 0.2 0.3 0.1 0.6 0.1zm6.8 3.6q-0.5 0-1-0.1-0.4-0.2-0.8-0.4-0.3-0.3-0.6-0.7l1.2-0.6q0.2 0.3 0.5 0.4 0.3 0.2 0.7 0.2 0.4 0 0.7-0.1 0.3-0.2 0.5-0.5 0.2-0.2 0.2-0.7v-1.6h0.1v-4.5h1.2v6.2q0 0.2-0.1 0.4 0 0.2 0 0.4-0.1 0.6-0.5 0.9-0.4 0.4-0.9 0.6-0.6 0.1-1.2 0.1zm-0.1-2.6q-0.9 0-1.5-0.4-0.6-0.4-0.9-1.1-0.3-0.7-0.3-1.5 0-0.9 0.3-1.6 0.3-0.7 1-1.1 0.6-0.4 1.4-0.4 0.8 0 1.4 0.4 0.6 0.4 0.9 1.1 0.3 0.7 0.3 1.6 0 0.8-0.3 1.5-0.3 0.7-0.9 1.1-0.6 0.4-1.4 0.4zm0.2-1.1q0.5 0 0.8-0.3 0.3-0.2 0.5-0.6 0.1-0.5 0.1-1 0-0.6-0.1-1-0.2-0.5-0.5-0.7-0.3-0.3-0.8-0.3-0.5 0-0.9 0.3-0.3 0.3-0.5 0.7-0.1 0.4-0.1 1 0 0.5 0.1 0.9 0.2 0.5 0.5 0.7 0.3 0.3 0.9 0.3zm6.7 1.1q-0.8 0-1.5-0.3-0.7-0.4-1.1-1.1-0.3-0.7-0.3-1.6 0-0.9 0.3-1.6 0.4-0.7 1-1.1 0.7-0.4 1.6-0.4 0.9 0 1.5 0.4 0.6 0.4 1 1.2 0.3 0.8 0.2 1.8h-1.3v-0.5q0-0.9-0.3-1.3-0.4-0.5-1.1-0.5-0.8 0-1.2 0.5-0.4 0.5-0.4 1.5 0 0.8 0.4 1.3 0.4 0.5 1.2 0.5 0.4 0 0.8-0.2 0.3-0.2 0.5-0.6l1.3 0.4q-0.3 0.8-1 1.2-0.7 0.4-1.6 0.4zm-2-2.7v-1h4v1z"/>
	<path fill-rule="evenodd" class="s8" d="m310.4 98.5c0.3 0.2 0.5 0.6 0.5 1v15.4c0 1.1-0.4 2.2-1.2 2.9-0.8 0.8-1.8 1.2-2.9 1.2h-5.6q0 0 0 0-0.1 0-0.1 0h-8.3q0 0-0.1 0 0 0 0 0h-5.6c-1.1 0-2.1-0.4-2.9-1.2-0.7-0.7-1.2-1.8-1.2-2.9v-15.4c0-0.4 0.2-0.8 0.5-1l12.7-9.9c0.4-0.3 1.1-0.3 1.5 0zm-7.9 18h4.3c0.5 0 0.8-0.1 1.1-0.4 0.3-0.3 0.5-0.7 0.5-1.1v-14.8l-11.4-8.9-11.4 8.9v14.8c0 0.4 0.2 0.8 0.5 1.1 0.3 0.3 0.7 0.4 1.1 0.4h4.3v-12.7c0-0.8 0.6-1.3 1.3-1.3h8.4c0.7 0 1.3 0.5 1.3 1.3zm-8.4 0h5.8v-11.5h-5.8z"/>
	<path fill-rule="evenodd" class="s2" d="m61.7 169.9h61.5c8.4 0 15.3 6.9 15.3 15.4v61.4c0 8.5-6.9 15.3-15.3 15.3h-61.5c-8.4 0-15.3-6.8-15.3-15.3v-61.4c0-8.5 6.9-15.4 15.3-15.4z"/>
	<path class="s3" d="m68.7 236.9l2.5-7.8h1.9l2.5 7.8h-1.4l-2.2-7h0.3l-2.2 7zm1.4-1.7v-1.2h4.1v1.2zm10.4 1.7v-2.8q0-0.3 0-0.6 0-0.3-0.2-0.7-0.1-0.3-0.4-0.5-0.3-0.2-0.7-0.2-0.3 0-0.5 0.1-0.3 0.1-0.5 0.3-0.2 0.2-0.3 0.5-0.1 0.4-0.1 0.9l-0.8-0.3q0-0.8 0.3-1.4 0.3-0.6 0.9-0.9 0.5-0.4 1.4-0.4 0.6 0 1 0.2 0.4 0.2 0.7 0.6 0.2 0.3 0.4 0.7 0.1 0.4 0.1 0.7 0.1 0.3 0.1 0.6v3.2zm-4.1 0v-5.8h1.2v1.8h0.1v4zm8.4 0.2q-0.6 0-1-0.3-0.5-0.2-0.7-0.6-0.2-0.4-0.2-0.9 0-0.4 0.1-0.7 0.2-0.4 0.5-0.6 0.3-0.3 0.7-0.4 0.4-0.1 0.8-0.2 0.5-0.1 1.1-0.2 0.5-0.1 1.1-0.2l-0.4 0.3q0-0.6-0.3-0.9-0.3-0.3-0.9-0.3-0.4 0-0.8 0.2-0.4 0.2-0.5 0.6l-1.2-0.4q0.2-0.7 0.8-1.1 0.6-0.5 1.7-0.5 0.7 0 1.3 0.3 0.6 0.2 0.9 0.8 0.2 0.3 0.2 0.6 0 0.3 0 0.7v3.6h-1.1v-1.2l0.2 0.2q-0.4 0.6-0.9 0.9-0.6 0.3-1.4 0.3zm0.3-1.1q0.4 0 0.8-0.1 0.3-0.2 0.5-0.4 0.2-0.2 0.2-0.4 0.1-0.3 0.1-0.6 0-0.3 0-0.5l0.4 0.1q-0.5 0.1-1 0.2-0.4 0-0.7 0.1-0.3 0.1-0.5 0.1-0.3 0.1-0.4 0.2-0.2 0.1-0.3 0.3 0 0.1 0 0.3 0 0.2 0.1 0.4 0.1 0.1 0.3 0.2 0.2 0.1 0.5 0.1zm4.5 0.9v-7.9h1.3v7.9zm3.7 2.6l1.1-3.1v0.9l-2.5-6.2h1.3l1.8 4.6h-0.3l1.7-4.6h1.3l-3.2 8.4zm9.1-2.6q-0.5 0.1-1.1 0.1-0.6 0-1-0.2-0.4-0.2-0.7-0.6-0.2-0.4-0.2-0.8 0-0.4 0-0.9v-5.1h1.3v5.1q0 0.3 0 0.6 0 0.2 0.1 0.4 0.2 0.3 0.7 0.4 0.4 0 0.9-0.1zm-4-4.8v-1h4v1zm5.5-1.9v-1.2h1.3v1.2zm0 6.7v-5.8h1.3v5.8zm5.5 0.2q-1 0-1.6-0.4-0.6-0.4-1-1.1-0.3-0.7-0.3-1.6 0-0.9 0.3-1.6 0.4-0.7 1-1.1 0.7-0.4 1.6-0.4 1 0 1.7 0.5 0.6 0.5 0.9 1.4l-1.3 0.3q-0.2-0.4-0.5-0.7-0.4-0.3-0.8-0.3-0.6 0-0.9 0.3-0.3 0.2-0.5 0.6-0.1 0.5-0.1 1 0 0.8 0.3 1.3 0.4 0.6 1.2 0.6 0.5 0 0.8-0.3 0.3-0.2 0.4-0.7l1.4 0.3q-0.3 0.9-1 1.4-0.7 0.5-1.6 0.5zm5.9 0q-1.1 0-1.8-0.5-0.6-0.5-0.8-1.4l1.4-0.2q0.1 0.5 0.4 0.7 0.4 0.3 0.9 0.3 0.5 0 0.7-0.2 0.3-0.2 0.3-0.5 0-0.2-0.1-0.4-0.1-0.1-0.4-0.2-0.4-0.1-1-0.3-0.7-0.2-1.2-0.4-0.4-0.2-0.6-0.5-0.2-0.3-0.2-0.8 0-0.5 0.3-0.9 0.3-0.4 0.8-0.7 0.5-0.2 1.2-0.2 0.7 0 1.2 0.2 0.5 0.2 0.9 0.6 0.3 0.4 0.4 0.9l-1.4 0.3q0-0.4-0.3-0.6-0.3-0.2-0.8-0.3-0.4 0-0.7 0.2-0.3 0.1-0.3 0.4 0 0.2 0.1 0.3 0.1 0.2 0.5 0.3 0.3 0.1 1 0.3 0.7 0.1 1.1 0.4 0.4 0.2 0.6 0.5 0.2 0.3 0.2 0.8 0 0.9-0.6 1.4-0.7 0.5-1.8 0.5z"/>
	<path fill-rule="evenodd" class="s8" d="m79.7 218.5h26.8c0.7 0 1.3 0.6 1.3 1.3 0 0.7-0.6 1.3-1.3 1.3h-28.1c-0.7 0-1.3-0.6-1.3-1.3v-28.1c0-0.7 0.6-1.3 1.3-1.3 0.7 0 1.3 0.6 1.3 1.3zm23.4-5c0 0.7-0.6 1.3-1.3 1.3-0.7 0-1.3-0.6-1.3-1.3v-12.5c0-0.7 0.6-1.3 1.3-1.3 0.7 0 1.3 0.6 1.3 1.3zm-9.1-20.1c0.7 0 1.3 0.6 1.3 1.3v18.8c0 0.7-0.6 1.3-1.3 1.3-0.7 0-1.3-0.6-1.3-1.3v-18.8c0-0.7 0.6-1.3 1.3-1.3zm-6.5 20.1c0 0.7-0.6 1.3-1.3 1.3-0.7 0-1.3-0.6-1.3-1.3v-4.7c0-0.7 0.6-1.3 1.3-1.3 0.7 0 1.3 0.6 1.3 1.3z"/>
	<path fill-rule="evenodd" class="s2" d="m266.4 169.9h61.5c8.4 0 15.3 6.9 15.3 15.4v61.4c0 8.5-6.9 15.3-15.3 15.3h-61.5c-8.4 0-15.3-6.8-15.3-15.3v-61.4c0-8.5 6.9-15.4 15.3-15.4z"/>
	<path class="s3" d="m274.6 238.2l2.4-7.8h2l2.4 7.8h-1.3l-2.3-7h0.3l-2.2 7zm1.4-1.7v-1.2h4.1v1.2zm8.8 1.9q-0.8 0-1.4-0.4-0.6-0.5-1-1.2-0.3-0.6-0.3-1.5 0-0.9 0.3-1.6 0.4-0.7 1-1.1 0.6-0.4 1.4-0.4 0.9 0 1.4 0.4 0.6 0.4 0.9 1.1 0.3 0.7 0.3 1.6 0 0.8-0.3 1.5-0.3 0.7-0.9 1.2-0.6 0.4-1.4 0.4zm0.2-1.2q0.5 0 0.8-0.2 0.3-0.3 0.5-0.7 0.1-0.5 0.1-1 0-0.6-0.1-1-0.2-0.5-0.5-0.7-0.3-0.2-0.8-0.2-0.5 0-0.9 0.2-0.3 0.3-0.5 0.7-0.1 0.4-0.1 1 0 0.5 0.1 0.9 0.2 0.5 0.5 0.7 0.4 0.3 0.9 0.3zm1.4 1v-4.1h-0.1v-3.7h1.3v7.8zm9.7 0v-3.6q0-0.6-0.3-0.9-0.3-0.3-0.8-0.3-0.3 0-0.6 0.1-0.2 0.2-0.4 0.4-0.1 0.3-0.1 0.7l-0.6-0.3q0-0.7 0.3-1.1 0.3-0.5 0.7-0.7 0.5-0.3 1.1-0.3 1 0 1.5 0.6 0.5 0.6 0.5 1.5v3.9zm-7 0v-5.8h1.1v1.8h0.2v4zm3.5 0v-3.5q0-0.7-0.3-1-0.3-0.3-0.8-0.3-0.5 0-0.8 0.3-0.3 0.3-0.3 0.9l-0.6-0.4q0-0.6 0.3-1 0.3-0.5 0.7-0.7 0.5-0.3 1.1-0.3 0.7 0 1.1 0.3 0.5 0.3 0.7 0.7 0.2 0.5 0.2 1.1v3.9zm6.3-6.7v-1.2h1.3v1.2zm0 6.7v-5.8h1.3v5.8zm7 0v-2.8q0-0.3 0-0.6-0.1-0.4-0.2-0.7-0.1-0.3-0.4-0.5-0.3-0.2-0.7-0.2-0.3 0-0.5 0.1-0.3 0.1-0.5 0.3-0.2 0.2-0.3 0.5-0.1 0.4-0.1 0.9l-0.8-0.3q0-0.8 0.3-1.4 0.3-0.6 0.8-1 0.6-0.3 1.4-0.3 0.7 0 1.1 0.2 0.4 0.2 0.7 0.6 0.2 0.3 0.3 0.7 0.2 0.3 0.2 0.7 0 0.3 0 0.5v3.3zm-4 0v-5.8h1.1v1.8h0.2v4zm12.1 0.2q-0.9 0-1.6-0.4-0.7-0.4-1.1-1.1-0.4-0.7-0.4-1.6v-4.9h1.3v4.9q0 0.4 0.1 0.8 0.2 0.3 0.4 0.5 0.3 0.3 0.6 0.4 0.3 0.1 0.7 0.1 0.4 0 0.7-0.1 0.3-0.1 0.6-0.4 0.2-0.2 0.4-0.6 0.1-0.3 0.1-0.7v-4.9h1.3v4.9q0 0.9-0.4 1.6-0.4 0.7-1.1 1.1-0.7 0.4-1.6 0.4zm4.8-0.2v-7.8h1.3v7.8z"/>
	<path fill-rule="evenodd" class="s8" d="m298.6 192.4c2.3 2 5.5 3.5 7.9 3.5 0.7 0 1.4 0.3 1.9 0.8 0.5 0.5 0.8 1.2 0.8 1.9v9.8c0 3.9-1.4 6.8-3.5 9.1-2.2 2.2-5.1 3.7-8.1 4.7-0.6 0.2-1.2 0.2-1.8 0-3-1.1-5.9-2.5-8.1-4.7-2.2-2.3-3.5-5.2-3.5-9.1v-9.8c0-0.7 0.2-1.4 0.7-1.9 0.5-0.5 1.2-0.8 1.9-0.8 2.4 0 5.7-1.5 8-3.5 0.5-0.5 1.2-0.7 1.9-0.7 0.7 0 1.3 0.2 1.9 0.7zm-11.9 6.1q0 0 0 0.1v9.8c0 3.2 1.1 5.5 2.8 7.3 1.8 1.8 4.3 3.1 7.1 4.1h0.1q0 0 0 0c2.9-1 5.4-2.3 7.1-4.1 1.8-1.8 2.8-4.1 2.8-7.3v-9.8q0-0.1 0-0.1 0-0.1-0.1-0.1c-3.2 0-7-1.8-9.6-4.1q-0.1-0.1-0.2-0.1-0.2 0-0.3 0.1c-2.5 2.3-6.3 4.1-9.6 4.1q0 0-0.1 0.1zm9.5 12.2c-0.5 0.5-1.3 0.5-1.8 0l-2.8-2.8c-0.5-0.5-0.5-1.3 0-1.8 0.5-0.5 1.3-0.5 1.8 0l1.9 1.9 4.7-4.7c0.5-0.5 1.3-0.5 1.8 0 0.5 0.5 0.5 1.3 0 1.8z"/>
	<path fill-rule="evenodd" class="s2" d="m164.1 169.9h61.4c8.5 0 15.4 6.9 15.4 15.4v61.4c0 8.5-6.9 15.3-15.4 15.3h-61.4c-8.5 0-15.4-6.8-15.4-15.3v-61.4c0-8.5 6.9-15.4 15.4-15.4z"/>
	<path class="s3" d="m167.4 230.5v-7.8h2.5q0.1 0 0.4 0 0.3 0 0.6 0.1 0.9 0.1 1.5 0.6 0.7 0.6 1 1.4 0.3 0.8 0.3 1.8 0 1-0.3 1.9-0.3 0.8-1 1.3-0.6 0.6-1.5 0.7-0.3 0-0.6 0-0.3 0-0.4 0zm1.3-1.2h1.2q0.2 0 0.4 0 0.3 0 0.5-0.1 0.5-0.1 0.9-0.5 0.3-0.3 0.5-0.9 0.1-0.6 0.1-1.2 0-0.6-0.1-1.2-0.2-0.5-0.6-0.9-0.3-0.4-0.8-0.5-0.2 0-0.5 0-0.2 0-0.4 0h-1.2zm7.9 1.3q-0.6 0-1-0.2-0.5-0.2-0.7-0.6-0.2-0.4-0.2-0.9 0-0.4 0.1-0.8 0.1-0.3 0.4-0.6 0.3-0.2 0.8-0.4 0.4-0.1 0.8-0.2 0.5-0.1 1-0.1 0.6-0.1 1.2-0.2l-0.5 0.3q0.1-0.7-0.2-0.9-0.3-0.3-1-0.3-0.3 0-0.7 0.2-0.4 0.1-0.5 0.6l-1.2-0.4q0.2-0.7 0.8-1.2 0.6-0.4 1.6-0.4 0.8 0 1.4 0.2 0.6 0.3 0.9 0.9 0.2 0.3 0.2 0.6 0 0.3 0 0.7v3.6h-1.1v-1.3l0.2 0.2q-0.4 0.7-1 1-0.5 0.2-1.3 0.2zm0.3-1q0.4 0 0.7-0.1 0.4-0.2 0.5-0.4 0.2-0.3 0.3-0.5 0.1-0.2 0.1-0.5 0-0.4 0-0.6l0.4 0.2q-0.6 0.1-1 0.1-0.4 0.1-0.7 0.2-0.3 0-0.5 0.1-0.3 0.1-0.4 0.2-0.2 0.1-0.3 0.2-0.1 0.2-0.1 0.4 0 0.2 0.2 0.4 0.1 0.1 0.3 0.2 0.2 0.1 0.5 0.1zm6.6 1q-1.1 0-1.8-0.4-0.6-0.5-0.8-1.4l1.3-0.2q0.1 0.4 0.5 0.7 0.3 0.2 0.9 0.2 0.5 0 0.7-0.2 0.3-0.2 0.3-0.5 0-0.2-0.1-0.3-0.1-0.1-0.4-0.2-0.4-0.2-1-0.3-0.8-0.2-1.2-0.4-0.4-0.3-0.6-0.6-0.2-0.3-0.2-0.7 0-0.6 0.3-1 0.3-0.4 0.8-0.6 0.5-0.2 1.2-0.2 0.7 0 1.2 0.2 0.5 0.2 0.9 0.6 0.3 0.4 0.4 0.9l-1.4 0.2q0-0.3-0.3-0.5-0.3-0.3-0.8-0.3-0.4 0-0.7 0.2-0.3 0.1-0.3 0.4 0 0.2 0.1 0.3 0.1 0.1 0.5 0.2 0.3 0.2 1 0.3 0.7 0.2 1.1 0.4 0.4 0.3 0.6 0.6 0.2 0.3 0.2 0.8 0 0.8-0.6 1.3-0.7 0.6-1.8 0.5zm7.6-0.1v-2.8q0-0.3 0-0.6 0-0.4-0.2-0.7-0.1-0.3-0.4-0.5-0.3-0.2-0.7-0.2-0.3 0-0.5 0.1-0.3 0.1-0.5 0.3-0.2 0.2-0.3 0.5-0.1 0.3-0.1 0.9l-0.8-0.3q0-0.8 0.3-1.4 0.3-0.6 0.9-1 0.5-0.3 1.4-0.3 0.6 0 1 0.2 0.4 0.2 0.7 0.5 0.2 0.4 0.4 0.8 0.1 0.3 0.1 0.7 0.1 0.3 0.1 0.5v3.3zm-4.1 0v-7.8h1.2v4.1h0.1v3.7zm9.6 0.1q-0.8 0-1.4-0.4-0.6-0.4-0.9-1.1-0.3-0.7-0.3-1.5 0-0.9 0.3-1.6 0.3-0.7 0.9-1.1 0.5-0.4 1.4-0.4 0.8 0 1.4 0.4 0.6 0.4 1 1.1 0.3 0.7 0.3 1.6 0 0.8-0.3 1.5-0.4 0.7-1 1.1-0.6 0.4-1.4 0.4zm-2.8-0.1v-7.8h1.3v3.7h-0.1v4.1zm2.6-1q0.5 0 0.8-0.3 0.3-0.2 0.5-0.7 0.2-0.4 0.2-0.9 0-0.6-0.2-1-0.2-0.4-0.5-0.7-0.3-0.3-0.9-0.3-0.5 0-0.8 0.3-0.3 0.2-0.4 0.7-0.2 0.4-0.2 1 0 0.5 0.2 1 0.1 0.4 0.4 0.6 0.3 0.3 0.9 0.3zm6.6 1.1q-0.9 0-1.5-0.3-0.7-0.4-1-1.1-0.4-0.7-0.4-1.6 0-1 0.4-1.6 0.3-0.7 1-1.1 0.7-0.4 1.5-0.4 0.9 0 1.6 0.4 0.6 0.4 1 1.1 0.3 0.7 0.3 1.6 0 0.9-0.3 1.6-0.4 0.7-1 1.1-0.7 0.3-1.6 0.3zm0-1.2q0.8 0 1.2-0.5 0.4-0.5 0.4-1.3 0-0.9-0.4-1.4-0.4-0.5-1.2-0.5-0.5 0-0.8 0.2-0.4 0.3-0.5 0.7-0.2 0.4-0.2 1 0 0.8 0.4 1.3 0.4 0.5 1.1 0.5zm5.8 1.2q-0.7 0-1.1-0.2-0.4-0.2-0.7-0.6-0.2-0.4-0.2-0.9 0-0.4 0.1-0.8 0.2-0.3 0.5-0.6 0.3-0.2 0.7-0.4 0.4-0.1 0.9-0.2 0.4-0.1 1-0.1 0.5-0.1 1.2-0.2l-0.5 0.3q0-0.7-0.3-0.9-0.3-0.3-0.9-0.3-0.4 0-0.8 0.2-0.3 0.1-0.5 0.6l-1.2-0.4q0.2-0.7 0.8-1.2 0.7-0.4 1.7-0.4 0.8 0 1.4 0.2 0.6 0.3 0.8 0.9 0.2 0.3 0.2 0.6 0.1 0.3 0.1 0.7v3.6h-1.2v-1.3l0.2 0.2q-0.4 0.7-0.9 1-0.5 0.2-1.3 0.2zm0.2-1q0.5 0 0.8-0.1 0.3-0.2 0.5-0.4 0.2-0.3 0.2-0.5 0.1-0.2 0.1-0.5 0.1-0.4 0.1-0.6l0.4 0.2q-0.6 0.1-1 0.1-0.5 0.1-0.8 0.2-0.3 0-0.5 0.1-0.2 0.1-0.4 0.2-0.1 0.1-0.2 0.2-0.1 0.2-0.1 0.4 0 0.2 0.1 0.4 0.1 0.1 0.3 0.2 0.2 0.1 0.5 0.1zm4.4 0.9v-5.9h1.1v1.5l-0.1-0.2q0.1-0.3 0.3-0.6 0.2-0.2 0.4-0.4 0.2-0.1 0.5-0.2 0.2-0.1 0.5-0.1 0.3 0 0.6 0v1.3q-0.3-0.1-0.6-0.1-0.4 0-0.6 0.2-0.3 0.1-0.5 0.4-0.2 0.2-0.2 0.5-0.1 0.3-0.1 0.6v3zm6.5 0.1q-0.8 0-1.4-0.4-0.6-0.4-0.9-1.1-0.3-0.7-0.3-1.5 0-0.9 0.3-1.6 0.3-0.7 1-1.1 0.6-0.4 1.4-0.4 0.8 0 1.4 0.4 0.6 0.4 0.9 1.1 0.2 0.7 0.2 1.6 0 0.8-0.2 1.5-0.3 0.7-0.9 1.1-0.6 0.4-1.5 0.4zm0.2-1.1q0.6 0 0.9-0.3 0.3-0.2 0.5-0.6 0.1-0.5 0.1-1 0-0.6-0.1-1-0.2-0.5-0.5-0.7-0.3-0.3-0.8-0.3-0.5 0-0.9 0.3-0.3 0.3-0.5 0.7-0.1 0.4-0.1 1 0 0.5 0.1 0.9 0.2 0.5 0.5 0.7 0.3 0.3 0.8 0.3zm1.5 1v-4.1h-0.2v-3.7h1.4v7.8zm-50.3 14.1q-0.7 0.1-1.3-0.1-0.5-0.2-0.9-0.7-0.3-0.3-0.5-0.7-0.1-0.4-0.1-0.9 0-0.4 0.1-0.8 0.1-0.5 0.4-0.8 0.1-0.1 0.2-0.2 0.2-0.1 0.3-0.2-0.3-0.3-0.5-0.7-0.1-0.3-0.1-0.8 0-0.7 0.3-1.2 0.4-0.5 1-0.8 0.3-0.1 0.6-0.1 0.3-0.1 0.5-0.1 0.6 0 1 0.2 0.5 0.2 0.8 0.5 0.2 0.2 0.4 0.5 0.1 0.2 0.2 0.5l-1.3 0.2q-0.1-0.2-0.3-0.4-0.1-0.1-0.4-0.2-0.2 0-0.4 0-0.3 0-0.6 0.1-0.3 0.1-0.4 0.3-0.1 0.2-0.1 0.5 0 0.3 0.1 0.5 0.1 0.1 0.2 0.3 0.1 0.1 0.3 0.2 0.1 0.2 0.3 0.3l1.9 1.8q0-0.1 0-0.2 0-0.1 0-0.2v-1h1.2v1.4q0 0.3 0 0.6-0.1 0.3-0.1 0.4l1 0.9-0.9 0.9-0.7-0.7q-0.3 0.3-0.6 0.4-0.4 0.2-0.7 0.3-0.3 0-0.5 0-0.2 0.1-0.4 0zm0-1.2q0.2 0 0.3 0 0.2 0 0.3-0.1 0.2 0 0.4-0.1 0.1-0.1 0.2-0.2l-2-1.9q-0.2 0.1-0.3 0.2-0.1 0-0.2 0.2-0.1 0.1-0.2 0.3 0 0.1 0 0.4 0 0.2 0.1 0.4 0 0.2 0.2 0.4 0.2 0.2 0.5 0.3 0.4 0.1 0.7 0.1zm9.7 1.2q-0.9 0.1-1.6-0.2-0.6-0.3-1.1-0.9-0.4-0.6-0.5-1.3l1.3-0.2q0.2 0.7 0.7 1 0.6 0.4 1.3 0.4 0.4 0 0.8-0.1 0.3-0.1 0.5-0.4 0.3-0.2 0.3-0.6 0-0.2-0.1-0.3 0-0.1-0.1-0.2-0.1-0.2-0.3-0.2-0.2-0.1-0.4-0.2l-2-0.6q-0.3-0.1-0.6-0.2-0.3-0.1-0.5-0.3-0.3-0.3-0.5-0.6-0.1-0.4-0.1-0.9 0-0.7 0.3-1.2 0.4-0.6 1.1-0.8 0.6-0.3 1.4-0.3 0.8 0 1.4 0.3 0.7 0.3 1.1 0.8 0.4 0.5 0.6 1.2l-1.4 0.3q-0.1-0.4-0.4-0.7-0.2-0.3-0.6-0.5-0.3-0.1-0.7-0.1-0.4 0-0.7 0.1-0.4 0.1-0.6 0.3-0.2 0.2-0.2 0.6 0 0.2 0.2 0.4 0.2 0.2 0.4 0.3 0.3 0.1 0.6 0.2l1.4 0.4q0.2 0.1 0.6 0.2 0.4 0.1 0.7 0.3 0.3 0.3 0.5 0.7 0.2 0.3 0.2 0.9 0 0.6-0.2 1.1-0.3 0.4-0.7 0.7-0.4 0.3-1 0.5-0.5 0.1-1.1 0.1zm6.9 0q-0.9 0.1-1.6-0.3-0.7-0.4-1-1.1-0.4-0.7-0.4-1.6 0-0.9 0.4-1.6 0.3-0.7 1-1.1 0.6-0.4 1.5-0.4 0.9 0 1.5 0.4 0.7 0.4 1 1.2 0.3 0.8 0.2 1.8h-1.3v-0.4q0-1-0.3-1.4-0.3-0.5-1-0.5-0.8 0-1.2 0.5-0.4 0.5-0.4 1.5 0 0.9 0.4 1.3 0.4 0.5 1.1 0.5 0.5 0 0.8-0.2 0.4-0.2 0.6-0.6l1.3 0.4q-0.4 0.8-1.1 1.2-0.7 0.5-1.5 0.4zm-2-2.7v-1h4v1zm9.3 2.6q-0.6 0.1-1.2 0.1-0.5 0-0.9-0.2-0.5-0.2-0.7-0.6-0.2-0.4-0.2-0.8 0-0.4 0-0.9v-5.1h1.3v5q0 0.4 0 0.6 0 0.3 0.1 0.5 0.2 0.3 0.6 0.3 0.4 0.1 1 0zm-4.1-4.8v-1.1h4.1v1.1zm8.1 4.8q-0.6 0.1-1.1 0.1-0.6 0-1-0.2-0.5-0.2-0.7-0.6-0.2-0.4-0.2-0.8 0-0.4 0-0.9v-5.1h1.3v5q0 0.4 0 0.6 0 0.3 0.1 0.5 0.2 0.3 0.6 0.3 0.5 0.1 1 0zm-4.1-4.8v-1h4.1v1zm5.5-1.9v-1.2h1.3v1.2zm0 6.7v-5.8h1.3v5.8zm6.9 0v-2.8q0-0.3 0-0.6 0-0.4-0.2-0.7-0.1-0.3-0.4-0.5-0.3-0.2-0.7-0.2-0.3 0-0.5 0.1-0.3 0.1-0.5 0.3-0.2 0.2-0.3 0.5-0.1 0.4-0.1 0.9l-0.8-0.3q0-0.8 0.3-1.4 0.3-0.6 0.9-1 0.5-0.3 1.4-0.3 0.6 0 1 0.2 0.4 0.2 0.7 0.6 0.2 0.3 0.4 0.7 0.1 0.3 0.1 0.7 0.1 0.3 0.1 0.5v3.3zm-4.1 0v-5.8h1.2v1.8h0.1v4zm9.3 2.8q-0.5 0-1-0.2-0.4-0.1-0.8-0.4-0.3-0.3-0.6-0.7l1.2-0.6q0.2 0.3 0.5 0.5 0.3 0.1 0.7 0.1 0.4 0 0.7-0.1 0.3-0.2 0.5-0.4 0.2-0.3 0.2-0.7v-1.7h0.1v-4.4h1.2v6.1q0 0.2-0.1 0.4 0 0.2 0 0.4-0.1 0.6-0.5 0.9-0.4 0.4-0.9 0.6-0.6 0.2-1.2 0.2zm-0.1-2.6q-0.8 0-1.5-0.4-0.6-0.4-0.9-1.1-0.3-0.7-0.3-1.6 0-0.9 0.3-1.6 0.4-0.7 1-1.1 0.6-0.4 1.4-0.4 0.8 0 1.4 0.4 0.6 0.4 0.9 1.1 0.3 0.7 0.3 1.6 0 0.8-0.3 1.6-0.3 0.7-0.9 1.1-0.6 0.4-1.4 0.4zm0.2-1.2q0.5 0 0.8-0.2 0.3-0.3 0.5-0.7 0.1-0.5 0.1-1 0-0.6-0.1-1-0.2-0.5-0.5-0.7-0.3-0.2-0.8-0.2-0.5 0-0.9 0.2-0.3 0.3-0.5 0.7-0.1 0.4-0.1 1 0 0.5 0.1 1 0.2 0.4 0.5 0.6 0.3 0.3 0.9 0.3zm6.3 1.2q-1 0-1.7-0.5-0.7-0.5-0.8-1.4l1.3-0.2q0.1 0.4 0.4 0.7 0.4 0.2 0.9 0.2 0.5 0 0.8-0.2 0.2-0.1 0.2-0.5 0-0.2-0.1-0.3-0.1-0.1-0.4-0.2-0.3-0.1-1-0.3-0.7-0.2-1.1-0.4-0.5-0.3-0.7-0.6-0.2-0.3-0.2-0.7 0.1-0.6 0.3-1 0.3-0.4 0.8-0.6 0.6-0.2 1.3-0.2 0.6 0 1.2 0.2 0.5 0.2 0.8 0.6 0.3 0.4 0.4 0.9l-1.3 0.3q-0.1-0.4-0.4-0.6-0.2-0.3-0.7-0.3-0.5 0-0.8 0.2-0.3 0.1-0.3 0.4 0 0.2 0.2 0.3 0.1 0.1 0.4 0.2 0.4 0.2 1 0.3 0.7 0.2 1.2 0.5 0.4 0.2 0.6 0.5 0.2 0.3 0.2 0.8 0 0.9-0.7 1.4-0.6 0.5-1.8 0.5z"/>
	<path fill-rule="evenodd" class="s8" d="m198.5 186.8h8.6c0.7 0 1.2 0.6 1.2 1.3 0 0.7-0.5 1.3-1.2 1.3h-8.6v1.5c0 0.7-0.6 1.3-1.3 1.3-0.7 0-1.2-0.6-1.2-1.3v-5.6c0-0.7 0.5-1.3 1.2-1.3 0.7 0 1.3 0.6 1.3 1.3zm-18 1.3c0-0.8 0.6-1.3 1.3-1.3h9.8c0.7 0 1.3 0.5 1.3 1.3 0 0.7-0.6 1.2-1.3 1.2h-9.8c-0.7 0-1.3-0.5-1.3-1.2zm26.6 9.9c0.7 0 1.2 0.6 1.2 1.3 0 0.7-0.5 1.3-1.2 1.3h-12.7c-0.7 0-1.3-0.6-1.3-1.3 0-0.7 0.6-1.3 1.3-1.3zm-26.5 1.3c0-0.7 0.6-1.3 1.3-1.3h5.7v-1.5c0-0.7 0.6-1.3 1.3-1.3 0.7 0 1.3 0.6 1.3 1.3v2.8 2.8c0 0.7-0.6 1.3-1.3 1.3-0.7 0-1.3-0.6-1.3-1.3v-1.5h-5.7c-0.7 0-1.3-0.6-1.3-1.3zm18.2 8.4c0-0.7 0.6-1.3 1.3-1.3 0.7 0 1.3 0.6 1.3 1.3v1.5h5.7c0.7 0 1.3 0.6 1.3 1.3 0 0.7-0.6 1.3-1.3 1.3h-5.7v1.5c0 0.7-0.6 1.3-1.3 1.3-0.7 0-1.3-0.6-1.3-1.3zm-18.2 2.8c0-0.7 0.6-1.3 1.3-1.3h12.6c0.7 0 1.3 0.6 1.3 1.3 0 0.7-0.6 1.3-1.3 1.3h-12.6c-0.7 0-1.3-0.6-1.3-1.3z"/>
	<g id="Clip-Path" clip-path="url(#cp3)">
		<g>
		</g>
	</g>
	<path class="s9" d="m524 46.6c0-3.6 0-5.4 1.1-6.5 1.1-1.1 2.9-1.1 6.5-1.1h6.8c3.6 0 5.4 0 6.5 1.1 1.1 1.1 1.1 2.9 1.1 6.5v6.8c0 3.6 0 5.4-1.1 6.5-1.1 1.1-2.9 1.1-6.5 1.1h-6.8c-3.6 0-5.4 0-6.5-1.1-1.1-1.1-1.1-2.9-1.1-6.5 0 0 0-6.8 0-6.8z"/>
	<path class="s10" d="m149.3 43.8l-0.6 9.7-6-12.8zm-4.2 12.6l-4.4 2.6-4.5-2.6 0.8-2.2h7.3zm-4.5-10.8l2.3 5.7h-4.6zm-8.1 8l-0.6-9.8 6.6-3.1z"/>
	<path class="s11" d="m149.3 43.8l-0.6 9.7-6-12.8zm-4.2 12.6l-4.4 2.6-4.5-2.6 0.8-2.2h7.3zm-4.5-10.8l2.3 5.7h-4.6zm-8.1 8l-0.6-9.8 6.6-3.1z"/>
	<path class="s12" d="m539.2 45.7h-7.4v3.8h3.7v3.7h3.8v-7.4c0-0.1 0-0.1-0.1-0.1z"/>
	<path class="s12" d="m535.4 49.5h0.1v0.1h-0.1z"/>
	<path class="s13" d="m531.8 49.5h3.6c0.1 0 0.1 0 0.1 0.1v3.6h-3.6q0 0 0 0-0.1 0-0.1 0 0 0 0-0.1 0 0 0 0zm3.8 3.8h3.7l-3.6 3.6c-0.1 0.1-0.1 0-0.1 0zm-3.8-3.8h-3.6c-0.1 0-0.1-0.1-0.1-0.1l3.7-3.7z"/>
</svg>